{
.appVersion = "1075";
DisplayStrings = (
/lslash/lslash/slashshortcomb/slashshortcomb/lslash,
"AAA\012BBB\012CCC\012DDD\012EEE\012FFF",
"nieod/lslash/aogonek cznym kr\U00F3tkotrwa/lslash ych wsp\U00F3/lslash rz/eogonek dnych m/sacute cis/lslash aw wype/lslash niaj/aogonek cych cz/eogonek/sacute ciowouk/lslash ad"
);
classes = (
{
automatic = 1;

glyphs = (
{
glyphname = A;
lastChange = "2017-10-27 16:17:48 +0000";
layers = (
{
anchors = (
{
name = bottom;
position = "{352, 0}";
},
{
name = ogonek;
position = "{638, 10}";
},
{
name = top;
position = "{352, 694}";
}
);
layerId = "F333AEC5-BB61-4D5E-9EDD-6124322D28F2";
paths = (
{
closed = 1;
nodes = (
"132 0 LINE",
"359 636 LINE",
"350 636 LINE",
"564 0 LINE",
"657 0 LINE",
"413 694 LINE",
"305 694 LINE",
"45 0 LINE"
);
},
{
closed = 1;
nodes = (
"523 206 LINE",
"523 278 LINE",
"176 278 LINE",
"176 206 LINE"
);
}
);
width = 702;
},
{
anchors = (
{
name = bottom;
position = "{369, 0}";
},
{
name = ogonek;
position = "{674, 10}";
},
{
name = top;
position = "{369, 694}";
}
);
layerId = "51C2DFEF-3776-4D13-9284-96485B799B57";
paths = (
{
closed = 1;
nodes = (
"194 0 LINE",
"399 590 LINE",
"329 590 LINE",
"542 0 LINE",
"725 0 LINE",
"461 694 LINE",
"277 694 LINE",
"13 0 LINE"
);
},
{
closed = 1;
nodes = (
"532 141 LINE",
"498 297 LINE",
"238 297 LINE",
"204 141 LINE"
);
}
);
width = 738;
},
{
anchors = (
{
name = bottom;
position = "{340, 0}";
},
{
name = ogonek;
position = "{599, 10}";
},
{
name = top;
position = "{343, 694}";
}
);
layerId = "0B2E441B-685E-400D-9B9B-E078DEED62EF";
paths = (
{
closed = 1;
nodes = (
"88 0 LINE",
"343 676 LINE",
"339 676 LINE",
"577 0 LINE",
"601 0 LINE",
"354 694 LINE",
"331 694 LINE",
"66 0 LINE"
);
},
{
closed = 1;
nodes = (
"503 243 LINE",
"497 262 LINE",
"177 262 LINE",
"172 243 LINE"
);
}
);
width = 668;
}
);
note = A;
unicode = 0041;
},
{
glyphname = B;
lastChange = "2017-10-28 15:47:41 +0000";
layers = (
{
anchors = (
{
name = bottom;
position = "{329, 0}";
},
{
name = top;
position = "{329, 694}";
}
);
layerId = "F333AEC5-BB61-4D5E-9EDD-6124322D28F2";
paths = (
{
closed = 1;
nodes = (
"349 0 LINE SMOOTH",
"509 0 OFFCURVE",
"603 74 OFFCURVE",
"603 201 CURVE SMOOTH",
"603 322 OFFCURVE",
"519 396 OFFCURVE",
"382 396 CURVE SMOOTH",
"156 396 LINE",
"156 327 LINE",
"373 327 LINE SMOOTH",
"467 327 OFFCURVE",
"518 278 OFFCURVE",
"518 190 CURVE SMOOTH",
"518 106 OFFCURVE",
"471 71 OFFCURVE",
"359 71 CURVE SMOOTH",
"190 71 LINE",
"190 623 LINE",
"308 623 LINE SMOOTH",
"414 623 OFFCURVE",
"466 584 OFFCURVE",
"466 505 CURVE SMOOTH",
"466 444 OFFCURVE",
"432 409 OFFCURVE",
"340 375 CURVE",
"460 375 LINE",
"516 399 OFFCURVE",
"551 457 OFFCURVE",
"551 524 CURVE SMOOTH",
"551 631 OFFCURVE",
"464 694 OFFCURVE",
"318 694 CURVE SMOOTH",
"107 694 LINE",
"107 0 LINE"
);
}
);
width = 664;
},
{
anchors = (
{
name = bottom;
position = "{329, 0}";
},
{
name = top;
position = "{329, 694}";
}
);
layerId = "51C2DFEF-3776-4D13-9284-96485B799B57";
paths = (
{
closed = 1;
nodes = (
"359 0 LINE SMOOTH",
"535 0 OFFCURVE",
"639 81 OFFCURVE",
"639 218 CURVE SMOOTH",
"639 344 OFFCURVE",
"551 418 OFFCURVE",
"401 418 CURVE SMOOTH",
"189 418 LINE",
"189 283 LINE",
"363 283 LINE SMOOTH",
"420 283 OFFCURVE",
"459 252 OFFCURVE",
"459 207 CURVE SMOOTH",
"459 163 OFFCURVE",
"422 136 OFFCURVE",
"363 136 CURVE SMOOTH",
"246 136 LINE",
"246 558 LINE",
"326 558 LINE SMOOTH",
"382 558 OFFCURVE",
"414 532 OFFCURVE",
"414 488 CURVE SMOOTH",
"414 453 OFFCURVE",
"393 422 OFFCURVE",
"355 401 CURVE",
"497 371 LINE",
"559 423 OFFCURVE",
"588 474 OFFCURVE",
"588 531 CURVE SMOOTH",
"588 634 OFFCURVE",
"492 694 OFFCURVE",
"326 694 CURVE SMOOTH",
"76 694 LINE",
"76 0 LINE"
);
}
);
width = 669;
},
{
anchors = (
{
name = bottom;
position = "{288, 0}";
},
{
name = top;
position = "{288, 694}";
}
);
layerId = "0B2E441B-685E-400D-9B9B-E078DEED62EF";
paths = (
{
closed = 1;
nodes = (
"335 0 LINE SMOOTH",
"487 0 OFFCURVE",
"574 68 OFFCURVE",
"574 187 CURVE SMOOTH",
"574 299 OFFCURVE",
"494 371 OFFCURVE",
"369 371 CURVE SMOOTH",
"142 371 LINE",
"142 354 LINE",
"359 354 LINE SMOOTH",
"479 354 OFFCURVE",
"553 289 OFFCURVE",
"553 184 CURVE SMOOTH",
"553 79 OFFCURVE",
"477 18 OFFCURVE",
"346 18 CURVE SMOOTH",
"148 18 LINE",
"148 676 LINE",
"308 676 LINE SMOOTH",
"438 676 OFFCURVE",
"512 621 OFFCURVE",
"512 525 CURVE SMOOTH",
"512 446 OFFCURVE",
"460 384 OFFCURVE",
"381 367 CURVE",
"407 363 LINE",
"478 373 OFFCURVE",
"533 446 OFFCURVE",
"533 529 CURVE SMOOTH",
"533 634 OFFCURVE",
"451 694 OFFCURVE",
"308 694 CURVE SMOOTH",
"128 694 LINE",
"128 0 LINE"
);
}
);
width = 658;
},
{
anchors = (
{
name = bottom;
position = "{296, 0}";
},
{
name = top;
position = "{296, 694}";
}
);
associatedMasterId = "0B2E441B-685E-400D-9B9B-E078DEED62EF";
layerId = "02F76483-B2BE-466D-9D0F-F50903A7EF04";
name = "Sep 26 17, 20:18";
paths = (
{
closed = 1;
nodes = (
"343 0 LINE SMOOTH",
"502 0 OFFCURVE",
"582 69 OFFCURVE",
"582 187 CURVE SMOOTH",
"582 304 OFFCURVE",
"501 371 OFFCURVE",
"377 371 CURVE SMOOTH",
"150 371 LINE",
"150 353 LINE",
"367 353 LINE SMOOTH",
"487 353 OFFCURVE",
"560 294 OFFCURVE",
"560 185 CURVE SMOOTH",
"560 75 OFFCURVE",
"486 18 OFFCURVE",
"354 18 CURVE SMOOTH",
"156 18 LINE",
"156 676 LINE",
"316 676 LINE SMOOTH",
"442 676 OFFCURVE",
"519 621 OFFCURVE",
"519 522 CURVE SMOOTH",
"519 447 OFFCURVE",
"473 385 OFFCURVE",
"359 367 CURVE",
"385 360 LINE",
"479 369 OFFCURVE",
"541 437 OFFCURVE",
"541 526 CURVE SMOOTH",
"541 633 OFFCURVE",
"454 694 OFFCURVE",
"316 694 CURVE SMOOTH",
"136 694 LINE",
"136 0 LINE"
);
}
);
width = 672;
}
);
note = B;
unicode = 0042;
},
{
glyphname = C;
lastChange = "2017-10-29 11:02:57 +0000";
layers = (
{
anchors = (
{
name = bottom;
position = "{381, 0}";
},
{
name = top;
position = "{381, 694}";
}
);
layerId = "F333AEC5-BB61-4D5E-9EDD-6124322D28F2";
paths = (
{
closed = 1;
nodes = (
"477 -10 OFFCURVE",
"547 5 OFFCURVE",
"613 34 CURVE",
"594 95 LINE",
"541 74 OFFCURVE",
"479 63 OFFCURVE",
"429 63 CURVE SMOOTH",
"263 63 OFFCURVE",
"153 181 OFFCURVE",
"153 358 CURVE SMOOTH",
"153 527 OFFCURVE",
"254 630 OFFCURVE",
"421 630 CURVE SMOOTH",
"478 630 OFFCURVE",
"541 618 OFFCURVE",
"593 597 CURVE",
"617 662 LINE",
"567 687 OFFCURVE",
"495 703 OFFCURVE",
"426 703 CURVE SMOOTH",
"211 703 OFFCURVE",
"68 557 OFFCURVE",
"68 339 CURVE SMOOTH",
"68 130 OFFCURVE",
"205 -10 OFFCURVE",
"410 -10 CURVE SMOOTH"
);
}
);
width = 671;
},
{
anchors = (
{
name = bottom;
position = "{354, 0}";
},
{
name = top;
position = "{354, 694}";
}
);
layerId = "51C2DFEF-3776-4D13-9284-96485B799B57";
paths = (
{
closed = 1;
nodes = (
"467 -10 OFFCURVE",
"544 5 OFFCURVE",
"603 30 CURVE",
"566 165 LINE",
"525 150 OFFCURVE",
"469 140 OFFCURVE",
"426 140 CURVE SMOOTH",
"301 140 OFFCURVE",
"216 226 OFFCURVE",
"216 357 CURVE SMOOTH",
"216 480 OFFCURVE",
"291 554 OFFCURVE",
"418 554 CURVE SMOOTH",
"467 554 OFFCURVE",
"521 543 OFFCURVE",
"572 523 CURVE",
"609 664 LINE",
"546 692 OFFCURVE",
"487 704 OFFCURVE",
"420 704 CURVE SMOOTH",
"189 704 OFFCURVE",
"36 559 OFFCURVE",
"36 339 CURVE SMOOTH",
"36 127 OFFCURVE",
"176 -10 OFFCURVE",
"395 -10 CURVE SMOOTH"
);
}
);
width = 639;
},
{
anchors = (
{
name = bottom;
position = "{372, 0}";
},
{
name = top;
position = "{372, 694}";
}
);
layerId = "0B2E441B-685E-400D-9B9B-E078DEED62EF";
paths = (
{
closed = 1;
nodes = (
"473 -10 OFFCURVE",
"537 6 OFFCURVE",
"600 35 CURVE",
"593 50 LINE",
"532 23 OFFCURVE",
"471 9 OFFCURVE",
"413 9 CURVE SMOOTH",
"234 9 OFFCURVE",
"113 144 OFFCURVE",
"113 348 CURVE SMOOTH",
"113 549 OFFCURVE",
"236 683 OFFCURVE",
"421 683 CURVE SMOOTH",
"478 683 OFFCURVE",
"539 670 OFFCURVE",
"596 644 CURVE",
"603 660 LINE",
"548 688 OFFCURVE",
"487 702 OFFCURVE",
"424 702 CURVE SMOOTH",
"224 702 OFFCURVE",
"91 556 OFFCURVE",
"91 338 CURVE SMOOTH",
"91 129 OFFCURVE",
"219 -10 OFFCURVE",
"409 -10 CURVE SMOOTH"
);
}
);
width = 673;
}
);
note = C;
unicode = 0043;
},
{
glyphname = D;
lastChange = "2017-10-29 11:07:38 +0000";
layers = (
{
anchors = (
{
name = bottom;
position = "{337, 0}";
},
{
name = center;
position = "{174, 347}";
},
{
name = top;
position = "{337, 694}";
}
);
layerId = "F333AEC5-BB61-4D5E-9EDD-6124322D28F2";
paths = (
{
closed = 1;
nodes = (
"319 0 LINE SMOOTH",
"534 0 OFFCURVE",
"671 139 OFFCURVE",
"671 356 CURVE SMOOTH",
"671 563 OFFCURVE",
"540 694 OFFCURVE",
"334 694 CURVE SMOOTH",
"107 694 LINE",
"107 0 LINE"
);
},
{
closed = 1;
nodes = (
"190 622 LINE",
"324 622 LINE SMOOTH",
"493 622 OFFCURVE",
"588 523 OFFCURVE",
"588 347 CURVE SMOOTH",
"588 172 OFFCURVE",
"494 72 OFFCURVE",
"329 72 CURVE SMOOTH",
"190 72 LINE"
);
}
);
width = 739;
},
{
anchors = (
{
name = bottom;
position = "{362, 0}";
},
{
name = center;
position = "{184, 344}";
},
{
name = top;
position = "{338, 694}";
}
);
layerId = "51C2DFEF-3776-4D13-9284-96485B799B57";
paths = (
{
closed = 1;
nodes = (
"319 0 LINE SMOOTH",
"554 0 OFFCURVE",
"703 138 OFFCURVE",
"703 356 CURVE SMOOTH",
"703 566 OFFCURVE",
"561 694 OFFCURVE",
"328 694 CURVE SMOOTH",
"76 694 LINE",
"76 0 LINE"
);
},
{
closed = 1;
nodes = (
"246 545 LINE",
"320 545 LINE SMOOTH",
"448 545 OFFCURVE",
"523 472 OFFCURVE",
"523 346 CURVE SMOOTH",
"523 222 OFFCURVE",
"451 149 OFFCURVE",
"326 149 CURVE SMOOTH",
"246 149 LINE"
);
}
);
width = 738;
},
{
anchors = (
{
name = bottom;
position = "{358, 0}";
},
{
name = center;
position = "{191, 364}";
},
{
name = top;
position = "{348, 694}";
}
);
layerId = "0B2E441B-685E-400D-9B9B-E078DEED62EF";
paths = (
{
closed = 1;
nodes = (
"291 0 LINE SMOOTH",
"513 0 OFFCURVE",
"639 127 OFFCURVE",
"639 351 CURVE SMOOTH",
"639 571 OFFCURVE",
"517 694 OFFCURVE",
"297 694 CURVE SMOOTH",
"128 694 LINE",
"128 0 LINE"
);
},
{
closed = 1;
nodes = (
"150 676 LINE",
"291 676 LINE SMOOTH",
"500 676 OFFCURVE",
"617 559 OFFCURVE",
"617 348 CURVE SMOOTH",
"617 137 OFFCURVE",
"502 18 OFFCURVE",
"297 18 CURVE SMOOTH",
"150 18 LINE"
);
}
);
width = 730;
}
);
note = D;
unicode = 0044;
},
{
glyphname = E;
lastChange = "2017-10-27 16:17:47 +0000";
layers = (
{
anchors = (
{
name = "#entry";
position = "{147, 291}";
},
{
name = bottom;
position = "{316, 0}";
},
{
name = ogonek;
position = "{525, 10}";
},
{
name = top;
position = "{336, 694}";
},
{
name = topleft;
position = "{18, 694}";
}
);
layerId = "F333AEC5-BB61-4D5E-9EDD-6124322D28F2";
paths = (
{
closed = 1;
nodes = (
"190 0 LINE",
"190 694 LINE",
"107 694 LINE",
"107 0 LINE"
);
},
{
closed = 1;
nodes = (
"543 0 LINE",
"543 72 LINE",
"147 72 LINE",
"147 0 LINE"
);
},
{
closed = 1;
nodes = (
"516 323 LINE",
"516 395 LINE",
"147 395 LINE",
"147 323 LINE"
);
},
{
closed = 1;
nodes = (
"543 622 LINE",
"543 694 LINE",
"147 694 LINE",
"147 622 LINE"
);
}
);
width = 607;
},
{
anchors = (
{
name = "#entry";
position = "{156, 291}";
},
{
name = bottom;
position = "{329, 0}";
},
{
name = ogonek;
position = "{512, 10}";
},
{
name = top;
position = "{322, 694}";
},
{
name = topleft;
position = "{24, 694}";
}
);
layerId = "51C2DFEF-3776-4D13-9284-96485B799B57";
paths = (
{
closed = 1;
nodes = (
"249 0 LINE",
"249 694 LINE",
"76 694 LINE",
"76 0 LINE"
);
},
{
closed = 1;
nodes = (
"562 0 LINE",
"562 152 LINE",
"156 152 LINE",
"156 0 LINE"
);
},
{
closed = 1;
nodes = (
"534 284 LINE",
"534 436 LINE",
"156 436 LINE",
"156 284 LINE"
);
},
{
closed = 1;
nodes = (
"562 542 LINE",
"562 694 LINE",
"156 694 LINE",
"156 542 LINE"
);
}
);
width = 617;
},
{
anchors = (
{
name = "#entry";
position = "{137, 291}";
},
{
name = bottom;
position = "{322, 0}";
},
{
name = ogonek;
position = "{513, 10}";
},
{
name = top;
position = "{321, 694}";
},
{
name = topleft;
position = "{11, 694}";
}
);
layerId = "0B2E441B-685E-400D-9B9B-E078DEED62EF";
paths = (
{
closed = 1;
nodes = (
"149 0 LINE",
"149 694 LINE",
"128 694 LINE",
"128 0 LINE"
);
},
{
closed = 1;
nodes = (
"515 0 LINE",
"515 18 LINE",
"137 18 LINE",
"137 0 LINE"
);
},
{
closed = 1;
nodes = (
"490 351 LINE",
"490 369 LINE",
"137 369 LINE",
"137 351 LINE"
);
},
{
closed = 1;
nodes = (
"515 676 LINE",
"515 694 LINE",
"137 694 LINE",
"137 676 LINE"
);
}
);
width = 585;
}
);
note = E;
unicode = 0045;
},
{
glyphname = F;
lastChange = "2017-10-29 11:07:44 +0000";
layers = (
{
anchors = (
{
name = bottom;
position = "{274, 0}";
},
{
name = top;
position = "{274, 694}";
}
);
layerId = "F333AEC5-BB61-4D5E-9EDD-6124322D28F2";
paths = (
{
closed = 1;
nodes = (
"190 0 LINE",
"190 694 LINE",
"107 694 LINE",
"107 0 LINE"
);
},
{
closed = 1;
nodes = (
"509 322 LINE",
"509 394 LINE",
"139 394 LINE",
"139 322 LINE"
);
},
{
closed = 1;
nodes = (
"538 622 LINE",
"538 694 LINE",
"139 694 LINE",
"139 622 LINE"
);
}
);
width = 590;
},
{
anchors = (
{
name = bottom;
position = "{174, 0}";
},
{
name = top;
position = "{284, 694}";
}
);
layerId = "51C2DFEF-3776-4D13-9284-96485B799B57";
paths = (
{
closed = 1;
nodes = (
"252 0 LINE",
"252 694 LINE",
"76 694 LINE",
"76 0 LINE"
);
},
{
closed = 1;
nodes = (
"520 264 LINE",
"520 416 LINE",
"156 416 LINE",
"156 264 LINE"
);
},
{
closed = 1;
nodes = (
"547 542 LINE",
"547 694 LINE",
"156 694 LINE",
"156 542 LINE"
);
}
);
width = 582;
},
{
anchors = (
{
name = bottom;
position = "{292, 0}";
},
{
name = top;
position = "{292, 694}";
}
);
layerId = "0B2E441B-685E-400D-9B9B-E078DEED62EF";
paths = (
{
closed = 1;
nodes = (
"150 0 LINE",
"150 694 LINE",
"128 694 LINE",
"128 0 LINE"
);
},
{
closed = 1;
nodes = (
"490 351 LINE",
"490 369 LINE",
"137 369 LINE",
"137 351 LINE"
);
},
{
closed = 1;
nodes = (
"515 676 LINE",
"515 694 LINE",
"137 694 LINE",
"137 676 LINE"
);
}
);
width = 580;
}
);
note = F;
unicode = 0046;
},
{
glyphname = G;
lastChange = "2017-10-28 14:24:06 +0000";
layers = (
{
anchors = (
{
name = bottom;
position = "{407, 0}";
},
{
name = top;
position = "{407, 694}";
}
);
layerId = "F333AEC5-BB61-4D5E-9EDD-6124322D28F2";
paths = (
{
closed = 1;
nodes = (
"512 -9 OFFCURVE",
"599 19 OFFCURVE",
"669 74 CURVE",
"669 368 LINE",
"389 368 LINE",
"389 296 LINE",
"586 296 LINE",
"586 102 LINE",
"537 77 OFFCURVE",
"483 64 OFFCURVE",
"428 64 CURVE SMOOTH",
"261 64 OFFCURVE",
"153 179 OFFCURVE",
"153 357 CURVE SMOOTH",
"153 530 OFFCURVE",
"252 630 OFFCURVE",
"421 630 CURVE SMOOTH",
"485 630 OFFCURVE",
"555 615 OFFCURVE",
"618 589 CURVE",
"642 655 LINE",
"581 687 OFFCURVE",
"509 703 OFFCURVE",
"432 703 CURVE SMOOTH",
"213 703 OFFCURVE",
"68 560 OFFCURVE",
"68 342 CURVE SMOOTH",
"68 130 OFFCURVE",
"206 -9 OFFCURVE",
"416 -9 CURVE SMOOTH"
);
}
);
width = 746;
},
{
anchors = (
{
name = bottom;
position = "{359, 0}";
},
{
name = top;
position = "{379, 694}";
}
);
layerId = "51C2DFEF-3776-4D13-9284-96485B799B57";
paths = (
{
closed = 1;
nodes = (
"512 -10 OFFCURVE",
"617 21 OFFCURVE",
"677 72 CURVE",
"677 405 LINE",
"378 405 LINE",
"378 255 LINE",
"507 255 LINE",
"507 153 LINE",
"478 144 OFFCURVE",
"449 140 OFFCURVE",
"421 140 CURVE SMOOTH",
"295 140 OFFCURVE",
"216 224 OFFCURVE",
"216 352 CURVE SMOOTH",
"216 482 OFFCURVE",
"296 554 OFFCURVE",
"438 554 CURVE SMOOTH",
"493 554 OFFCURVE",
"547 543 OFFCURVE",
"612 521 CURVE",
"649 662 LINE",
"579 691 OFFCURVE",
"512 704 OFFCURVE",
"440 704 CURVE SMOOTH",
"196 704 OFFCURVE",
"36 558 OFFCURVE",
"36 334 CURVE SMOOTH",
"36 123 OFFCURVE",
"179 -10 OFFCURVE",
"403 -10 CURVE SMOOTH"
);
}
);
width = 729;
},
{
anchors = (
{
name = bottom;
position = "{370, 0}";
},
{
name = top;
position = "{390, 694}";
}
);
layerId = "0B2E441B-685E-400D-9B9B-E078DEED62EF";
paths = (
{
closed = 1;
nodes = (
"505 -10 OFFCURVE",
"603 18 OFFCURVE",
"661 60 CURVE",
"661 338 LINE",
"404 338 LINE",
"404 319 LINE",
"639 319 LINE",
"639 66 LINE",
"586 36 OFFCURVE",
"503 9 OFFCURVE",
"420 9 CURVE SMOOTH",
"236 9 OFFCURVE",
"113 143 OFFCURVE",
"113 344 CURVE SMOOTH",
"113 548 OFFCURVE",
"241 680 OFFCURVE",
"436 680 CURVE SMOOTH",
"505 680 OFFCURVE",
"575 663 OFFCURVE",
"630 633 CURVE",
"639 651 LINE",
"577 683 OFFCURVE",
"509 699 OFFCURVE",
"439 699 CURVE SMOOTH",
"230 699 OFFCURVE",
"90 556 OFFCURVE",
"90 341 CURVE SMOOTH",
"90 130 OFFCURVE",
"221 -10 OFFCURVE",
"417 -10 CURVE SMOOTH"
);
}
);
width = 757;
}
);
note = G;
unicode = 0047;
},
{
glyphname = H;
lastChange = "2017-10-28 15:29:57 +0000";
layers = (
{
anchors = (
{
name = bottom;
position = "{376, 0}";
},
{
name = center;
position = "{376, 539}";
},
{
name = top;
position = "{376, 694}";
},
{
name = topleft;
position = "{18, 694}";
}
);
background = {
components = (
{
name = O;
transform = "{1, 0, 0, 1, -17, 0}";
}
);
};
layerId = "F333AEC5-BB61-4D5E-9EDD-6124322D28F2";
paths = (
{
closed = 1;
nodes = (
"644 0 LINE",
"644 694 LINE",
"561 694 LINE",
"561 0 LINE"
);
},
{
closed = 1;
nodes = (
"190 0 LINE",
"190 694 LINE",
"107 694 LINE",
"107 0 LINE"
);
},
{
closed = 1;
nodes = (
"609 323 LINE",
"609 395 LINE",
"139 395 LINE",
"139 323 LINE"
);
}
);
width = 751;
},
{
anchors = (
{
name = bottom;
position = "{380, 0}";
},
{
name = center;
position = "{380, 566}";
},
{
name = top;
position = "{380, 694}";
},
{
name = topleft;
position = "{19, 694}";
}
);
background = {
components = (
{
name = O;
transform = "{1, 0, 0, 1, -10, 0}";
}
);
};
layerId = "51C2DFEF-3776-4D13-9284-96485B799B57";
paths = (
{
closed = 1;
nodes = (
"684 0 LINE",
"684 694 LINE",
"508 694 LINE",
"508 0 LINE"
);
},
{
closed = 1;
nodes = (
"252 0 LINE",
"252 694 LINE",
"76 694 LINE",
"76 0 LINE"
);
},
{
closed = 1;
nodes = (
"524 277 LINE",
"524 433 LINE",
"235 433 LINE",
"235 277 LINE"
);
}
);
width = 760;
},
{
anchors = (
{
name = bottom;
position = "{362, 0}";
},
{
name = center;
position = "{362, 534}";
},
{
name = top;
position = "{362, 694}";
},
{
name = topleft;
position = "{23, 694}";
}
);
background = {
components = (
{
name = O;
transform = "{1, 0, 0, 1, -20, 0}";
}
);
};
layerId = "0B2E441B-685E-400D-9B9B-E078DEED62EF";
paths = (
{
closed = 1;
nodes = (
"595 0 LINE",
"595 694 LINE",
"573 694 LINE",
"573 0 LINE"
);
},
{
closed = 1;
nodes = (
"150 0 LINE",
"150 694 LINE",
"128 694 LINE",
"128 0 LINE"
);
},
{
closed = 1;
nodes = (
"579 345 LINE",
"579 364 LINE",
"143 364 LINE",
"143 345 LINE"
);
}
);
width = 723;
}
);
note = H;
unicode = 0048;
},
{
glyphname = I;
lastChange = "2017-10-28 15:29:58 +0000";
layers = (
{
anchors = (
{
name = bottom;
position = "{149, 0}";
},
{
name = ogonek;
position = "{178, 10}";
},
{
name = top;
position = "{149, 694}";
},
{
name = topleft;
position = "{18, 694}";
}
);
layerId = "F333AEC5-BB61-4D5E-9EDD-6124322D28F2";
paths = (
{
closed = 1;
nodes = (
"190 0 LINE",
"190 694 LINE",
"107 694 LINE",
"107 0 LINE"
);
}
);
width = 297;
},
{
anchors = (
{
name = bottom;
position = "{164, 0}";
},
{
name = ogonek;
position = "{212, 10}";
},
{
name = top;
position = "{164, 694}";
},
{
name = topleft;
position = "{33, 694}";
}
);
layerId = "51C2DFEF-3776-4D13-9284-96485B799B57";
paths = (
{
closed = 1;
nodes = (
"252 0 LINE",
"252 694 LINE",
"76 694 LINE",
"76 0 LINE"
);
}
);
width = 328;
},
{
anchors = (
{
name = bottom;
position = "{139, 0}";
},
{
name = ogonek;
position = "{147, 10}";
},
{
name = top;
position = "{139, 694}";
},
{
name = topleft;
position = "{12, 694}";
}
);
layerId = "0B2E441B-685E-400D-9B9B-E078DEED62EF";
paths = (
{
closed = 1;
nodes = (
"149 0 LINE",
"149 694 LINE",
"128 694 LINE",
"128 0 LINE"
);
}
);
width = 277;
}
);
note = I;
unicode = 0049;
},
{
glyphname = J;
lastChange = "2017-10-28 15:48:43 +0000";
layers = (
{
anchors = (
{
name = bottom;
position = "{235, 0}";
},
{
name = top;
position = "{310, 694}";
}
);
layerId = "F333AEC5-BB61-4D5E-9EDD-6124322D28F2";
paths = (
{
closed = 1;
nodes = (
"286 -10 OFFCURVE",
"353 65 OFFCURVE",
"353 200 CURVE SMOOTH",
"353 694 LINE",
"270 694 LINE",
"270 191 LINE SMOOTH",
"270 104 OFFCURVE",
"239 63 OFFCURVE",
"169 63 CURVE SMOOTH",
"136 63 OFFCURVE",
"99 72 OFFCURVE",
"68 87 CURVE",
"44 21 LINE",
"79 2 OFFCURVE",
"121 -10 OFFCURVE",
"168 -10 CURVE SMOOTH"
);
}
);
width = 453;
},
{
anchors = (
{
name = bottom;
position = "{260, 0}";
},
{
name = top;
position = "{340, 694}";
}
);
layerId = "51C2DFEF-3776-4D13-9284-96485B799B57";
paths = (
{
closed = 1;
nodes = (
"321 -10 OFFCURVE",
"428 91 OFFCURVE",
"428 243 CURVE SMOOTH",
"428 694 LINE",
"255 694 LINE",
"255 233 LINE SMOOTH",
"255 172 OFFCURVE",
"222 140 OFFCURVE",
"159 140 CURVE SMOOTH",
"128 140 OFFCURVE",
"89 148 OFFCURVE",
"54 162 CURVE",
"16 22 LINE",
"64 1 OFFCURVE",
"114 -10 OFFCURVE",
"165 -10 CURVE SMOOTH"
);
}
);
width = 492;
},
{
anchors = (
{
name = bottom;
position = "{294, 0}";
},
{
name = top;
position = "{319, 694}";
}
);
layerId = "0B2E441B-685E-400D-9B9B-E078DEED62EF";
paths = (
{
closed = 1;
nodes = (
"263 -10 OFFCURVE",
"330 53 OFFCURVE",
"330 158 CURVE SMOOTH",
"330 694 LINE",
"309 694 LINE",
"309 154 LINE SMOOTH",
"309 64 OFFCURVE",
"258 9 OFFCURVE",
"181 9 CURVE SMOOTH",
"147 9 OFFCURVE",
"108 20 OFFCURVE",
"69 40 CURVE",
"63 23 LINE",
"107 0 OFFCURVE",
"144 -10 OFFCURVE",
"178 -10 CURVE SMOOTH"
);
}
);
width = 453;
}
);
note = J;
unicode = 004A;
},
{
glyphname = K;
lastChange = "2017-10-28 15:29:59 +0000";
layers = (
{
anchors = (
{
name = bottom;
position = "{321, 0}";
},
{
name = top;
position = "{321, 694}";
}
);
layerId = "F333AEC5-BB61-4D5E-9EDD-6124322D28F2";
paths = (
{
closed = 1;
nodes = (
"618 0 LINE",
"274 375 LINE",
"273 353 LINE",
"599 694 LINE",
"498 694 LINE",
"181 356 LINE",
"504 0 LINE"
);
},
{
closed = 1;
nodes = (
"190 0 LINE",
"190 694 LINE",
"107 694 LINE",
"107 0 LINE"
);
}
);
width = 659;
},
{
anchors = (
{
name = bottom;
position = "{340, 0}";
},
{
name = top;
position = "{340, 694}";
}
);
layerId = "51C2DFEF-3776-4D13-9284-96485B799B57";
paths = (
{
closed = 1;
nodes = (
"711 0 LINE",
"434 375 LINE",
"442 353 LINE",
"704 694 LINE",
"500 694 LINE",
"244 356 LINE",
"503 0 LINE"
);
},
{
closed = 1;
nodes = (
"254 0 LINE",
"254 694 LINE",
"76 694 LINE",
"76 0 LINE"
);
}
);
width = 723;
},
{
anchors = (
{
name = bottom;
position = "{297, 0}";
},
{
name = top;
position = "{297, 694}";
}
);
layerId = "0B2E441B-685E-400D-9B9B-E078DEED62EF";
paths = (
{
closed = 1;
nodes = (
"532 0 LINE",
"159 362 LINE",
"159 352 LINE",
"523 694 LINE",
"496 694 LINE",
"140 356 LINE",
"503 0 LINE"
);
},
{
closed = 1;
nodes = (
"148 0 LINE",
"148 694 LINE",
"128 694 LINE",
"128 0 LINE"
);
}
);
width = 595;
}
);
note = K;
unicode = 004B;
},
{
glyphname = L;
lastChange = "2017-10-28 15:29:57 +0000";
layers = (
{
anchors = (
{
name = "#periodcentered";
position = "{416, 352}";
},
{
name = bottom;
position = "{305, 0}";
},
{
name = center;
position = "{175, 347}";
},
{
name = top;
position = "{150, 694}";
},
{
name = topright;
position = "{314, 482}";
}
);
layerId = "F333AEC5-BB61-4D5E-9EDD-6124322D28F2";
paths = (
{
closed = 1;
nodes = (
"190 0 LINE",
"190 694 LINE",
"107 694 LINE",
"107 0 LINE"
);
},
{
closed = 1;
nodes = (
"501 0 LINE",
"501 74 LINE",
"139 74 LINE",
"139 0 LINE"
);
}
);
width = 547;
},
{
anchors = (
{
name = "#periodcentered";
position = "{440, 352}";
},
{
name = bottom;
position = "{274, 0}";
},
{
name = center;
position = "{174, 377}";
},
{
name = top;
position = "{161, 694}";
},
{
name = topright;
position = "{353, 490}";
}
);
layerId = "51C2DFEF-3776-4D13-9284-96485B799B57";
paths = (
{
closed = 1;
nodes = (
"249 0 LINE",
"249 694 LINE",
"76 694 LINE",
"76 0 LINE"
);
},
{
closed = 1;
nodes = (
"530 0 LINE",
"530 153 LINE",
"168 153 LINE",
"168 0 LINE"
);
}
);
width = 552;
},
{
anchors = (
{
name = "#periodcentered";
position = "{394, 352}";
},
{
name = bottom;
position = "{306, 0}";
},
{
name = center;
position = "{180, 367}";
},
{
name = top;
position = "{140, 694}";
},
{
name = topright;
position = "{225, 480}";
}
);
layerId = "0B2E441B-685E-400D-9B9B-E078DEED62EF";
paths = (
{
closed = 1;
nodes = (
"149 0 LINE",
"149 694 LINE",
"128 694 LINE",
"128 0 LINE"
);
},
{
closed = 1;
nodes = (
"477 0 LINE",
"477 19 LINE",
"140 19 LINE",
"140 0 LINE"
);
}
);
width = 539;
}
);
note = L;
unicode = 004C;
},
{
glyphname = M;
lastChange = "2017-10-28 15:29:56 +0000";
layers = (
{
anchors = (
{
name = bottom;
position = "{445, 0}";
},
{
name = top;
position = "{445, 694}";
}
);
layerId = "F333AEC5-BB61-4D5E-9EDD-6124322D28F2";
paths = (
{
closed = 1;
nodes = (
"185 0 LINE",
"185 581 LINE",
"169 581 LINE",
"420 108 LINE",
"478 108 LINE",
"720 581 LINE",
"704 581 LINE",
"704 0 LINE",
"782 0 LINE",
"782 694 LINE",
"700 694 LINE",
"445 198 LINE",
"458 198 LINE",
"195 694 LINE",
"107 694 LINE",
"107 0 LINE"
);
}
);
width = 889;
},
{
anchors = (
{
name = bottom;
position = "{459, 0}";
},
{
name = top;
position = "{459, 694}";
}
);
layerId = "51C2DFEF-3776-4D13-9284-96485B799B57";
paths = (
{
closed = 1;
nodes = (
"239 0 LINE",
"239 444 LINE",
"215 429 LINE",
"415 93 LINE",
"505 93 LINE",
"700 434 LINE",
"679 444 LINE",
"679 0 LINE",
"842 0 LINE",
"842 694 LINE",
"668 694 LINE",
"440 289 LINE",
"490 289 LINE",
"259 694 LINE",
"76 694 LINE",
"76 0 LINE"
);
}
);
width = 918;
},
{
anchors = (
{
name = bottom;
position = "{466, 0}";
},
{
name = top;
position = "{466, 694}";
}
);
layerId = "0B2E441B-685E-400D-9B9B-E078DEED62EF";
paths = (
{
closed = 1;
nodes = (
"149 0 LINE",
"149 677 LINE",
"142 677 LINE",
"445 108 LINE",
"465 108 LINE",
"759 676 LINE",
"752 676 LINE",
"752 0 LINE",
"773 0 LINE",
"773 694 LINE",
"746 694 LINE",
"449 118 LINE",
"463 118 LINE",
"157 694 LINE",
"128 694 LINE",
"128 0 LINE"
);
}
);
width = 901;
}
);
note = M;
unicode = 004D;
},
{
glyphname = N;
lastChange = "2017-10-28 15:29:57 +0000";
layers = (
{
anchors = (
{
name = "#hook";
position = "{634, 0}";
},
{
name = bottom;
position = "{390, 0}";
},
{
name = top;
position = "{390, 694}";
}
);
layerId = "F333AEC5-BB61-4D5E-9EDD-6124322D28F2";
paths = (
{
closed = 1;
nodes = (
"185 0 LINE",
"185 605 LINE",
"168 605 LINE",
"578 0 LINE",
"673 0 LINE",
"673 694 LINE",
"595 694 LINE",
"595 87 LINE",
"613 87 LINE",
"202 694 LINE",
"107 694 LINE",
"107 0 LINE"
);
}
);
width = 780;
},
{
anchors = (
{
name = "#hook";
position = "{627, 0}";
},
{
name = bottom;
position = "{399, 0}";
},
{
name = top;
position = "{399, 694}";
}
);
layerId = "51C2DFEF-3776-4D13-9284-96485B799B57";
paths = (
{
closed = 1;
nodes = (
"239 0 LINE",
"239 470 LINE",
"211 460 LINE",
"533 0 LINE",
"722 0 LINE",
"722 694 LINE",
"559 694 LINE",
"559 216 LINE",
"585 226 LINE",
"265 694 LINE",
"76 694 LINE",
"76 0 LINE"
);
}
);
width = 798;
},
{
anchors = (
{
name = "#hook";
position = "{612, 0}";
},
{
name = bottom;
position = "{386, 0}";
},
{
name = top;
position = "{386, 694}";
}
);
layerId = "0B2E441B-685E-400D-9B9B-E078DEED62EF";
paths = (
{
closed = 1;
nodes = (
"148 0 LINE",
"148 674 LINE",
"146 674 LINE",
"597 0 LINE",
"624 0 LINE",
"624 694 LINE",
"604 694 LINE",
"604 20 LINE",
"608 20 LINE",
"157 694 LINE",
"128 694 LINE",
"128 0 LINE"
);
}
);
width = 752;
}
);
note = N;
unicode = 004E;
},
{
glyphname = O;
lastChange = "2017-10-27 16:17:47 +0000";
layers = (
{
anchors = (
{
name = "#Qtail";
position = "{555, 65}";
},
{
name = "#exit";
position = "{672, 291}";
},
{
name = bottom;
position = "{391, 0}";
},
{
name = center;
position = "{391, 347}";
},
{
name = ogonek;
position = "{503, 10}";
},
{
name = top;
position = "{391, 694}";
},
{
name = topleft;
position = "{20, 694}";
},
{
name = topright;
position = "{582, 694}";
}
);
associatedMasterId = "F333AEC5-BB61-4D5E-9EDD-6124322D28F2";
layerId = "EC4D3195-D96F-470D-9C91-AC6DC99AADFD";
name = "Aug 31 17, 20:13";
paths = (
{
closed = 1;
nodes = (
"578 -7 OFFCURVE",
"717 141 OFFCURVE",
"717 356 CURVE SMOOTH",
"717 566 OFFCURVE",
"586 703 OFFCURVE",
"393 703 CURVE SMOOTH",
"194 703 OFFCURVE",
"65 558 OFFCURVE",
"65 344 CURVE SMOOTH",
"65 135 OFFCURVE",
"192 -7 OFFCURVE",
"383 -7 CURVE SMOOTH"
);
},
{
closed = 1;
nodes = (
"249 65 OFFCURVE",
"150 186 OFFCURVE",
"150 356 CURVE SMOOTH",
"150 524 OFFCURVE",
"236 630 OFFCURVE",
"383 630 CURVE SMOOTH",
"526 630 OFFCURVE",
"632 513 OFFCURVE",
"632 344 CURVE SMOOTH",
"632 178 OFFCURVE",
"533 65 OFFCURVE",
"393 65 CURVE SMOOTH"
);
}
);
width = 782;
},
{
anchors = (
{
name = "#Qtail";
position = "{559, 65}";
},
{
name = "#exit";
position = "{676, 291}";
},
{
name = bottom;
position = "{395, 0}";
},
{
name = center;
position = "{395, 347}";
},
{
name = ogonek;
position = "{507, 10}";
},
{
name = top;
position = "{395, 694}";
},
{
name = topleft;
position = "{24, 694}";
},
{
name = topright;
position = "{586, 694}";
}
);
layerId = "F333AEC5-BB61-4D5E-9EDD-6124322D28F2";
paths = (
{
closed = 1;
nodes = (
"587 -7 OFFCURVE",
"721 138 OFFCURVE",
"721 356 CURVE SMOOTH",
"721 564 OFFCURVE",
"591 703 OFFCURVE",
"397 703 CURVE SMOOTH",
"200 703 OFFCURVE",
"69 559 OFFCURVE",
"69 344 CURVE SMOOTH",
"69 133 OFFCURVE",
"196 -7 OFFCURVE",
"387 -7 CURVE SMOOTH"
);
},
{
closed = 1;
nodes = (
"251 65 OFFCURVE",
"154 181 OFFCURVE",
"154 356 CURVE SMOOTH",
"154 520 OFFCURVE",
"247 630 OFFCURVE",
"387 630 CURVE SMOOTH",
"536 630 OFFCURVE",
"636 516 OFFCURVE",
"636 344 CURVE SMOOTH",
"636 177 OFFCURVE",
"540 65 OFFCURVE",
"397 65 CURVE SMOOTH"
);
}
);
width = 790;
},
{
anchors = (
{
name = "#Qtail";
position = "{578, 90}";
},
{
name = "#exit";
position = "{641, 284}";
},
{
name = bottom;
position = "{398, 0}";
},
{
name = center;
position = "{421, 347}";
},
{
name = ogonek;
position = "{480, 10}";
},
{
name = top;
position = "{398, 694}";
},
{
name = topleft;
position = "{90, 694}";
},
{
name = topright;
position = "{609, 694}";
}
);
layerId = "51C2DFEF-3776-4D13-9284-96485B799B57";
paths = (
{
closed = 1;
nodes = (
"613 -10 OFFCURVE",
"759 134 OFFCURVE",
"759 351 CURVE SMOOTH",
"759 563 OFFCURVE",
"617 704 OFFCURVE",
"401 704 CURVE SMOOTH",
"182 704 OFFCURVE",
"36 559 OFFCURVE",
"36 341 CURVE SMOOTH",
"36 130 OFFCURVE",
"178 -10 OFFCURVE",
"391 -10 CURVE SMOOTH"
);
},
{
closed = 1;
nodes = (
"290 140 OFFCURVE",
"216 224 OFFCURVE",
"216 351 CURVE SMOOTH",
"216 473 OFFCURVE",
"285 554 OFFCURVE",
"391 554 CURVE SMOOTH",
"504 554 OFFCURVE",
"579 469 OFFCURVE",
"579 341 CURVE SMOOTH",
"579 220 OFFCURVE",
"509 140 OFFCURVE",
"401 140 CURVE SMOOTH"
);
}
);
width = 795;
},
{
anchors = (
{
name = "#Qtail";
position = "{540, 45}";
},
{
name = "#exit";
position = "{672, 285}";
},
{
name = bottom;
position = "{391, 0}";
},
{
name = center;
position = "{392, 345}";
},
{
name = ogonek;
position = "{491, 10}";
},
{
name = top;
position = "{391, 694}";
},
{
name = topleft;
position = "{20, 694}";
},
{
name = topright;
position = "{587, 694}";
}
);
layerId = "0B2E441B-685E-400D-9B9B-E078DEED62EF";
paths = (
{
closed = 1;
nodes = (
"568 -10 OFFCURVE",
"688 133 OFFCURVE",
"688 346 CURVE SMOOTH",
"688 558 OFFCURVE",
"570 699 OFFCURVE",
"392 699 CURVE SMOOTH",
"212 699 OFFCURVE",
"92 555 OFFCURVE",
"92 343 CURVE SMOOTH",
"92 131 OFFCURVE",
"211 -10 OFFCURVE",
"389 -10 CURVE SMOOTH"
);
},
{
closed = 1;
nodes = (
"225 9 OFFCURVE",
"114 145 OFFCURVE",
"114 346 CURVE SMOOTH",
"114 547 OFFCURVE",
"224 680 OFFCURVE",
"389 680 CURVE SMOOTH",
"555 680 OFFCURVE",
"666 544 OFFCURVE",
"666 343 CURVE SMOOTH",
"666 143 OFFCURVE",
"557 9 OFFCURVE",
"391 9 CURVE SMOOTH"
);
}
);
width = 780;
}
);
note = O;
unicode = 004F;
},
{
glyphname = R;
lastChange = "2017-10-28 15:49:11 +0000";
layers = (
{
anchors = (
{
name = bottom;
position = "{324, 0}";
},
{
name = top;
position = "{324, 694}";
}
);
layerId = "F333AEC5-BB61-4D5E-9EDD-6124322D28F2";
paths = (
{
closed = 1;
nodes = (
"190 0 LINE",
"190 694 LINE",
"107 694 LINE",
"107 0 LINE"
);
},
{
closed = 1;
nodes = (
"327 281 LINE SMOOTH",
"472 281 OFFCURVE",
"569 367 OFFCURVE",
"569 497 CURVE SMOOTH",
"569 617 OFFCURVE",
"478 694 OFFCURVE",
"337 694 CURVE SMOOTH",
"160 694 LINE",
"160 622 LINE",
"327 622 LINE SMOOTH",
"426 622 OFFCURVE",
"484 572 OFFCURVE",
"484 483 CURVE SMOOTH",
"484 398 OFFCURVE",
"432 351 OFFCURVE",
"337 351 CURVE SMOOTH",
"160 351 LINE",
"160 281 LINE"
);
},
{
closed = 1;
nodes = (
"609 0 LINE",
"417 328 LINE",
"322 328 LINE",
"510 0 LINE"
);
}
);
width = 657;
},
{
anchors = (
{
name = bottom;
position = "{335, 0}";
},
{
name = top;
position = "{345, 694}";
}
);
layerId = "51C2DFEF-3776-4D13-9284-96485B799B57";
paths = (
{
closed = 1;
nodes = (
"249 0 LINE",
"249 694 LINE",
"76 694 LINE",
"76 0 LINE"
);
},
{
closed = 1;
nodes = (
"340 214 LINE SMOOTH",
"519 214 OFFCURVE",
"631 308 OFFCURVE",
"631 458 CURVE SMOOTH",
"631 604 OFFCURVE",
"522 694 OFFCURVE",
"346 694 CURVE SMOOTH",
"197 694 LINE",
"197 543 LINE",
"340 543 LINE SMOOTH",
"411 543 OFFCURVE",
"451 509 OFFCURVE",
"451 449 CURVE SMOOTH",
"451 392 OFFCURVE",
"416 364 OFFCURVE",
"346 364 CURVE SMOOTH",
"197 364 LINE",
"197 214 LINE"
);
},
{
closed = 1;
nodes = (
"680 0 LINE",
"516 281 LINE",
"335 281 LINE",
"487 0 LINE"
);
}
);
width = 694;
},
{
anchors = (
{
name = bottom;
position = "{331, 0}";
},
{
name = top;
position = "{301, 694}";
}
);
layerId = "0B2E441B-685E-400D-9B9B-E078DEED62EF";
paths = (
{
closed = 1;
nodes = (
"149 0 LINE",
"149 694 LINE",
"128 694 LINE",
"128 0 LINE"
);
},
{
closed = 1;
nodes = (
"309 303 LINE SMOOTH",
"464 303 OFFCURVE",
"552 375 OFFCURVE",
"552 502 CURVE SMOOTH",
"552 625 OFFCURVE",
"466 694 OFFCURVE",
"314 694 CURVE SMOOTH",
"139 694 LINE",
"139 676 LINE",
"309 676 LINE SMOOTH",
"453 676 OFFCURVE",
"530 614 OFFCURVE",
"530 499 CURVE SMOOTH",
"530 385 OFFCURVE",
"453 321 OFFCURVE",
"316 321 CURVE SMOOTH",
"139 321 LINE",
"139 303 LINE"
);
},
{
closed = 1;
nodes = (
"585 0 LINE",
"396 317 LINE",
"374 317 LINE",
"559 0 LINE"
);
}
);
width = 657;
}
);
note = R;
unicode = 0052;
},
{
glyphname = S;
lastChange = "2017-10-28 15:37:22 +0000";
layers = (
{
anchors = (
{
name = bottom;
position = "{301, 0}";
},
{
name = top;
position = "{301, 694}";
}
);
layerId = "F333AEC5-BB61-4D5E-9EDD-6124322D28F2";
paths = (
{
closed = 1;
nodes = (
"445 -10 OFFCURVE",
"539 67 OFFCURVE",
"539 196 CURVE SMOOTH",
"539 452 OFFCURVE",
"159 335 OFFCURVE",
"159 514 CURVE SMOOTH",
"159 587 OFFCURVE",
"222 631 OFFCURVE",
"327 631 CURVE SMOOTH",
"381 631 OFFCURVE",
"443 619 OFFCURVE",
"491 600 CURVE",
"515 665 LINE",
"459 691 OFFCURVE",
"402 704 OFFCURVE",
"338 704 CURVE SMOOTH",
"176 704 OFFCURVE",
"74 626 OFFCURVE",
"74 501 CURVE SMOOTH",
"74 258 OFFCURVE",
"454 373 OFFCURVE",
"454 183 CURVE SMOOTH",
"454 107 OFFCURVE",
"395 63 OFFCURVE",
"292 63 CURVE SMOOTH",
"232 63 OFFCURVE",
"162 78 OFFCURVE",
"85 109 CURVE",
"61 40 LINE",
"134 8 OFFCURVE",
"215 -10 OFFCURVE",
"289 -10 CURVE SMOOTH"
);
}
);
width = 601;
},
{
anchors = (
{
name = bottom;
position = "{304, 0}";
},
{
name = top;
position = "{297, 694}";
}
);
layerId = "51C2DFEF-3776-4D13-9284-96485B799B57";
paths = (
{
closed = 1;
nodes = (
"468 -10 OFFCURVE",
"577 77 OFFCURVE",
"577 217 CURVE SMOOTH",
"577 470 OFFCURVE",
"225 399 OFFCURVE",
"225 498 CURVE SMOOTH",
"225 533 OFFCURVE",
"267 552 OFFCURVE",
"344 552 CURVE SMOOTH",
"400 552 OFFCURVE",
"455 543 OFFCURVE",
"514 523 CURVE",
"551 666 LINE",
"492 691 OFFCURVE",
"419 704 OFFCURVE",
"346 704 CURVE SMOOTH",
"162 704 OFFCURVE",
"45 615 OFFCURVE",
"45 475 CURVE SMOOTH",
"45 232 OFFCURVE",
"395 305 OFFCURVE",
"395 194 CURVE SMOOTH",
"395 160 OFFCURVE",
"361 142 OFFCURVE",
"296 142 CURVE SMOOTH",
"233 142 OFFCURVE",
"150 159 OFFCURVE",
"77 186 CURVE",
"37 40 LINE",
"122 8 OFFCURVE",
"213 -10 OFFCURVE",
"292 -10 CURVE SMOOTH"
);
}
);
width = 610;
},
{
anchors = (
{
name = bottom;
position = "{297, 0}";
},
{
name = top;
position = "{302, 694}";
}
);
layerId = "0B2E441B-685E-400D-9B9B-E078DEED62EF";
paths = (
{
closed = 1;
nodes = (
"440 -10 OFFCURVE",
"530 61 OFFCURVE",
"530 172 CURVE SMOOTH",
"530 410 OFFCURVE",
"111 303 OFFCURVE",
"111 526 CURVE SMOOTH",
"111 622 OFFCURVE",
"189 683 OFFCURVE",
"312 683 CURVE SMOOTH",
"367 683 OFFCURVE",
"427 670 OFFCURVE",
"491 645 CURVE",
"498 663 LINE",
"436 689 OFFCURVE",
"376 702 OFFCURVE",
"317 702 CURVE SMOOTH",
"179 702 OFFCURVE",
"89 631 OFFCURVE",
"89 522 CURVE SMOOTH",
"89 286 OFFCURVE",
"508 388 OFFCURVE",
"508 167 CURVE SMOOTH",
"508 70 OFFCURVE",
"429 9 OFFCURVE",
"302 9 CURVE SMOOTH",
"235 9 OFFCURVE",
"160 27 OFFCURVE",
"88 59 CURVE",
"81 41 LINE",
"150 8 OFFCURVE",
"227 -10 OFFCURVE",
"299 -10 CURVE SMOOTH"
);
}
);
width = 609;
}
);
note = S;
unicode = 0053;
},
{
glyphname = Germandbls;
lastChange = "2017-10-28 14:47:02 +0000";
layers = (
{
layerId = "F333AEC5-BB61-4D5E-9EDD-6124322D28F2";
paths = (
{
closed = 1;
nodes = (
"583 -10 OFFCURVE",
"665 66 OFFCURVE",
"665 180 CURVE SMOOTH",
"665 281 OFFCURVE",
"601 361 OFFCURVE",
"489 387 CURVE",
"615 583 LINE",
"582 657 OFFCURVE",
"486 704 OFFCURVE",
"369 704 CURVE SMOOTH",
"204 704 OFFCURVE",
"96 610 OFFCURVE",
"96 468 CURVE SMOOTH",
"96 0 LINE",
"179 0 LINE",
"179 468 LINE SMOOTH",
"179 566 OFFCURVE",
"249 631 OFFCURVE",
"364 631 CURVE SMOOTH",
"432 631 OFFCURVE",
"496 608 OFFCURVE",
"520 565 CURVE",
"372 343 LINE",
"506 322 OFFCURVE",
"580 262 OFFCURVE",
"580 175 CURVE SMOOTH",
"580 106 OFFCURVE",
"534 62 OFFCURVE",
"459 62 CURVE SMOOTH",
"418 62 OFFCURVE",
"362 75 OFFCURVE",
"318 95 CURVE",
"294 28 LINE",
"351 3 OFFCURVE",
"408 -10 OFFCURVE",
"459 -10 CURVE SMOOTH"
);
}
);
width = 724;
},
{
layerId = "51C2DFEF-3776-4D13-9284-96485B799B57";
paths = (
{
closed = 1;
nodes = (
"614 -10 OFFCURVE",
"721 80 OFFCURVE",
"721 214 CURVE SMOOTH",
"721 306 OFFCURVE",
"670 369 OFFCURVE",
"573 396 CURVE",
"676 550 LINE",
"636 642 OFFCURVE",
"516 704 OFFCURVE",
"374 704 CURVE SMOOTH",
"186 704 OFFCURVE",
"62 596 OFFCURVE",
"62 434 CURVE SMOOTH",
"62 0 LINE",
"238 0 LINE",
"238 434 LINE SMOOTH",
"238 506 OFFCURVE",
"290 554 OFFCURVE",
"372 554 CURVE SMOOTH",
"420 554 OFFCURVE",
"464 537 OFFCURVE",
"490 509 CURVE",
"366 314 LINE",
"475 295 OFFCURVE",
"541 253 OFFCURVE",
"541 201 CURVE SMOOTH",
"541 163 OFFCURVE",
"505 138 OFFCURVE",
"450 138 CURVE SMOOTH",
"415 138 OFFCURVE",
"370 148 OFFCURVE",
"328 164 CURVE",
"296 21 LINE",
"349 0 OFFCURVE",
"400 -10 OFFCURVE",
"453 -10 CURVE SMOOTH"
);
}
);
width = 749;
},
{
layerId = "0B2E441B-685E-400D-9B9B-E078DEED62EF";
paths = (
{
closed = 1;
nodes = (
"560 -10 OFFCURVE",
"638 58 OFFCURVE",
"638 168 CURVE SMOOTH",
"638 275 OFFCURVE",
"563 349 OFFCURVE",
"433 373 CURVE",
"593 601 LINE",
"572 662 OFFCURVE",
"483 704 OFFCURVE",
"374 704 CURVE SMOOTH",
"220 704 OFFCURVE",
"118 616 OFFCURVE",
"118 484 CURVE SMOOTH",
"118 0 LINE",
"139 0 LINE",
"139 484 LINE SMOOTH",
"139 605 OFFCURVE",
"232 685 OFFCURVE",
"372 685 CURVE SMOOTH",
"468 685 OFFCURVE",
"550 650 OFFCURVE",
"570 601 CURVE",
"403 361 LINE",
"540 338 OFFCURVE",
"617 268 OFFCURVE",
"617 166 CURVE SMOOTH",
"617 69 OFFCURVE",
"548 8 OFFCURVE",
"443 8 CURVE SMOOTH",
"399 8 OFFCURVE",
"350 19 OFFCURVE",
"306 37 CURVE",
"299 20 LINE",
"340 1 OFFCURVE",
"389 -10 OFFCURVE",
"438 -10 CURVE SMOOTH"
);
}
);
width = 718;
}
);
unicode = 1E9E;
},
{
glyphname = Schwa;
lastChange = "2017-10-28 15:29:57 +0000";
layers = (
{
anchors = (
{
name = bottom;
position = "{373, 0}";
},
{
name = top;
position = "{373, 694}";
}
);
layerId = "F333AEC5-BB61-4D5E-9EDD-6124322D28F2";
paths = (
{
closed = 1;
nodes = (
"239 700 OFFCURVE",
"158 679 OFFCURVE",
"88 639 CURVE",
"112 580 LINE",
"175 611 OFFCURVE",
"243 627 OFFCURVE",
"312 627 CURVE SMOOTH",
"490 627 OFFCURVE",
"598 521 OFFCURVE",
"598 329 CURVE SMOOTH",
"598 158 OFFCURVE",
"513 63 OFFCURVE",
"366 63 CURVE SMOOTH",
"226 63 OFFCURVE",
"144 148 OFFCURVE",
"144 300 CURVE",
"619 300 LINE",
"619 368 LINE",
"71 368 LINE",
"69 345 OFFCURVE",
"67 312 OFFCURVE",
"67 291 CURVE SMOOTH",
"67 111 OFFCURVE",
"183 -10 OFFCURVE",
"359 -10 CURVE SMOOTH",
"550 -10 OFFCURVE",
"683 132 OFFCURVE",
"683 347 CURVE SMOOTH",
"683 566 OFFCURVE",
"545 700 OFFCURVE",
"326 700 CURVE SMOOTH"
);
}
);
userData = {
RMXScaler = {
height = 143;
width = 150;
};
};
width = 752;
},
{
anchors = (
{
name = bottom;
position = "{375, 0}";
},
{
name = top;
position = "{375, 694}";
}
);
layerId = "51C2DFEF-3776-4D13-9284-96485B799B57";
paths = (
{
closed = 1;
nodes = (
"226 704 OFFCURVE",
"138 684 OFFCURVE",
"58 647 CURVE",
"99 517 LINE",
"159 541 OFFCURVE",
"224 554 OFFCURVE",
"287 554 CURVE SMOOTH",
"443 554 OFFCURVE",
"522 483 OFFCURVE",
"522 315 CURVE SMOOTH",
"522 192 OFFCURVE",
"468 140 OFFCURVE",
"362 140 CURVE SMOOTH",
"266 140 OFFCURVE",
"210 180 OFFCURVE",
"210 272 CURVE",
"551 272 LINE",
"551 414 LINE",
"52 414 LINE",
"47 370 OFFCURVE",
"44 324 OFFCURVE",
"44 280 CURVE SMOOTH",
"44 105 OFFCURVE",
"162 -10 OFFCURVE",
"349 -10 CURVE SMOOTH",
"559 -10 OFFCURVE",
"702 133 OFFCURVE",
"702 350 CURVE SMOOTH",
"702 571 OFFCURVE",
"555 704 OFFCURVE",
"316 704 CURVE SMOOTH"
);
}
);
userData = {
RMXScaler = {
height = 142;
width = 148;
};
};
width = 739;
},
{
anchors = (
{
name = bottom;
position = "{370, 0}";
},
{
name = top;
position = "{370, 694}";
}
);
layerId = "0B2E441B-685E-400D-9B9B-E078DEED62EF";
paths = (
{
closed = 1;
nodes = (
"248 704 OFFCURVE",
"174 681 OFFCURVE",
"105 632 CURVE",
"114 619 LINE",
"186 667 OFFCURVE",
"253 685 OFFCURVE",
"327 685 CURVE SMOOTH",
"522 685 OFFCURVE",
"643 558 OFFCURVE",
"643 342 CURVE SMOOTH",
"643 140 OFFCURVE",
"538 9 OFFCURVE",
"367 9 CURVE SMOOTH",
"203 9 OFFCURVE",
"106 130 OFFCURVE",
"106 321 CURVE",
"661 321 LINE",
"661 340 LINE",
"84 340 LINE",
"83 332 OFFCURVE",
"83 328 OFFCURVE",
"83 318 CURVE SMOOTH",
"83 123 OFFCURVE",
"192 -10 OFFCURVE",
"365 -10 CURVE SMOOTH",
"541 -10 OFFCURVE",
"666 130 OFFCURVE",
"666 342 CURVE SMOOTH",
"666 562 OFFCURVE",
"533 704 OFFCURVE",
"329 704 CURVE SMOOTH"
);
}
);
userData = {
RMXScaler = {
height = 145;
width = 150;
};
};
width = 757;
}
);
unicode = 018F;
userData = {
RMXScaler = {
source = e;
};
};
},
{
glyphname = T;
lastChange = "2017-10-28 15:29:58 +0000";
layers = (
{
anchors = (
{
name = bottom;
position = "{318, 0}";
},
{
name = center;
position = "{318, 347}";
},
{
name = top;
position = "{318, 694}";
}
);
layerId = "F333AEC5-BB61-4D5E-9EDD-6124322D28F2";
paths = (
{
closed = 1;
nodes = (
"359 0 LINE",
"359 660 LINE",
"276 660 LINE",
"276 0 LINE"
);
},
{
closed = 1;
nodes = (
"591 622 LINE",
"591 694 LINE",
"45 694 LINE",
"45 622 LINE"
);
}
);
width = 636;
},
{
anchors = (
{
name = bottom;
position = "{325, 0}";
},
{
name = center;
position = "{325, 347}";
},
{
name = top;
position = "{325, 694}";
}
);
layerId = "51C2DFEF-3776-4D13-9284-96485B799B57";
paths = (
{
closed = 1;
nodes = (
"410 0 LINE",
"410 660 LINE",
"238 660 LINE",
"238 0 LINE"
);
},
{
closed = 1;
nodes = (
"628 542 LINE",
"628 694 LINE",
"22 694 LINE",
"22 542 LINE"
);
}
);
width = 650;
},
{
anchors = (
{
name = bottom;
position = "{321, 0}";
},
{
name = center;
position = "{325, 347}";
},
{
name = top;
position = "{325, 694}";
}
);
layerId = "0B2E441B-685E-400D-9B9B-E078DEED62EF";
paths = (
{
closed = 1;
nodes = (
"335 0 LINE",
"335 694 LINE",
"314 694 LINE",
"314 0 LINE"
);
},
{
closed = 1;
nodes = (
"587 676 LINE",
"587 694 LINE",
"61 694 LINE",
"61 676 LINE"
);
}
);
width = 648;
}
);
note = T;
unicode = 0054;
},
{
glyphname = U;
lastChange = "2017-10-28 15:37:35 +0000";
layers = (
{
anchors = (
{
name = bottom;
position = "{358, 0}";
},
{
name = ogonek;
position = "{467, 10}";
},
{
name = top;
position = "{358, 694}";
},
{
name = topright;
position = "{657, 694}";
}
);
layerId = "F333AEC5-BB61-4D5E-9EDD-6124322D28F2";
paths = (
{
closed = 1;
nodes = (
"512 -10 OFFCURVE",
"622 92 OFFCURVE",
"622 246 CURVE SMOOTH",
"622 694 LINE",
"541 694 LINE",
"541 236 LINE SMOOTH",
"541 132 OFFCURVE",
"481 63 OFFCURVE",
"364 63 CURVE SMOOTH",
"251 63 OFFCURVE",
"178 128 OFFCURVE",
"178 253 CURVE SMOOTH",
"178 694 LINE",
"95 694 LINE",
"95 243 LINE SMOOTH",
"95 91 OFFCURVE",
"195 -10 OFFCURVE",
"353 -10 CURVE SMOOTH"
);
}
);
width = 717;
},
{
anchors = (
{
name = bottom;
position = "{358, 0}";
},
{
name = ogonek;
position = "{449, 10}";
},
{
name = top;
position = "{358, 694}";
},
{
name = topright;
position = "{708, 694}";
}
);
layerId = "51C2DFEF-3776-4D13-9284-96485B799B57";
paths = (
{
closed = 1;
nodes = (
"535 -10 OFFCURVE",
"653 100 OFFCURVE",
"653 267 CURVE SMOOTH",
"653 694 LINE",
"482 694 LINE",
"482 257 LINE SMOOTH",
"482 187 OFFCURVE",
"434 140 OFFCURVE",
"361 140 CURVE SMOOTH",
"285 140 OFFCURVE",
"235 191 OFFCURVE",
"235 267 CURVE SMOOTH",
"235 694 LINE",
"62 694 LINE",
"62 257 LINE SMOOTH",
"62 97 OFFCURVE",
"179 -10 OFFCURVE",
"355 -10 CURVE SMOOTH"
);
}
);
width = 715;
},
{
anchors = (
{
name = bottom;
position = "{367, 0}";
},
{
name = ogonek;
position = "{474, 10}";
},
{
name = top;
position = "{367, 694}";
},
{
name = topright;
position = "{694, 694}";
}
);
layerId = "0B2E441B-685E-400D-9B9B-E078DEED62EF";
paths = (
{
closed = 1;
nodes = (
"516 -10 OFFCURVE",
"615 97 OFFCURVE",
"615 256 CURVE SMOOTH",
"615 694 LINE",
"594 694 LINE",
"594 256 LINE SMOOTH",
"594 107 OFFCURVE",
"505 9 OFFCURVE",
"369 9 CURVE SMOOTH",
"230 9 OFFCURVE",
"138 108 OFFCURVE",
"138 256 CURVE SMOOTH",
"138 694 LINE",
"116 694 LINE",
"116 256 LINE SMOOTH",
"116 96 OFFCURVE",
"216 -10 OFFCURVE",
"366 -10 CURVE SMOOTH"
);
}
);
width = 731;
}
);
note = U;
unicode = 0055;
},
{
glyphname = V;
lastChange = "2017-10-28 15:29:56 +0000";
layers = (
{
anchors = (
{
name = bottom;
position = "{339, 0}";
},
{
name = top;
position = "{339, 694}";
}
);
layerId = "F333AEC5-BB61-4D5E-9EDD-6124322D28F2";
paths = (
{
closed = 1;
nodes = (
"379 0 LINE",
"632 694 LINE",
"548 694 LINE",
"317 29 LINE",
"367 29 LINE",
"140 694 LINE",
"45 694 LINE",
"298 0 LINE"
);
}
);
width = 677;
},
{
anchors = (
{
name = bottom;
position = "{353, 0}";
},
{
name = top;
position = "{353, 694}";
}
);
layerId = "51C2DFEF-3776-4D13-9284-96485B799B57";
paths = (
{
closed = 1;
nodes = (
"444 0 LINE",
"691 694 LINE",
"518 694 LINE",
"323 92 LINE",
"392 92 LINE",
"196 694 LINE",
"14 694 LINE",
"261 0 LINE"
);
}
);
width = 705;
},
{
anchors = (
{
name = bottom;
position = "{331, 0}";
},
{
name = top;
position = "{331, 694}";
}
);
layerId = "0B2E441B-685E-400D-9B9B-E078DEED62EF";
paths = (
{
closed = 1;
nodes = (
"337 0 LINE",
"594 694 LINE",
"573 694 LINE",
"328 30 LINE",
"337 30 LINE",
"90 694 LINE",
"67 694 LINE",
"326 0 LINE"
);
}
);
width = 661;
}
);
note = V;
unicode = 0056;
},
{
glyphname = W;
lastChange = "2017-10-28 15:29:58 +0000";
layers = (
{
anchors = (
{
name = bottom;
position = "{525, 0}";
},
{
name = top;
position = "{525, 694}";
}
);
layerId = "F333AEC5-BB61-4D5E-9EDD-6124322D28F2";
paths = (
{
closed = 1;
nodes = (
"349 0 LINE",
"551 648 LINE",
"504 648 LINE",
"710 0 LINE",
"790 0 LINE",
"1006 694 LINE",
"924 694 LINE",
"730 39 LINE",
"779 39 LINE",
"580 684 LINE",
"484 684 LINE",
"284 39 LINE",
"333 39 LINE",
"143 694 LINE",
"47 694 LINE",
"269 0 LINE"
);
}
);
width = 1053;
},
{
anchors = (
{
name = bottom;
position = "{529, 0}";
},
{
name = top;
position = "{529, 694}";
}
);
layerId = "51C2DFEF-3776-4D13-9284-96485B799B57";
paths = (
{
closed = 1;
nodes = (
"416 0 LINE",
"583 582 LINE",
"466 582 LINE",
"649 0 LINE",
"834 0 LINE",
"1043 694 LINE",
"870 694 LINE",
"713 105 LINE",
"789 105 LINE",
"610 684 LINE",
"452 684 LINE",
"293 105 LINE",
"359 105 LINE",
"195 694 LINE",
"15 694 LINE",
"231 0 LINE"
);
}
);
width = 1059;
},
{
anchors = (
{
name = bottom;
position = "{521, 0}";
},
{
name = top;
position = "{521, 694}";
}
);
layerId = "0B2E441B-685E-400D-9B9B-E078DEED62EF";
paths = (
{
closed = 1;
nodes = (
"307 0 LINE",
"529 662 LINE",
"515 662 LINE",
"734 0 LINE",
"747 0 LINE",
"973 694 LINE",
"952 694 LINE",
"737 32 LINE",
"746 32 LINE",
"530 684 LINE",
"516 684 LINE",
"297 32 LINE",
"306 32 LINE",
"91 694 LINE",
"68 694 LINE",
"295 0 LINE"
);
}
);
width = 1041;
}
);
note = W;
unicode = 0057;
},
{
glyphname = X;
lastChange = "2017-10-28 15:29:57 +0000";
layers = (
{
anchors = (
{
name = bottom;
position = "{336, 0}";
},
{
name = top;
position = "{336, 694}";
}
);
layerId = "F333AEC5-BB61-4D5E-9EDD-6124322D28F2";
paths = (
{
closed = 1;
nodes = (
"629 0 LINE",
"356 394 LINE",
"162 694 LINE",
"63 694 LINE",
"297 346 LINE",
"530 0 LINE"
);
},
{
closed = 1;
nodes = (
"137 0 LINE",
"355 333 LINE",
"603 694 LINE",
"509 694 LINE",
"308 390 LINE",
"43 0 LINE"
);
}
);
width = 671;
},
{
anchors = (
{
name = bottom;
position = "{351, 0}";
},
{
name = top;
position = "{351, 694}";
}
);
layerId = "51C2DFEF-3776-4D13-9284-96485B799B57";
paths = (
{
closed = 1;
nodes = (
"690 0 LINE",
"399 413 LINE",
"219 694 LINE",
"14 694 LINE",
"307 272 LINE",
"485 0 LINE"
);
},
{
closed = 1;
nodes = (
"209 0 LINE",
"400 296 LINE",
"682 694 LINE",
"492 694 LINE",
"297 420 LINE",
"19 0 LINE"
);
}
);
width = 702;
},
{
anchors = (
{
name = bottom;
position = "{320, 0}";
},
{
name = top;
position = "{320, 694}";
}
);
layerId = "0B2E441B-685E-400D-9B9B-E078DEED62EF";
paths = (
{
closed = 1;
nodes = (
"569 0 LINE",
"324 354 LINE",
"102 694 LINE",
"75 694 LINE",
"313 337 LINE",
"542 0 LINE"
);
},
{
closed = 1;
nodes = (
"90 0 LINE",
"321 343 LINE",
"559 694 LINE",
"535 694 LINE",
"309 358 LINE",
"66 0 LINE"
);
}
);
width = 635;
}
);
note = X;
unicode = 0058;
},
{
glyphname = Y;
lastChange = "2017-10-28 15:29:58 +0000";
layers = (
{
anchors = (
{
name = bottom;
position = "{325, 0}";
},
{
name = top;
position = "{325, 694}";
},
{
name = topleft;
position = "{47, 694}";
}
);
layerId = "F333AEC5-BB61-4D5E-9EDD-6124322D28F2";
paths = (
{
closed = 1;
nodes = (
"363 0 LINE",
"363 299 LINE",
"609 694 LINE",
"518 694 LINE",
"319 362 LINE",
"330 362 LINE",
"138 694 LINE",
"41 694 LINE",
"280 299 LINE",
"280 0 LINE"
);
}
);
width = 650;
},
{
anchors = (
{
name = bottom;
position = "{352, 0}";
},
{
name = top;
position = "{352, 694}";
},
{
name = topleft;
position = "{29, 694}";
}
);
layerId = "51C2DFEF-3776-4D13-9284-96485B799B57";
paths = (
{
closed = 1;
nodes = (
"439 0 LINE",
"439 276 LINE",
"690 694 LINE",
"506 694 LINE",
"321 374 LINE",
"393 374 LINE",
"206 694 LINE",
"9 694 LINE",
"266 274 LINE",
"266 0 LINE"
);
}
);
width = 699;
},
{
anchors = (
{
name = bottom;
position = "{305, 0}";
},
{
name = top;
position = "{305, 694}";
},
{
name = topleft;
position = "{45, 694}";
}
);
layerId = "0B2E441B-685E-400D-9B9B-E078DEED62EF";
paths = (
{
closed = 1;
nodes = (
"311 0 LINE",
"311 353 LINE",
"538 694 LINE",
"515 694 LINE",
"298 364 LINE",
"306 364 LINE",
"88 694 LINE",
"62 694 LINE",
"290 353 LINE",
"290 0 LINE"
);
}
);
width = 600;
}
);
note = Y;
unicode = 0059;
},
{
glyphname = Z;
lastChange = "2017-10-28 15:29:56 +0000";
layers = (
{
anchors = (
{
name = bottom;
position = "{332, 0}";
},
{
name = top;
position = "{332, 694}";
}
);
layerId = "F333AEC5-BB61-4D5E-9EDD-6124322D28F2";
paths = (
{
closed = 1;
nodes = (
"611 0 LINE",
"611 72 LINE",
"131 72 LINE",
"143 47 LINE",
"598 642 LINE",
"598 694 LINE",
"67 694 LINE",
"67 622 LINE",
"519 622 LINE",
"507 647 LINE",
"53 53 LINE",
"53 0 LINE"
);
}
);
width = 664;
},
{
anchors = (
{
name = bottom;
position = "{332, 0}";
},
{
name = top;
position = "{332, 694}";
}
);
layerId = "51C2DFEF-3776-4D13-9284-96485B799B57";
paths = (
{
closed = 1;
nodes = (
"624 0 LINE",
"624 152 LINE",
"178 152 LINE",
"218 94 LINE",
"620 571 LINE",
"620 694 LINE",
"51 694 LINE",
"51 542 LINE",
"477 542 LINE",
"438 599 LINE",
"36 133 LINE",
"36 0 LINE"
);
}
);
width = 662;
},
{
anchors = (
{
name = bottom;
position = "{320, 0}";
},
{
name = top;
position = "{320, 694}";
}
);
layerId = "0B2E441B-685E-400D-9B9B-E078DEED62EF";
paths = (
{
closed = 1;
nodes = (
"584 0 LINE",
"584 18 LINE",
"88 18 LINE",
"88 12 LINE",
"581 677 LINE",
"581 694 LINE",
"81 694 LINE",
"81 676 LINE",
"559 676 LINE",
"559 682 LINE",
"66 16 LINE",
"66 0 LINE"
);
}
);
width = 652;
}
);
note = Z;
unicode = 005A;
},
{
glyphname = a;
lastChange = "2017-10-28 15:37:46 +0000";
layers = (
{
anchors = (
{
name = bottom;
position = "{264, 0}";
},
{
name = ogonek;
position = "{422, 10}";
},
{
name = top;
position = "{249, 482}";
}
);
layerId = "F333AEC5-BB61-4D5E-9EDD-6124322D28F2";
paths = (
{
closed = 1;
nodes = (
"440 0 LINE",
"440 313 LINE SMOOTH",
"440 428 OFFCURVE",
"372 492 OFFCURVE",
"251 492 CURVE SMOOTH",
"186 492 OFFCURVE",
"125 474 OFFCURVE",
"60 435 CURVE",
"81 378 LINE",
"135 407 OFFCURVE",
"182 420 OFFCURVE",
"233 420 CURVE SMOOTH",
"317 420 OFFCURVE",
"360 384 OFFCURVE",
"360 313 CURVE SMOOTH",
"360 56 LINE",
"384 0 LINE"
);
},
{
closed = 1;
nodes = (
"325 -10 OFFCURVE",
"413 62 OFFCURVE",
"429 169 CURVE",
"400 183 LINE",
"384 108 OFFCURVE",
"319 60 OFFCURVE",
"235 60 CURVE SMOOTH",
"171 60 OFFCURVE",
"130 89 OFFCURVE",
"130 134 CURVE SMOOTH",
"130 196 OFFCURVE",
"205 224 OFFCURVE",
"372 224 CURVE",
"372 284 LINE",
"165 284 OFFCURVE",
"50 225 OFFCURVE",
"50 120 CURVE SMOOTH",
"50 42 OFFCURVE",
"114 -10 OFFCURVE",
"211 -10 CURVE SMOOTH"
);
}
);
width = 517;
},
{
anchors = (
{
name = bottom;
position = "{274, 0}";
},
{
name = ogonek;
position = "{446, 10}";
},
{
name = top;
position = "{264, 490}";
}
);
layerId = "51C2DFEF-3776-4D13-9284-96485B799B57";
paths = (
{
closed = 1;
nodes = (
"496 0 LINE",
"496 282 LINE SMOOTH",
"496 418 OFFCURVE",
"409 500 OFFCURVE",
"265 500 CURVE SMOOTH",
"186 500 OFFCURVE",
"102 475 OFFCURVE",
"38 433 CURVE",
"75 319 LINE",
"124 344 OFFCURVE",
"180 359 OFFCURVE",
"226 359 CURVE SMOOTH",
"288 359 OFFCURVE",
"323 331 OFFCURVE",
"323 282 CURVE SMOOTH",
"323 119 LINE",
"350 0 LINE"
);
},
{
closed = 1;
nodes = (
"290 -10 OFFCURVE",
"363 43 OFFCURVE",
"423 155 CURVE",
"370 178 LINE",
"337 140 OFFCURVE",
"296 119 OFFCURVE",
"255 119 CURVE SMOOTH",
"221 119 OFFCURVE",
"201 133 OFFCURVE",
"201 157 CURVE SMOOTH",
"201 190 OFFCURVE",
"241 201 OFFCURVE",
"358 201 CURVE",
"358 305 LINE",
"158 305 OFFCURVE",
"27 234 OFFCURVE",
"27 124 CURVE SMOOTH",
"27 44 OFFCURVE",
"94 -10 OFFCURVE",
"194 -10 CURVE SMOOTH"
);
}
);
width = 544;
},
{
anchors = (
{
name = bottom;
position = "{256, 0}";
},
{
name = ogonek;
position = "{411, 10}";
},
{
name = top;
position = "{236, 480}";
}
);
background = {
paths = (
{
closed = 1;
nodes = (
"412 0 LINE",
"412 327 LINE SMOOTH",
"412 436 OFFCURVE",
"347 486 OFFCURVE",
"238 486 CURVE SMOOTH",
"175 486 OFFCURVE",
"106 460 OFFCURVE",
"64 425 CURVE",
"73 412 LINE",
"117 446 OFFCURVE",
"179 466 OFFCURVE",
"235 466 CURVE SMOOTH",
"333 466 OFFCURVE",
"392 425 OFFCURVE",
"392 323 CURVE SMOOTH",
"392 71 LINE",
"396 0 LINE"
);
},
{
closed = 1;
nodes = (
"287 -10 OFFCURVE",
"355 20 OFFCURVE",
"400 65 CURVE",
"400 86 LINE",
"344 34 OFFCURVE",
"284 10 OFFCURVE",
"220 10 CURVE SMOOTH",
"133 10 OFFCURVE",
"80 48 OFFCURVE",
"80 112 CURVE SMOOTH",
"80 202 OFFCURVE",
"183 245 OFFCURVE",
"400 245 CURVE",
"400 266 LINE",
"180 266 OFFCURVE",
"59 211 OFFCURVE",
"59 108 CURVE SMOOTH",
"59 35 OFFCURVE",
"118 -10 OFFCURVE",
"216 -10 CURVE SMOOTH"
);
}
);
};
layerId = "0B2E441B-685E-400D-9B9B-E078DEED62EF";
paths = (
{
closed = 1;
nodes = (
"413 0 LINE",
"413 327 LINE SMOOTH",
"413 428 OFFCURVE",
"353 486 OFFCURVE",
"251 486 CURVE SMOOTH",
"185 486 OFFCURVE",
"115 462 OFFCURVE",
"69 425 CURVE",
"76 412 LINE",
"122 448 OFFCURVE",
"184 468 OFFCURVE",
"245 468 CURVE SMOOTH",
"342 468 OFFCURVE",
"392 417 OFFCURVE",
"392 323 CURVE SMOOTH",
"392 71 LINE",
"396 0 LINE"
);
},
{
closed = 1;
nodes = (
"286 -10 OFFCURVE",
"352 19 OFFCURVE",
"400 68 CURVE",
"400 86 LINE",
"345 35 OFFCURVE",
"291 8 OFFCURVE",
"220 8 CURVE SMOOTH",
"135 8 OFFCURVE",
"85 48 OFFCURVE",
"85 111 CURVE SMOOTH",
"85 202 OFFCURVE",
"187 248 OFFCURVE",
"400 248 CURVE",
"400 266 LINE",
"183 266 OFFCURVE",
"64 210 OFFCURVE",
"64 108 CURVE SMOOTH",
"64 37 OFFCURVE",
"123 -10 OFFCURVE",
"214 -10 CURVE SMOOTH"
);
}
);
width = 508;
},
{
anchors = (
{
name = bottom;
position = "{282, 0}";
},
{
name = ogonek;
position = "{428, 10}";
},
{
name = top;
position = "{282, 490}";
}
);
associatedMasterId = "51C2DFEF-3776-4D13-9284-96485B799B57";
background = {
paths = (
{
closed = 1;
nodes = (
"504 0 LINE",
"504 292 LINE SMOOTH",
"504 424 OFFCURVE",
"416 500 OFFCURVE",
"274 500 CURVE SMOOTH",
"200 500 OFFCURVE",
"113 476 OFFCURVE",
"46 428 CURVE",
"85 313 LINE",
"131 341 OFFCURVE",
"184 356 OFFCURVE",
"237 356 CURVE SMOOTH",
"295 356 OFFCURVE",
"331 331 OFFCURVE",
"331 282 CURVE SMOOTH",
"331 119 LINE",
"358 0 LINE"
);
},
{
closed = 1;
nodes = (
"318 -10 OFFCURVE",
"374 68 OFFCURVE",
"421 155 CURVE",
"378 178 LINE",
"345 140 OFFCURVE",
"301 119 OFFCURVE",
"266 119 CURVE SMOOTH",
"232 119 OFFCURVE",
"209 132 OFFCURVE",
"209 154 CURVE SMOOTH",
"209 185 OFFCURVE",
"234 205 OFFCURVE",
"366 205 CURVE",
"366 309 LINE",
"153 299 OFFCURVE",
"35 228 OFFCURVE",
"35 123 CURVE SMOOTH",
"35 41 OFFCURVE",
"110 -10 OFFCURVE",
"201 -10 CURVE SMOOTH"
);
}
);
};
layerId = "9707B00C-8292-4D70-B17A-DB07EF7F01BC";
name = "Sep 15 17, 21:22";
paths = (
{
closed = 1;
nodes = (
"504 0 LINE",
"504 292 LINE SMOOTH",
"504 422 OFFCURVE",
"418 500 OFFCURVE",
"276 500 CURVE SMOOTH",
"194 500 OFFCURVE",
"109 475 OFFCURVE",
"46 433 CURVE",
"85 318 LINE",
"129 342 OFFCURVE",
"184 356 OFFCURVE",
"233 356 CURVE SMOOTH",
"297 356 OFFCURVE",
"331 331 OFFCURVE",
"331 282 CURVE SMOOTH",
"331 119 LINE",
"358 0 LINE"
);
},
{
closed = 1;
nodes = (
"298 -10 OFFCURVE",
"371 43 OFFCURVE",
"431 155 CURVE",
"378 178 LINE",
"345 140 OFFCURVE",
"304 119 OFFCURVE",
"263 119 CURVE SMOOTH",
"229 119 OFFCURVE",
"209 133 OFFCURVE",
"209 157 CURVE SMOOTH",
"209 191 OFFCURVE",
"255 205 OFFCURVE",
"366 205 CURVE",
"366 309 LINE",
"157 299 OFFCURVE",
"35 231 OFFCURVE",
"35 124 CURVE SMOOTH",
"35 45 OFFCURVE",
"104 -10 OFFCURVE",
"202 -10 CURVE SMOOTH"
);
}
);
width = 564;
}
);
note = a;
unicode = 0061;
},
{
glyphname = ae;
lastChange = "2017-10-27 16:18:11 +0000";
layers = (
{
anchors = (
{
name = bottom;
position = "{421, 0}";
},
{
name = top;
position = "{421, 482}";
}
);
layerId = "F333AEC5-BB61-4D5E-9EDD-6124322D28F2";
paths = (
{
closed = 1;
nodes = (
"427 224 LINE",
"427 326 LINE SMOOTH",
"427 429 OFFCURVE",
"369 492 OFFCURVE",
"251 492 CURVE SMOOTH",
"185 492 OFFCURVE",
"124 473 OFFCURVE",
"60 435 CURVE",
"81 378 LINE",
"139 408 OFFCURVE",
"184 420 OFFCURVE",
"233 420 CURVE SMOOTH",
"317 420 OFFCURVE",
"365 384 OFFCURVE",
"365 313 CURVE SMOOTH",
"365 224 LINE"
);
},
{
closed = 1;
nodes = (
"325 -10 OFFCURVE",
"413 62 OFFCURVE",
"429 169 CURVE",
"400 183 LINE",
"384 108 OFFCURVE",
"319 60 OFFCURVE",
"235 60 CURVE SMOOTH",
"171 60 OFFCURVE",
"130 89 OFFCURVE",
"130 134 CURVE SMOOTH",
"130 196 OFFCURVE",
"204 219 OFFCURVE",
"372 219 CURVE",
"372 279 LINE",
"165 279 OFFCURVE",
"50 225 OFFCURVE",
"50 120 CURVE SMOOTH",
"50 42 OFFCURVE",
"114 -10 OFFCURVE",
"211 -10 CURVE SMOOTH"
);
},
{
closed = 1;
nodes = (
"662 -10 OFFCURVE",
"709 1 OFFCURVE",
"767 27 CURVE",
"750 83 LINE",
"705 64 OFFCURVE",
"663 55 OFFCURVE",
"624 55 CURVE SMOOTH",
"510 55 OFFCURVE",
"435 130 OFFCURVE",
"435 255 CURVE SMOOTH",
"435 364 OFFCURVE",
"492 424 OFFCURVE",
"580 424 CURVE SMOOTH",
"662 424 OFFCURVE",
"710 371 OFFCURVE",
"710 279 CURVE",
"429 279 LINE",
"429 219 LINE",
"781 219 LINE",
"783 234 OFFCURVE",
"785 269 OFFCURVE",
"785 288 CURVE SMOOTH",
"785 409 OFFCURVE",
"705 492 OFFCURVE",
"586 492 CURVE SMOOTH",
"452 492 OFFCURVE",
"361 388 OFFCURVE",
"361 236 CURVE SMOOTH",
"361 82 OFFCURVE",
"454 -10 OFFCURVE",
"609 -10 CURVE SMOOTH"
);
}
);
width = 839;
},
{
anchors = (
{
name = bottom;
position = "{424, 0}";
},
{
name = top;
position = "{424, 490}";
}
);
layerId = "51C2DFEF-3776-4D13-9284-96485B799B57";
paths = (
{
closed = 1;
nodes = (
"446 249 LINE",
"446 282 LINE SMOOTH",
"446 437 OFFCURVE",
"393 500 OFFCURVE",
"265 500 CURVE SMOOTH",
"185 500 OFFCURVE",
"101 475 OFFCURVE",
"38 433 CURVE",
"77 314 LINE",
"121 338 OFFCURVE",
"175 356 OFFCURVE",
"227 356 CURVE SMOOTH",
"288 356 OFFCURVE",
"323 331 OFFCURVE",
"323 282 CURVE SMOOTH",
"323 249 LINE"
);
},
{
closed = 1;
nodes = (
"293 -10 OFFCURVE",
"366 38 OFFCURVE",
"423 145 CURVE",
"370 168 LINE",
"337 130 OFFCURVE",
"294 119 OFFCURVE",
"260 119 CURVE SMOOTH",
"221 119 OFFCURVE",
"201 133 OFFCURVE",
"201 154 CURVE SMOOTH",
"201 184 OFFCURVE",
"242 195 OFFCURVE",
"358 195 CURVE",
"358 299 LINE",
"154 299 OFFCURVE",
"27 232 OFFCURVE",
"27 124 CURVE SMOOTH",
"27 45 OFFCURVE",
"94 -10 OFFCURVE",
"197 -10 CURVE SMOOTH"
);
},
{
closed = 1;
nodes = (
"674 -10 OFFCURVE",
"740 4 OFFCURVE",
"804 30 CURVE",
"770 149 LINE",
"721 136 OFFCURVE",
"676 129 OFFCURVE",
"634 129 CURVE SMOOTH",
"532 129 OFFCURVE",
"485 171 OFFCURVE",
"485 259 CURVE SMOOTH",
"485 330 OFFCURVE",
"516 370 OFFCURVE",
"571 370 CURVE SMOOTH",
"615 370 OFFCURVE",
"640 344 OFFCURVE",
"640 298 CURVE",
"471 298 LINE",
"471 195 LINE",
"803 195 LINE",
"808 220 OFFCURVE",
"810 248 OFFCURVE",
"810 271 CURVE SMOOTH",
"810 418 OFFCURVE",
"727 500 OFFCURVE",
"585 500 CURVE SMOOTH",
"426 500 OFFCURVE",
"321 398 OFFCURVE",
"321 243 CURVE SMOOTH",
"321 85 OFFCURVE",
"430 -10 OFFCURVE",
"606 -10 CURVE SMOOTH"
);
}
);
width = 848;
},
{
anchors = (
{
name = bottom;
position = "{424, 0}";
},
{
name = top;
position = "{424, 480}";
}
);
layerId = "0B2E441B-685E-400D-9B9B-E078DEED62EF";
paths = (
{
closed = 1;
nodes = (
"407 239 LINE",
"407 327 LINE SMOOTH",
"407 428 OFFCURVE",
"350 486 OFFCURVE",
"248 486 CURVE SMOOTH",
"182 486 OFFCURVE",
"112 462 OFFCURVE",
"66 425 CURVE",
"73 412 LINE",
"119 448 OFFCURVE",
"181 468 OFFCURVE",
"242 468 CURVE SMOOTH",
"339 468 OFFCURVE",
"392 416 OFFCURVE",
"392 322 CURVE SMOOTH",
"392 239 LINE"
);
},
{
closed = 1;
nodes = (
"314 -10 OFFCURVE",
"398 55 OFFCURVE",
"415 154 CURVE",
"404 162 LINE",
"390 73 OFFCURVE",
"315 8 OFFCURVE",
"215 8 CURVE SMOOTH",
"137 8 OFFCURVE",
"85 48 OFFCURVE",
"85 112 CURVE SMOOTH",
"85 202 OFFCURVE",
"188 244 OFFCURVE",
"400 244 CURVE",
"400 262 LINE",
"184 262 OFFCURVE",
"64 210 OFFCURVE",
"64 109 CURVE SMOOTH",
"64 37 OFFCURVE",
"124 -10 OFFCURVE",
"211 -10 CURVE SMOOTH"
);
},
{
closed = 1;
nodes = (
"672 -10 OFFCURVE",
"721 5 OFFCURVE",
"768 38 CURVE",
"760 50 LINE",
"712 19 OFFCURVE",
"669 6 OFFCURVE",
"620 6 CURVE SMOOTH",
"493 6 OFFCURVE",
"412 94 OFFCURVE",
"412 241 CURVE SMOOTH",
"412 376 OFFCURVE",
"481 468 OFFCURVE",
"591 468 CURVE SMOOTH",
"699 468 OFFCURVE",
"762 380 OFFCURVE",
"762 261 CURVE",
"401 261 LINE",
"401 244 LINE",
"782 244 LINE",
"783 251 OFFCURVE",
"783 256 OFFCURVE",
"783 264 CURVE SMOOTH",
"783 388 OFFCURVE",
"710 486 OFFCURVE",
"593 486 CURVE SMOOTH",
"475 486 OFFCURVE",
"392 386 OFFCURVE",
"392 239 CURVE SMOOTH",
"392 87 OFFCURVE",
"480 -10 OFFCURVE",
"618 -10 CURVE SMOOTH"
);
}
);
width = 848;
}
);
leftMetricsKey = a;
rightMetricsKey = e;
unicode = 00E6;
},
{
glyphname = c;
lastChange = "2017-10-28 15:49:56 +0000";
layers = (
{
anchors = (
{
name = bottom;
position = "{256, 0}";
},
{
name = top;
position = "{276, 482}";
}
);
layerId = "F333AEC5-BB61-4D5E-9EDD-6124322D28F2";
paths = (
{
closed = 1;
nodes = (
"337 -10 OFFCURVE",
"399 5 OFFCURVE",
"442 30 CURVE",
"423 85 LINE",
"384 67 OFFCURVE",
"338 56 OFFCURVE",
"298 56 CURVE SMOOTH",
"195 56 OFFCURVE",
"136 125 OFFCURVE",
"136 243 CURVE SMOOTH",
"136 359 OFFCURVE",
"194 422 OFFCURVE",
"298 422 CURVE SMOOTH",
"338 422 OFFCURVE",
"381 413 OFFCURVE",
"423 395 CURVE",
"442 460 LINE",
"397 481 OFFCURVE",
"348 492 OFFCURVE",
"299 492 CURVE SMOOTH",
"152 492 OFFCURVE",
"54 386 OFFCURVE",
"54 227 CURVE SMOOTH",
"54 78 OFFCURVE",
"138 -10 OFFCURVE",
"279 -10 CURVE SMOOTH"
);
}
);
width = 483;
},
{
anchors = (
{
name = bottom;
position = "{243, 0}";
},
{
name = top;
position = "{261, 490}";
}
);
layerId = "51C2DFEF-3776-4D13-9284-96485B799B57";
paths = (
{
closed = 1;
nodes = (
"355 -10 OFFCURVE",
"411 1 OFFCURVE",
"462 22 CURVE",
"428 141 LINE",
"398 133 OFFCURVE",
"366 128 OFFCURVE",
"337 128 CURVE SMOOTH",
"251 128 OFFCURVE",
"202 171 OFFCURVE",
"202 248 CURVE SMOOTH",
"202 319 OFFCURVE",
"240 356 OFFCURVE",
"312 356 CURVE SMOOTH",
"345 356 OFFCURVE",
"390 348 OFFCURVE",
"425 337 CURVE",
"462 472 LINE",
"411 491 OFFCURVE",
"362 500 OFFCURVE",
"312 500 CURVE SMOOTH",
"140 500 OFFCURVE",
"26 394 OFFCURVE",
"26 235 CURVE SMOOTH",
"26 84 OFFCURVE",
"130 -10 OFFCURVE",
"298 -10 CURVE SMOOTH"
);
}
);
width = 486;
},
{
anchors = (
{
name = bottom;
position = "{237, 0}";
},
{
name = top;
position = "{253, 480}";
}
);
layerId = "0B2E441B-685E-400D-9B9B-E078DEED62EF";
paths = (
{
closed = 1;
nodes = (
"330 -10 OFFCURVE",
"384 7 OFFCURVE",
"422 36 CURVE",
"414 48 LINE",
"379 22 OFFCURVE",
"329 6 OFFCURVE",
"282 6 CURVE SMOOTH",
"168 6 OFFCURVE",
"92 98 OFFCURVE",
"92 237 CURVE SMOOTH",
"92 376 OFFCURVE",
"172 468 OFFCURVE",
"293 468 CURVE SMOOTH",
"336 468 OFFCURVE",
"380 456 OFFCURVE",
"416 436 CURVE",
"423 452 LINE",
"386 473 OFFCURVE",
"342 486 OFFCURVE",
"295 486 CURVE SMOOTH",
"161 486 OFFCURVE",
"71 385 OFFCURVE",
"71 234 CURVE SMOOTH",
"71 88 OFFCURVE",
"154 -10 OFFCURVE",
"279 -10 CURVE SMOOTH"
);
}
);
width = 473;
}
);
note = c;
unicode = 0063;
},
{
glyphname = eth;
lastChange = "2017-10-27 16:17:47 +0000";
layers = (
{
layerId = "F333AEC5-BB61-4D5E-9EDD-6124322D28F2";
paths = (
{
closed = 1;
nodes = (
"414 -9 OFFCURVE",
"497 94 OFFCURVE",
"497 273 CURVE SMOOTH",
"497 486 OFFCURVE",
"381 662 OFFCURVE",
"162 749 CURVE",
"135 691 LINE",
"299 616 OFFCURVE",
"400 500 OFFCURVE",
"430 351 CURVE",
"447 327 LINE",
"415 404 OFFCURVE",
"348 449 OFFCURVE",
"263 449 CURVE SMOOTH",
"139 449 OFFCURVE",
"52 354 OFFCURVE",
"52 215 CURVE SMOOTH",
"52 78 OFFCURVE",
"137 -9 OFFCURVE",
"269 -9 CURVE SMOOTH"
);
},
{
closed = 1;
nodes = (
"188 61 OFFCURVE",
"132 126 OFFCURVE",
"132 230 CURVE SMOOTH",
"132 325 OFFCURVE",
"179 379 OFFCURVE",
"262 379 CURVE SMOOTH",
"354 379 OFFCURVE",
"419 311 OFFCURVE",
"419 213 CURVE SMOOTH",
"419 121 OFFCURVE",
"362 61 OFFCURVE",
"277 61 CURVE SMOOTH"
);
},
{
closed = 1;
nodes = (
"424 681 LINE",
"397 730 LINE",
"137 594 LINE",
"164 546 LINE"
);
}
);
width = 560;
},
{
layerId = "51C2DFEF-3776-4D13-9284-96485B799B57";
paths = (
{
closed = 1;
nodes = (
"437 -9 OFFCURVE",
"525 94 OFFCURVE",
"525 274 CURVE SMOOTH",
"525 489 OFFCURVE",
"399 650 OFFCURVE",
"175 749 CURVE",
"112 613 LINE",
"263 536 OFFCURVE",
"353 441 OFFCURVE",
"376 335 CURVE",
"456 282 LINE",
"456 382 OFFCURVE",
"393 447 OFFCURVE",
"271 447 CURVE SMOOTH",
"127 447 OFFCURVE",
"24 355 OFFCURVE",
"24 215 CURVE SMOOTH",
"24 78 OFFCURVE",
"123 -9 OFFCURVE",
"273 -9 CURVE SMOOTH"
);
},
{
closed = 1;
nodes = (
"231 131 OFFCURVE",
"201 173 OFFCURVE",
"201 224 CURVE SMOOTH",
"201 280 OFFCURVE",
"236 307 OFFCURVE",
"276 307 CURVE SMOOTH",
"325 307 OFFCURVE",
"355 267 OFFCURVE",
"355 215 CURVE SMOOTH",
"355 162 OFFCURVE",
"324 131 OFFCURVE",
"281 131 CURVE SMOOTH"
);
},
{
closed = 1;
nodes = (
"486 636 LINE",
"434 728 LINE",
"112 536 LINE",
"164 445 LINE"
);
}
);
width = 561;
},
{
layerId = "0B2E441B-685E-400D-9B9B-E078DEED62EF";
paths = (
{
closed = 1;
nodes = (
"393 -9 OFFCURVE",
"466 86 OFFCURVE",
"466 249 CURVE SMOOTH",
"466 467 OFFCURVE",
"336 665 OFFCURVE",
"141 743 CURVE",
"136 729 LINE",
"298 657 OFFCURVE",
"413 507 OFFCURVE",
"446 324 CURVE",
"449 317 LINE",
"424 394 OFFCURVE",
"360 449 OFFCURVE",
"269 449 CURVE SMOOTH",
"151 449 OFFCURVE",
"69 356 OFFCURVE",
"69 221 CURVE SMOOTH",
"69 83 OFFCURVE",
"154 -9 OFFCURVE",
"273 -9 CURVE SMOOTH"
);
},
{
closed = 1;
nodes = (
"167 9 OFFCURVE",
"90 94 OFFCURVE",
"90 226 CURVE SMOOTH",
"90 351 OFFCURVE",
"158 431 OFFCURVE",
"267 431 CURVE SMOOTH",
"373 431 OFFCURVE",
"446 356 OFFCURVE",
"446 221 CURVE SMOOTH",
"446 94 OFFCURVE",
"381 9 OFFCURVE",
"274 9 CURVE SMOOTH"
);
},
{
closed = 1;
nodes = (
"412 709 LINE",
"404 723 LINE",
"137 588 LINE",
"145 574 LINE"
);
}
);
width = 547;
}
);
unicode = 00F0;
},
{
glyphname = e;
lastChange = "2017-10-28 16:07:58 +0000";
layers = (
{
anchors = (
{
name = "#entry";
position = "{92, 236}";
},
{
name = bottom;
position = "{287, 0}";
},
{
name = ogonek;
position = "{430, 10}";
},
{
name = top;
position = "{272, 482}";
}
);
associatedMasterId = "F333AEC5-BB61-4D5E-9EDD-6124322D28F2";
layerId = "91DE0B1C-30D9-4C38-87F3-02620E7556DE";
name = "Aug 19 17, 13:53";
paths = (
{
closed = 1;
nodes = (
"351 -10 OFFCURVE",
"410 5 OFFCURVE",
"459 27 CURVE",
"445 83 LINE",
"403 66 OFFCURVE",
"358 55 OFFCURVE",
"317 55 CURVE SMOOTH",
"207 55 OFFCURVE",
"136 133 OFFCURVE",
"136 251 CURVE SMOOTH",
"136 353 OFFCURVE",
"188 422 OFFCURVE",
"273 422 CURVE SMOOTH",
"348 422 OFFCURVE",
"397 369 OFFCURVE",
"397 279 CURVE",
"121 279 LINE",
"121 219 LINE",
"473 219 LINE",
"475 234 OFFCURVE",
"477 269 OFFCURVE",
"477 289 CURVE SMOOTH",
"477 413 OFFCURVE",
"397 492 OFFCURVE",
"279 492 CURVE SMOOTH",
"145 492 OFFCURVE",
"53 391 OFFCURVE",
"53 236 CURVE SMOOTH",
"53 82 OFFCURVE",
"144 -10 OFFCURVE",
"291 -10 CURVE SMOOTH"
);
}
);
width = 533;
},
{
anchors = (
{
name = "#entry";
position = "{93, 236}";
},
{
name = bottom;
position = "{288, 0}";
},
{
name = ogonek;
position = "{431, 10}";
},
{
name = top;
position = "{273, 482}";
}
);
background = {
paths = (
{
closed = 1;
nodes = (
"420 -10 OFFCURVE",
"517 92 OFFCURVE",
"517 247 CURVE SMOOTH",
"517 394 OFFCURVE",
"430 492 OFFCURVE",
"291 492 CURVE SMOOTH",
"149 492 OFFCURVE",
"54 390 OFFCURVE",
"54 236 CURVE SMOOTH",
"54 89 OFFCURVE",
"140 -10 OFFCURVE",
"279 -10 CURVE SMOOTH"
);
},
{
closed = 1;
nodes = (
"198 60 OFFCURVE",
"134 134 OFFCURVE",
"134 246 CURVE SMOOTH",
"134 352 OFFCURVE",
"190 422 OFFCURVE",
"280 422 CURVE SMOOTH",
"372 422 OFFCURVE",
"437 348 OFFCURVE",
"437 236 CURVE SMOOTH",
"437 131 OFFCURVE",
"380 60 OFFCURVE",
"290 60 CURVE SMOOTH"
);
}
);
};
layerId = "F333AEC5-BB61-4D5E-9EDD-6124322D28F2";
paths = (
{
closed = 1;
nodes = (
"355 -10 OFFCURVE",
"409 2 OFFCURVE",
"460 27 CURVE",
"443 83 LINE",
"404 65 OFFCURVE",
"357 55 OFFCURVE",
"316 55 CURVE SMOOTH",
"203 55 OFFCURVE",
"136 130 OFFCURVE",
"136 255 CURVE SMOOTH",
"136 364 OFFCURVE",
"185 424 OFFCURVE",
"273 424 CURVE SMOOTH",
"355 424 OFFCURVE",
"403 371 OFFCURVE",
"403 279 CURVE",
"122 279 LINE",
"122 219 LINE",
"474 219 LINE",
"476 234 OFFCURVE",
"478 269 OFFCURVE",
"478 288 CURVE SMOOTH",
"478 409 OFFCURVE",
"398 492 OFFCURVE",
"279 492 CURVE SMOOTH",
"145 492 OFFCURVE",
"54 388 OFFCURVE",
"54 236 CURVE SMOOTH",
"54 82 OFFCURVE",
"147 -10 OFFCURVE",
"299 -10 CURVE SMOOTH"
);
}
);
width = 532;
},
{
anchors = (
{
name = "#entry";
position = "{108, 236}";
},
{
name = bottom;
position = "{278, 0}";
},
{
name = ogonek;
position = "{447, 10}";
},
{
name = top;
position = "{278, 490}";
}
);
layerId = "51C2DFEF-3776-4D13-9284-96485B799B57";
paths = (
{
closed = 1;
nodes = (
"386 -10 OFFCURVE",
"452 4 OFFCURVE",
"509 30 CURVE",
"475 149 LINE",
"435 136 OFFCURVE",
"391 129 OFFCURVE",
"348 129 CURVE SMOOTH",
"244 129 OFFCURVE",
"202 167 OFFCURVE",
"202 261 CURVE SMOOTH",
"202 334 OFFCURVE",
"225 370 OFFCURVE",
"276 370 CURVE SMOOTH",
"320 370 OFFCURVE",
"345 344 OFFCURVE",
"345 298 CURVE",
"176 298 LINE",
"176 195 LINE",
"508 195 LINE",
"512 219 OFFCURVE",
"515 247 OFFCURVE",
"515 274 CURVE SMOOTH",
"515 417 OFFCURVE",
"432 500 OFFCURVE",
"289 500 CURVE SMOOTH",
"131 500 OFFCURVE",
"26 398 OFFCURVE",
"26 244 CURVE SMOOTH",
"26 84 OFFCURVE",
"138 -10 OFFCURVE",
"317 -10 CURVE SMOOTH"
);
}
);
width = 553;
},
{
anchors = (
{
name = "#entry";
position = "{83, 245}";
},
{
name = bottom;
position = "{265, 0}";
},
{
name = ogonek;
position = "{439, 10}";
},
{
name = top;
position = "{270, 480}";
}
);
layerId = "0B2E441B-685E-400D-9B9B-E078DEED62EF";
paths = (
{
closed = 1;
nodes = (
"353 -10 OFFCURVE",
"402 5 OFFCURVE",
"449 38 CURVE",
"441 50 LINE",
"393 19 OFFCURVE",
"350 6 OFFCURVE",
"301 6 CURVE SMOOTH",
"173 6 OFFCURVE",
"94 95 OFFCURVE",
"94 241 CURVE SMOOTH",
"94 381 OFFCURVE",
"162 468 OFFCURVE",
"273 468 CURVE SMOOTH",
"378 468 OFFCURVE",
"443 387 OFFCURVE",
"443 256 CURVE",
"82 256 LINE",
"82 239 LINE",
"463 239 LINE",
"464 246 OFFCURVE",
"464 251 OFFCURVE",
"464 259 CURVE SMOOTH",
"464 395 OFFCURVE",
"388 486 OFFCURVE",
"275 486 CURVE SMOOTH",
"153 486 OFFCURVE",
"72 387 OFFCURVE",
"72 239 CURVE SMOOTH",
"72 87 OFFCURVE",
"161 -10 OFFCURVE",
"299 -10 CURVE SMOOTH"
);
}
);
width = 529;
}
);
note = e;
unicode = 0065;
},
{
glyphname = f;
lastChange = "2017-10-28 14:56:48 +0000";
layers = (
{
anchors = (
{
name = "#hook";
position = "{142, 0}";
},
{
name = bottom;
position = "{141, 0}";
},
{
name = top;
position = "{268, 739}";
}
);
layerId = "F333AEC5-BB61-4D5E-9EDD-6124322D28F2";
paths = (
{
closed = 1;
nodes = (
"181 0 LINE",
"181 587 LINE SMOOTH",
"181 648 OFFCURVE",
"209 681 OFFCURVE",
"264 681 CURVE SMOOTH",
"291 681 OFFCURVE",
"324 673 OFFCURVE",
"349 662 CURVE",
"368 725 LINE",
"337 741 OFFCURVE",
"304 749 OFFCURVE",
"271 749 CURVE SMOOTH",
"172 749 OFFCURVE",
"101 678 OFFCURVE",
"101 577 CURVE SMOOTH",
"101 0 LINE"
);
},
{
closed = 1;
nodes = (
"331 415 LINE",
"331 482 LINE",
"29 482 LINE",
"29 415 LINE"
);
}
);
width = 360;
},
{
anchors = (
{
name = "#hook";
position = "{163, 0}";
},
{
name = bottom;
position = "{163, 0}";
},
{
name = top;
position = "{315, 739}";
}
);
layerId = "51C2DFEF-3776-4D13-9284-96485B799B57";
paths = (
{
closed = 1;
nodes = (
"254 0 LINE",
"254 534 LINE SMOOTH",
"254 583 OFFCURVE",
"284 607 OFFCURVE",
"330 607 CURVE SMOOTH",
"351 607 OFFCURVE",
"380 602 OFFCURVE",
"408 594 CURVE",
"445 728 LINE",
"409 741 OFFCURVE",
"362 749 OFFCURVE",
"318 749 CURVE SMOOTH",
"172 749 OFFCURVE",
"81 662 OFFCURVE",
"81 518 CURVE SMOOTH",
"81 0 LINE"
);
},
{
closed = 1;
nodes = (
"394 355 LINE",
"394 490 LINE",
"21 490 LINE",
"21 355 LINE"
);
}
);
width = 407;
},
{
anchors = (
{
name = "#hook";
position = "{129, 0}";
},
{
name = bottom;
position = "{128, 0}";
},
{
name = top;
position = "{229, 739}";
}
);
layerId = "0B2E441B-685E-400D-9B9B-E078DEED62EF";
paths = (
{
closed = 1;
nodes = (
"138 0 LINE",
"138 636 LINE SMOOTH",
"138 693 OFFCURVE",
"176 731 OFFCURVE",
"234 731 CURVE SMOOTH",
"255 731 OFFCURVE",
"279 726 OFFCURVE",
"301 716 CURVE",
"308 731 LINE",
"283 743 OFFCURVE",
"258 749 OFFCURVE",
"235 749 CURVE SMOOTH",
"167 749 OFFCURVE",
"118 699 OFFCURVE",
"118 631 CURVE SMOOTH",
"118 0 LINE"
);
},
{
closed = 1;
nodes = (
"289 463 LINE",
"289 480 LINE",
"38 480 LINE",
"38 463 LINE"
);
}
);
width = 327;
}
);
note = f;
unicode = 0066;
},
{
glyphname = h;
lastChange = "2017-10-27 16:17:48 +0000";
layers = (
{
anchors = (
{
name = bottom;
position = "{286, 0}";
},
{
name = center;
position = "{164, 608}";
},
{
name = top;
position = "{292, 739}";
}
);
background = {
components = (
{
name = _stem.d;
transform = "{1, 0, 0, 1, 310, 0}";
},
{
name = _bowl.d;
transform = "{1, 0, 0, 1, -8, 0}";
}
);
};
components = (
{
name = _stem.h;
transform = "{1, 0, 0, 1, -2, 0}";
},
{
name = _part.shoulder.n;
piece = {
"Crotch depth" = -5.68366;
};
transform = "{1, 0, 0, 1, 92, 0}";
}
);
layerId = "F333AEC5-BB61-4D5E-9EDD-6124322D28F2";
width = 576;
},
{
anchors = (
{
name = bottom;
position = "{303, 0}";
},
{
name = center;
position = "{184, 600}";
},
{
name = top;
position = "{323, 739}";
}
);
components = (
{
name = _stem.h;
transform = "{1, 0, 0, 1, -19, 0}";
},
{
name = _part.shoulder.n;
piece = {
"Crotch depth" = -10;
};
transform = "{1, 0, 0, 1, 136, 0}";
}
);
layerId = "51C2DFEF-3776-4D13-9284-96485B799B57";
width = 605;
},
{
anchors = (
{
name = bottom;
position = "{281, 0}";
},
{
name = center;
position = "{180, 607}";
},
{
name = top;
position = "{301, 739}";
}
);
components = (
{
name = _stem.h;
transform = "{1, 0, 0, 1, -36, 0}";
},
{
name = _part.shoulder.n;
piece = {
"Crotch depth" = -2.33547;
};
transform = "{1, 0, 0, 1, 7, 0}";
}
);
layerId = "0B2E441B-685E-400D-9B9B-E078DEED62EF";
width = 560;
},
{
associatedMasterId = "0B2E441B-685E-400D-9B9B-E078DEED62EF";
layerId = "D8BCD29D-2EC0-41B9-85E4-32E264350C95";
name = "Sep 11 17, 19:08";
paths = (
{
closed = 1;
nodes = (
"120 0 LINE",
"120 739 LINE",
"100 739 LINE",
"100 0 LINE"
);
},
{
closed = 1;
nodes = (
"478 0 LINE",
"478 338 LINE SMOOTH",
"478 429 OFFCURVE",
"410 490 OFFCURVE",
"308 490 CURVE SMOOTH",
"238 490 OFFCURVE",
"170 462 OFFCURVE",
"112 407 CURVE",
"112 391 LINE",
"173 444 OFFCURVE",
"239 471 OFFCURVE",
"303 471 CURVE SMOOTH",
"396 471 OFFCURVE",
"458 414 OFFCURVE",
"458 328 CURVE SMOOTH",
"458 0 LINE"
);
}
);
width = 541;
}
);
note = h;
unicode = 0068;
},
{
glyphname = idotless;
lastChange = "2017-10-28 15:29:57 +0000";
layers = (
{
anchors = (
{
name = bottom;
position = "{126, 0}";
},
{
name = ogonek;
position = "{154, 10}";
},
{
name = top;
position = "{126, 482}";
}
);
layerId = "F333AEC5-BB61-4D5E-9EDD-6124322D28F2";
paths = (
{
closed = 1;
nodes = (
"166 0 LINE",
"166 482 LINE",
"86 482 LINE",
"86 0 LINE"
);
}
);
width = 252;
},
{
anchors = (
{
name = bottom;
position = "{148, 0}";
},
{
name = ogonek;
position = "{196, 10}";
},
{
name = top;
position = "{148, 490}";
}
);
layerId = "51C2DFEF-3776-4D13-9284-96485B799B57";
paths = (
{
closed = 1;
nodes = (
"234 0 LINE",
"234 490 LINE",
"61 490 LINE",
"61 0 LINE"
);
}
);
width = 295;
},
{
anchors = (
{
name = bottom;
position = "{113, 0}";
},
{
name = ogonek;
position = "{122, 10}";
},
{
name = top;
position = "{113, 480}";
}
);
layerId = "0B2E441B-685E-400D-9B9B-E078DEED62EF";
paths = (
{
closed = 1;
nodes = (
"124 0 LINE",
"124 480 LINE",
"103 480 LINE",
"103 0 LINE"
);
}
);
width = 227;
}
);
note = dotlessi;
unicode = 0131;
},
{
glyphname = jdotless;
lastChange = "2017-10-28 15:08:59 +0000";
layers = (
{
anchors = (
{
name = bottom;
position = "{127, 0}";
},
{
name = top;
position = "{127, 482}";
}
);
layerId = "F333AEC5-BB61-4D5E-9EDD-6124322D28F2";
paths = (
{
closed = 1;
nodes = (
"118 -185 OFFCURVE",
"167 -117 OFFCURVE",
"167 -23 CURVE SMOOTH",
"167 482 LINE",
"87 482 LINE",
"87 -35 LINE SMOOTH",
"87 -97 OFFCURVE",
"57 -145 OFFCURVE",
"-3 -179 CURVE",
"23 -227 LINE"
);
}
);
width = 253;
},
{
anchors = (
{
name = bottom;
position = "{137, 0}";
},
{
name = top;
position = "{148, 490}";
}
);
layerId = "51C2DFEF-3776-4D13-9284-96485B799B57";
paths = (
{
closed = 1;
nodes = (
"155 -186 OFFCURVE",
"234 -83 OFFCURVE",
"234 31 CURVE SMOOTH",
"234 490 LINE",
"61 490 LINE",
"61 31 LINE SMOOTH",
"61 -30 OFFCURVE",
"26 -87 OFFCURVE",
"-32 -121 CURVE",
"35 -227 LINE"
);
}
);
width = 295;
},
{
anchors = (
{
name = bottom;
position = "{114, 0}";
},
{
name = top;
position = "{114, 480}";
}
);
layerId = "0B2E441B-685E-400D-9B9B-E078DEED62EF";
paths = (
{
closed = 1;
nodes = (
"82 -194 OFFCURVE",
"125 -131 OFFCURVE",
"125 -67 CURVE SMOOTH",
"125 480 LINE",
"104 480 LINE",
"104 -67 LINE SMOOTH",
"104 -125 OFFCURVE",
"67 -181 OFFCURVE",
"11 -209 CURVE",
"18 -222 LINE"
);
}
);
width = 228;
}
);
note = uni0237;
unicode = 0237;
},
{
glyphname = l;
lastChange = "2017-10-28 15:55:36 +0000";
layers = (
{
anchors = (
{
name = "#periodcentered";
position = "{267, 353}";
},
{
name = bottom;
position = "{166, 0}";
},
{
name = center;
position = "{145, 381}";
},
{
name = top;
position = "{123, 739}";
},
{
name = topright;
position = "{253, 482}";
}
);
layerId = "F333AEC5-BB61-4D5E-9EDD-6124322D28F2";
paths = (
{
closed = 1;
nodes = (
"228 -6 OFFCURVE",
"256 2 OFFCURVE",
"276 17 CURVE",
"261 70 LINE",
"244 61 OFFCURVE",
"229 57 OFFCURVE",
"215 57 CURVE SMOOTH",
"183 57 OFFCURVE",
"162 82 OFFCURVE",
"162 118 CURVE SMOOTH",
"162 739 LINE",
"82 739 LINE",
"82 108 LINE SMOOTH",
"82 40 OFFCURVE",
"128 -6 OFFCURVE",
"197 -6 CURVE SMOOTH"
);
}
);
width = 302;
},
{
anchors = (
{
name = "#periodcentered";
position = "{322, 363}";
},
{
name = bottom;
position = "{188, 0}";
},
{
name = center;
position = "{140, 377}";
},
{
name = top;
position = "{132, 739}";
},
{
name = topright;
position = "{317, 490}";
}
);
layerId = "51C2DFEF-3776-4D13-9284-96485B799B57";
paths = (
{
closed = 1;
nodes = (
"293 -8 OFFCURVE",
"337 3 OFFCURVE",
"367 21 CURVE",
"338 138 LINE",
"323 132 OFFCURVE",
"305 129 OFFCURVE",
"290 129 CURVE SMOOTH",
"248 129 OFFCURVE",
"220 158 OFFCURVE",
"220 201 CURVE SMOOTH",
"220 739 LINE",
"50 739 LINE",
"50 182 LINE SMOOTH",
"50 68 OFFCURVE",
"130 -8 OFFCURVE",
"249 -8 CURVE SMOOTH"
);
}
);
width = 373;
},
{
anchors = (
{
name = "#periodcentered";
position = "{207, 353}";
},
{
name = bottom;
position = "{155, 0}";
},
{
name = center;
position = "{136, 393}";
},
{
name = top;
position = "{112, 739}";
},
{
name = topright;
position = "{195, 480}";
}
);
layerId = "0B2E441B-685E-400D-9B9B-E078DEED62EF";
paths = (
{
closed = 1;
nodes = (
"204 -2 OFFCURVE",
"224 4 OFFCURVE",
"238 15 CURVE",
"231 27 LINE",
"221 19 OFFCURVE",
"205 14 OFFCURVE",
"188 14 CURVE SMOOTH",
"146 14 OFFCURVE",
"121 43 OFFCURVE",
"121 87 CURVE SMOOTH",
"121 739 LINE",
"101 739 LINE",
"101 83 LINE SMOOTH",
"101 32 OFFCURVE",
"133 -2 OFFCURVE",
"183 -2 CURVE SMOOTH"
);
}
);
width = 277;
}
);
note = l;
unicode = 006C;
},
{
glyphname = n;
lastChange = "2017-10-27 16:17:46 +0000";
layers = (
{
anchors = (
{
name = bottom;
position = "{289, 0}";
},
{
name = top;
position = "{289, 482}";
}
);
components = (
{
name = _stem.n;
transform = "{1, 0, 0, 1, -2, 0}";
},
{
name = _part.shoulder.n;
transform = "{1, 0, 0, 1, 88, 0}";
}
);
layerId = "F333AEC5-BB61-4D5E-9EDD-6124322D28F2";
width = 572;
},
{
anchors = (
{
name = bottom;
position = "{303, 0}";
},
{
name = top;
position = "{303, 490}";
}
);
components = (
{
name = _stem.n;
transform = "{1, 0, 0, 1, -19, 0}";
},
{
name = _part.shoulder.n;
transform = "{1, 0, 0, 1, 136, 0}";
}
);
layerId = "51C2DFEF-3776-4D13-9284-96485B799B57";
width = 605;
},
{
anchors = (
{
name = bottom;
position = "{280, 0}";
},
{
name = top;
position = "{276, 480}";
}
);
components = (
{
name = _stem.n;
transform = "{1, 0, 0, 1, 3, 0}";
},
{
name = _part.shoulder.n;
transform = "{1, 0, 0, 1, 6, 0}";
}
);
layerId = "0B2E441B-685E-400D-9B9B-E078DEED62EF";
width = 559;
},
{
associatedMasterId = "0B2E441B-685E-400D-9B9B-E078DEED62EF";
layerId = "C61958B6-84F7-4994-9D37-EADF52FA5068";
name = "Sep 11 17, 18:57";
paths = (
{
closed = 1;
nodes = (
"482 0 LINE",
"482 338 LINE SMOOTH",
"482 429 OFFCURVE",
"414 490 OFFCURVE",
"312 490 CURVE SMOOTH",
"242 490 OFFCURVE",
"174 462 OFFCURVE",
"116 407 CURVE",
"116 391 LINE",
"177 444 OFFCURVE",
"243 471 OFFCURVE",
"307 471 CURVE SMOOTH",
"400 471 OFFCURVE",
"462 414 OFFCURVE",
"462 328 CURVE SMOOTH",
"462 0 LINE"
);
},
{
closed = 1;
nodes = (
"120 0 LINE",
"120 404 LINE",
"116 480 LINE",
"100 480 LINE",
"100 0 LINE"
);
}
);
width = 574;
}
);
note = n;
unicode = 006E;
},
{
glyphname = o;
lastChange = "2017-10-28 15:44:12 +0000";
layers = (
{
anchors = (
{
name = "#exit";
position = "{476, 236}";
},
{
name = bottom;
position = "{286, 0}";
},
{
name = center;
position = "{286, 241}";
},
{
name = ogonek;
position = "{376, 10}";
},
{
name = top;
position = "{286, 482}";
},
{
name = topright;
position = "{460, 482}";
}
);
background = {
components = (
{
name = _stem.d;
transform = "{1, 0, 0, 1, 300, 0}";
},
{
name = _bowl.d;
transform = "{1, 0, 0, 1, -18, 0}";
}
);
};
layerId = "F333AEC5-BB61-4D5E-9EDD-6124322D28F2";
paths = (
{
closed = 1;
nodes = (
"421 -10 OFFCURVE",
"517 93 OFFCURVE",
"517 247 CURVE SMOOTH",
"517 396 OFFCURVE",
"428 492 OFFCURVE",
"291 492 CURVE SMOOTH",
"149 492 OFFCURVE",
"54 390 OFFCURVE",
"54 236 CURVE SMOOTH",
"54 87 OFFCURVE",
"142 -10 OFFCURVE",
"279 -10 CURVE SMOOTH"
);
},
{
closed = 1;
nodes = (
"197 60 OFFCURVE",
"134 135 OFFCURVE",
"134 246 CURVE SMOOTH",
"134 353 OFFCURVE",
"191 422 OFFCURVE",
"280 422 CURVE SMOOTH",
"373 422 OFFCURVE",
"437 346 OFFCURVE",
"437 236 CURVE SMOOTH",
"437 130 OFFCURVE",
"379 60 OFFCURVE",
"290 60 CURVE SMOOTH"
);
}
);
width = 571;
},
{
anchors = (
{
name = "#exit";
position = "{471, 236}";
},
{
name = bottom;
position = "{291, 0}";
},
{
name = center;
position = "{291, 245}";
},
{
name = ogonek;
position = "{358, 10}";
},
{
name = top;
position = "{291, 490}";
},
{
name = topright;
position = "{474, 490}";
}
);
layerId = "51C2DFEF-3776-4D13-9284-96485B799B57";
paths = (
{
closed = 1;
nodes = (
"445 -10 OFFCURVE",
"555 96 OFFCURVE",
"555 254 CURVE SMOOTH",
"555 403 OFFCURVE",
"455 500 OFFCURVE",
"300 500 CURVE SMOOTH",
"136 500 OFFCURVE",
"26 394 OFFCURVE",
"26 235 CURVE SMOOTH",
"26 87 OFFCURVE",
"126 -10 OFFCURVE",
"281 -10 CURVE SMOOTH"
);
},
{
closed = 1;
nodes = (
"239 134 OFFCURVE",
"202 179 OFFCURVE",
"202 246 CURVE SMOOTH",
"202 312 OFFCURVE",
"236 356 OFFCURVE",
"288 356 CURVE SMOOTH",
"342 356 OFFCURVE",
"379 310 OFFCURVE",
"379 240 CURVE SMOOTH",
"379 176 OFFCURVE",
"345 134 OFFCURVE",
"293 134 CURVE SMOOTH"
);
}
);
width = 581;
},
{
anchors = (
{
name = "#exit";
position = "{478, 236}";
},
{
name = bottom;
position = "{281, 0}";
},
{
name = center;
position = "{281, 240}";
},
{
name = ogonek;
position = "{355, 10}";
},
{
name = top;
position = "{273, 480}";
},
{
name = topright;
position = "{443, 480}";
}
);
layerId = "0B2E441B-685E-400D-9B9B-E078DEED62EF";
paths = (
{
closed = 1;
nodes = (
"405 -10 OFFCURVE",
"489 90 OFFCURVE",
"489 240 CURVE SMOOTH",
"489 389 OFFCURVE",
"406 486 OFFCURVE",
"282 486 CURVE SMOOTH",
"156 486 OFFCURVE",
"72 386 OFFCURVE",
"72 237 CURVE SMOOTH",
"72 89 OFFCURVE",
"155 -10 OFFCURVE",
"280 -10 CURVE SMOOTH"
);
},
{
closed = 1;
nodes = (
"167 8 OFFCURVE",
"93 101 OFFCURVE",
"93 239 CURVE SMOOTH",
"93 374 OFFCURVE",
"164 468 OFFCURVE",
"279 468 CURVE SMOOTH",
"393 468 OFFCURVE",
"468 378 OFFCURVE",
"468 237 CURVE SMOOTH",
"468 97 OFFCURVE",
"394 8 OFFCURVE",
"282 8 CURVE SMOOTH"
);
}
);
width = 561;
}
);
note = o;
unicode = 006F;
},
{
glyphname = oe;
lastChange = "2017-10-28 15:30:10 +0000";
layers = (
{
anchors = (
{
name = bottom;
position = "{458, 0}";
},
{
name = top;
position = "{458, 482}";
}
);
layerId = "F333AEC5-BB61-4D5E-9EDD-6124322D28F2";
paths = (
{
closed = 1;
nodes = (
"421 -10 OFFCURVE",
"507 93 OFFCURVE",
"507 247 CURVE SMOOTH",
"507 396 OFFCURVE",
"428 492 OFFCURVE",
"291 492 CURVE SMOOTH",
"149 492 OFFCURVE",
"54 390 OFFCURVE",
"54 236 CURVE SMOOTH",
"54 87 OFFCURVE",
"142 -10 OFFCURVE",
"279 -10 CURVE SMOOTH"
);
},
{
closed = 1;
nodes = (
"197 60 OFFCURVE",
"134 135 OFFCURVE",
"134 246 CURVE SMOOTH",
"134 353 OFFCURVE",
"191 422 OFFCURVE",
"280 422 CURVE SMOOTH",
"373 422 OFFCURVE",
"437 346 OFFCURVE",
"437 236 CURVE SMOOTH",
"437 130 OFFCURVE",
"379 60 OFFCURVE",
"290 60 CURVE SMOOTH"
);
},
{
closed = 1;
nodes = (
"738 -10 OFFCURVE",
"785 1 OFFCURVE",
"843 27 CURVE",
"826 83 LINE",
"781 64 OFFCURVE",
"739 55 OFFCURVE",
"700 55 CURVE SMOOTH",
"586 55 OFFCURVE",
"519 130 OFFCURVE",
"519 255 CURVE SMOOTH",
"519 364 OFFCURVE",
"568 424 OFFCURVE",
"656 424 CURVE SMOOTH",
"738 424 OFFCURVE",
"786 371 OFFCURVE",
"786 279 CURVE",
"505 279 LINE",
"505 219 LINE",
"857 219 LINE",
"859 234 OFFCURVE",
"861 269 OFFCURVE",
"861 288 CURVE SMOOTH",
"861 409 OFFCURVE",
"781 492 OFFCURVE",
"662 492 CURVE SMOOTH",
"528 492 OFFCURVE",
"437 388 OFFCURVE",
"437 236 CURVE SMOOTH",
"437 82 OFFCURVE",
"530 -10 OFFCURVE",
"685 -10 CURVE SMOOTH"
);
}
);
width = 915;
},
{
anchors = (
{
name = bottom;
position = "{459, 0}";
},
{
name = top;
position = "{459, 490}";
}
);
layerId = "51C2DFEF-3776-4D13-9284-96485B799B57";
paths = (
{
closed = 1;
nodes = (
"441 -10 OFFCURVE",
"515 104 OFFCURVE",
"515 256 CURVE SMOOTH",
"515 397 OFFCURVE",
"452 500 OFFCURVE",
"302 500 CURVE SMOOTH",
"143 500 OFFCURVE",
"26 384 OFFCURVE",
"26 232 CURVE SMOOTH",
"26 88 OFFCURVE",
"131 -10 OFFCURVE",
"280 -10 CURVE SMOOTH"
);
},
{
closed = 1;
nodes = (
"244 134 OFFCURVE",
"202 176 OFFCURVE",
"202 246 CURVE SMOOTH",
"202 307 OFFCURVE",
"234 356 OFFCURVE",
"287 356 CURVE SMOOTH",
"339 356 OFFCURVE",
"379 310 OFFCURVE",
"379 240 CURVE SMOOTH",
"379 178 OFFCURVE",
"348 134 OFFCURVE",
"295 134 CURVE SMOOTH"
);
},
{
closed = 1;
nodes = (
"714 -10 OFFCURVE",
"781 4 OFFCURVE",
"843 30 CURVE",
"809 149 LINE",
"762 136 OFFCURVE",
"716 129 OFFCURVE",
"674 129 CURVE SMOOTH",
"575 129 OFFCURVE",
"534 166 OFFCURVE",
"534 260 CURVE SMOOTH",
"534 334 OFFCURVE",
"559 370 OFFCURVE",
"610 370 CURVE SMOOTH",
"654 370 OFFCURVE",
"679 344 OFFCURVE",
"679 298 CURVE",
"510 298 LINE",
"510 195 LINE",
"842 195 LINE",
"846 219 OFFCURVE",
"849 247 OFFCURVE",
"849 274 CURVE SMOOTH",
"849 416 OFFCURVE",
"767 500 OFFCURVE",
"623 500 CURVE SMOOTH",
"464 500 OFFCURVE",
"400 397 OFFCURVE",
"400 243 CURVE SMOOTH",
"400 86 OFFCURVE",
"467 -10 OFFCURVE",
"646 -10 CURVE SMOOTH"
);
}
);
width = 887;
},
{
anchors = (
{
name = bottom;
position = "{463, 0}";
},
{
name = top;
position = "{463, 480}";
}
);
layerId = "0B2E441B-685E-400D-9B9B-E078DEED62EF";
paths = (
{
closed = 1;
nodes = (
"405 -10 OFFCURVE",
"487 90 OFFCURVE",
"487 240 CURVE SMOOTH",
"487 389 OFFCURVE",
"406 486 OFFCURVE",
"282 486 CURVE SMOOTH",
"156 486 OFFCURVE",
"72 386 OFFCURVE",
"72 237 CURVE SMOOTH",
"72 89 OFFCURVE",
"155 -10 OFFCURVE",
"280 -10 CURVE SMOOTH"
);
},
{
closed = 1;
nodes = (
"167 8 OFFCURVE",
"93 101 OFFCURVE",
"93 239 CURVE SMOOTH",
"93 374 OFFCURVE",
"164 468 OFFCURVE",
"280 468 CURVE SMOOTH",
"393 468 OFFCURVE",
"468 378 OFFCURVE",
"468 237 CURVE SMOOTH",
"468 97 OFFCURVE",
"394 8 OFFCURVE",
"282 8 CURVE SMOOTH"
);
},
{
closed = 1;
nodes = (
"748 -19 OFFCURVE",
"797 -4 OFFCURVE",
"844 29 CURVE",
"836 41 LINE",
"788 10 OFFCURVE",
"744 -3 OFFCURVE",
"697 -3 CURVE SMOOTH",
"573 -3 OFFCURVE",
"487 87 OFFCURVE",
"487 234 CURVE SMOOTH",
"487 367 OFFCURVE",
"557 459 OFFCURVE",
"669 459 CURVE SMOOTH",
"775 459 OFFCURVE",
"838 375 OFFCURVE",
"838 247 CURVE",
"477 247 LINE",
"477 230 LINE",
"858 230 LINE",
"859 237 OFFCURVE",
"859 242 OFFCURVE",
"859 250 CURVE SMOOTH",
"859 383 OFFCURVE",
"786 477 OFFCURVE",
"670 477 CURVE SMOOTH",
"551 477 OFFCURVE",
"468 377 OFFCURVE",
"468 230 CURVE SMOOTH",
"468 78 OFFCURVE",
"556 -19 OFFCURVE",
"694 -19 CURVE SMOOTH"
);
}
);
width = 924;
}
);
leftMetricsKey = o;
rightMetricsKey = e;
unicode = 0153;
},
{
glyphname = r;
lastChange = "2017-10-28 15:52:51 +0000";
layers = (
{
anchors = (
{
name = bottom;
position = "{125, 0}";
},
{
name = top;
position = "{230, 482}";
}
);
layerId = "F333AEC5-BB61-4D5E-9EDD-6124322D28F2";
paths = (
{
closed = 1;
nodes = (
"166 0 LINE",
"166 370 LINE",
"152 482 LINE",
"86 482 LINE",
"86 0 LINE"
);
},
{
closed = 1;
nodes = (
"177 356 OFFCURVE",
"242 409 OFFCURVE",
"302 409 CURVE SMOOTH",
"319 409 OFFCURVE",
"339 405 OFFCURVE",
"353 400 CURVE",
"370 477 LINE",
"353 483 OFFCURVE",
"331 487 OFFCURVE",
"311 487 CURVE SMOOTH",
"245 487 OFFCURVE",
"182 443 OFFCURVE",
"148 374 CURVE",
"148 283 LINE"
);
}
);
width = 397;
},
{
anchors = (
{
name = bottom;
position = "{127, 0}";
},
{
name = top;
position = "{212, 482}";
}
);
associatedMasterId = "F333AEC5-BB61-4D5E-9EDD-6124322D28F2";
layerId = "198C3889-C046-4B23-B5BC-3ACCF485BAE2";
name = "Aug 11 17, 19:31";
paths = (
{
closed = 1;
nodes = (
"168 0 LINE",
"168 370 LINE",
"154 482 LINE",
"88 482 LINE",
"88 0 LINE"
);
},
{
closed = 1;
nodes = (
"182 381 OFFCURVE",
"238 419 OFFCURVE",
"293 419 CURVE SMOOTH",
"315 419 OFFCURVE",
"345 413 OFFCURVE",
"365 405 CURVE",
"382 480 LINE",
"362 487 OFFCURVE",
"329 492 OFFCURVE",
"304 492 CURVE SMOOTH",
"242 492 OFFCURVE",
"185 461 OFFCURVE",
"150 399 CURVE",
"150 313 LINE"
);
}
);
width = 394;
},
{
anchors = (
{
name = bottom;
position = "{148, 0}";
},
{
name = top;
position = "{225, 490}";
}
);
layerId = "51C2DFEF-3776-4D13-9284-96485B799B57";
paths = (
{
closed = 1;
nodes = (
"234 0 LINE",
"234 349 LINE",
"206 490 LINE",
"61 490 LINE",
"61 0 LINE"
);
},
{
closed = 1;
nodes = (
"232 298 OFFCURVE",
"289 342 OFFCURVE",
"347 342 CURVE SMOOTH",
"370 342 OFFCURVE",
"401 335 OFFCURVE",
"423 325 CURVE",
"450 474 LINE",
"425 487 OFFCURVE",
"396 494 OFFCURVE",
"367 494 CURVE SMOOTH",
"299 494 OFFCURVE",
"238 457 OFFCURVE",
"203 392 CURVE",
"203 232 LINE"
);
}
);
width = 460;
},
{
anchors = (
{
name = bottom;
position = "{112, 0}";
},
{
name = top;
position = "{197, 480}";
}
);
layerId = "0B2E441B-685E-400D-9B9B-E078DEED62EF";
paths = (
{
closed = 1;
nodes = (
"124 0 LINE",
"124 378 LINE",
"120 480 LINE",
"103 480 LINE",
"103 0 LINE"
);
},
{
closed = 1;
nodes = (
"151 422 OFFCURVE",
"201 462 OFFCURVE",
"256 462 CURVE SMOOTH",
"270 462 OFFCURVE",
"286 459 OFFCURVE",
"302 452 CURVE",
"308 470 LINE",
"295 476 OFFCURVE",
"276 480 OFFCURVE",
"258 480 CURVE SMOOTH",
"199 480 OFFCURVE",
"149 442 OFFCURVE",
"116 374 CURVE",
"116 351 LINE"
);
}
);
width = 347;
}
);
note = r;
unicode = 0072;
},
{
glyphname = s;
lastChange = "2017-10-28 15:56:29 +0000";
layers = (
{
anchors = (
{
name = bottom;
position = "{239, 0}";
},
{
name = top;
position = "{234, 482}";
}
);
layerId = "F333AEC5-BB61-4D5E-9EDD-6124322D28F2";
paths = (
{
closed = 1;
nodes = (
"348 -10 OFFCURVE",
"424 48 OFFCURVE",
"424 137 CURVE SMOOTH",
"424 311 OFFCURVE",
"135 254 OFFCURVE",
"135 357 CURVE SMOOTH",
"135 397 OFFCURVE",
"182 424 OFFCURVE",
"253 424 CURVE SMOOTH",
"294 424 OFFCURVE",
"342 415 OFFCURVE",
"383 401 CURVE",
"402 466 LINE",
"361 483 OFFCURVE",
"312 492 OFFCURVE",
"261 492 CURVE SMOOTH",
"136 492 OFFCURVE",
"56 436 OFFCURVE",
"56 348 CURVE SMOOTH",
"56 181 OFFCURVE",
"343 246 OFFCURVE",
"343 127 CURVE SMOOTH",
"343 83 OFFCURVE",
"304 58 OFFCURVE",
"238 58 CURVE SMOOTH",
"188 58 OFFCURVE",
"126 72 OFFCURVE",
"68 95 CURVE",
"49 28 LINE",
"105 4 OFFCURVE",
"173 -10 OFFCURVE",
"231 -10 CURVE SMOOTH"
);
}
);
width = 470;
},
{
associatedMasterId = "F333AEC5-BB61-4D5E-9EDD-6124322D28F2";
layerId = "8AF66680-1C48-45CA-BDE5-584DAE6DFAE0";
name = "Aug 3 17, 22:25";
paths = (
{
closed = 1;
nodes = (
"126 492 OFFCURVE",
"47 434 OFFCURVE",
"47 342 CURVE SMOOTH",
"47 168 OFFCURVE",
"327 237 OFFCURVE",
"327 123 CURVE SMOOTH",
"327 82 OFFCURVE",
"291 60 OFFCURVE",
"230 60 CURVE SMOOTH",
"185 60 OFFCURVE",
"132 72 OFFCURVE",
"91 89 CURVE",
"74 14 LINE",
"115 0 OFFCURVE",
"166 -10 OFFCURVE",
"216 -10 CURVE SMOOTH",
"334 -10 OFFCURVE",
"410 46 OFFCURVE",
"410 137 CURVE SMOOTH",
"410 309 OFFCURVE",
"135 233 OFFCURVE",
"135 355 CURVE SMOOTH",
"135 401 OFFCURVE",
"175 422 OFFCURVE",
"236 422 CURVE SMOOTH",
"284 422 OFFCURVE",
"350 409 OFFCURVE",
"405 384 CURVE",
"422 459 LINE",
"369 479 OFFCURVE",
"305 492 OFFCURVE",
"247 492 CURVE SMOOTH"
);
}
);
width = 466;
},
{
anchors = (
{
name = bottom;
position = "{248, 0}";
},
{
name = top;
position = "{248, 490}";
}
);
layerId = "51C2DFEF-3776-4D13-9284-96485B799B57";
paths = (
{
closed = 1;
nodes = (
"386 -10 OFFCURVE",
"468 47 OFFCURVE",
"468 157 CURVE SMOOTH",
"468 348 OFFCURVE",
"202 292 OFFCURVE",
"202 343 CURVE SMOOTH",
"202 358 OFFCURVE",
"226 367 OFFCURVE",
"267 367 CURVE SMOOTH",
"309 367 OFFCURVE",
"370 358 OFFCURVE",
"410 346 CURVE",
"445 474 LINE",
"393 491 OFFCURVE",
"331 500 OFFCURVE",
"274 500 CURVE SMOOTH",
"123 500 OFFCURVE",
"37 437 OFFCURVE",
"37 327 CURVE SMOOTH",
"37 142 OFFCURVE",
"297 204 OFFCURVE",
"297 147 CURVE SMOOTH",
"297 132 OFFCURVE",
"281 123 OFFCURVE",
"234 123 CURVE SMOOTH",
"183 123 OFFCURVE",
"122 134 OFFCURVE",
"66 153 CURVE",
"31 25 LINE",
"90 3 OFFCURVE",
"157 -10 OFFCURVE",
"230 -10 CURVE SMOOTH"
);
}
);
width = 494;
},
{
anchors = (
{
name = bottom;
position = "{225, 0}";
},
{
name = top;
position = "{235, 480}";
}
);
layerId = "0B2E441B-685E-400D-9B9B-E078DEED62EF";
paths = (
{
closed = 1;
nodes = (
"341 -10 OFFCURVE",
"408 35 OFFCURVE",
"408 116 CURVE SMOOTH",
"408 291 OFFCURVE",
"91 213 OFFCURVE",
"91 361 CURVE SMOOTH",
"91 425 OFFCURVE",
"151 468 OFFCURVE",
"242 468 CURVE SMOOTH",
"292 468 OFFCURVE",
"342 455 OFFCURVE",
"385 433 CURVE",
"392 449 LINE",
"354 472 OFFCURVE",
"298 486 OFFCURVE",
"244 486 CURVE SMOOTH",
"140 486 OFFCURVE",
"70 435 OFFCURVE",
"70 358 CURVE SMOOTH",
"70 194 OFFCURVE",
"387 273 OFFCURVE",
"387 113 CURVE SMOOTH",
"387 45 OFFCURVE",
"331 8 OFFCURVE",
"243 8 CURVE SMOOTH",
"189 8 OFFCURVE",
"127 22 OFFCURVE",
"66 49 CURVE",
"59 33 LINE",
"118 6 OFFCURVE",
"184 -10 OFFCURVE",
"241 -10 CURVE SMOOTH"
);
}
);
width = 469;
}
);
note = s;
unicode = 0073;
},
{
glyphname = germandbls;
lastChange = "2017-10-28 15:11:48 +0000";
layers = (
{
layerId = "F333AEC5-BB61-4D5E-9EDD-6124322D28F2";
paths = (
{
closed = 1;
nodes = (
"481 -10 OFFCURVE",
"561 58 OFFCURVE",
"561 154 CURVE SMOOTH",
"561 302 OFFCURVE",
"371 304 OFFCURVE",
"371 387 CURVE SMOOTH",
"371 451 OFFCURVE",
"485 469 OFFCURVE",
"485 582 CURVE SMOOTH",
"485 679 OFFCURVE",
"402 749 OFFCURVE",
"288 749 CURVE SMOOTH",
"165 749 OFFCURVE",
"86 666 OFFCURVE",
"86 539 CURVE SMOOTH",
"86 0 LINE",
"166 0 LINE",
"166 548 LINE SMOOTH",
"166 633 OFFCURVE",
"206 679 OFFCURVE",
"278 679 CURVE SMOOTH",
"351 679 OFFCURVE",
"405 633 OFFCURVE",
"405 572 CURVE SMOOTH",
"405 483 OFFCURVE",
"292 468 OFFCURVE",
"292 374 CURVE SMOOTH",
"292 253 OFFCURVE",
"481 250 OFFCURVE",
"481 141 CURVE SMOOTH",
"481 94 OFFCURVE",
"437 60 OFFCURVE",
"375 60 CURVE SMOOTH",
"339 60 OFFCURVE",
"293 72 OFFCURVE",
"249 93 CURVE",
"230 26 LINE",
"271 3 OFFCURVE",
"321 -10 OFFCURVE",
"369 -10 CURVE SMOOTH"
);
}
);
width = 602;
},
{
layerId = "51C2DFEF-3776-4D13-9284-96485B799B57";
paths = (
{
closed = 1;
nodes = (
"572 -10 OFFCURVE",
"670 64 OFFCURVE",
"670 175 CURVE SMOOTH",
"670 327 OFFCURVE",
"499 337 OFFCURVE",
"499 396 CURVE SMOOTH",
"499 433 OFFCURVE",
"571 458 OFFCURVE",
"571 556 CURVE SMOOTH",
"571 671 OFFCURVE",
"471 749 OFFCURVE",
"323 749 CURVE SMOOTH",
"166 749 OFFCURVE",
"61 662 OFFCURVE",
"61 531 CURVE SMOOTH",
"61 0 LINE",
"234 0 LINE",
"234 530 LINE SMOOTH",
"234 575 OFFCURVE",
"264 605 OFFCURVE",
"315 605 CURVE SMOOTH",
"355 605 OFFCURVE",
"396 587 OFFCURVE",
"396 542 CURVE SMOOTH",
"396 483 OFFCURVE",
"323 460 OFFCURVE",
"323 381 CURVE SMOOTH",
"323 260 OFFCURVE",
"494 230 OFFCURVE",
"494 171 CURVE SMOOTH",
"494 146 OFFCURVE",
"465 130 OFFCURVE",
"421 130 CURVE SMOOTH",
"388 130 OFFCURVE",
"344 139 OFFCURVE",
"312 152 CURVE",
"277 18 LINE",
"322 0 OFFCURVE",
"372 -10 OFFCURVE",
"425 -10 CURVE SMOOTH"
);
}
);
width = 687;
},
{
layerId = "0B2E441B-685E-400D-9B9B-E078DEED62EF";
paths = (
{
closed = 1;
nodes = (
"453 -10 OFFCURVE",
"519 43 OFFCURVE",
"519 134 CURVE SMOOTH",
"519 289 OFFCURVE",
"329 292 OFFCURVE",
"329 384 CURVE SMOOTH",
"329 455 OFFCURVE",
"443 466 OFFCURVE",
"443 591 CURVE SMOOTH",
"443 686 OFFCURVE",
"376 749 OFFCURVE",
"281 749 CURVE SMOOTH",
"171 749 OFFCURVE",
"103 665 OFFCURVE",
"103 539 CURVE SMOOTH",
"103 0 LINE",
"124 0 LINE",
"124 548 LINE SMOOTH",
"124 658 OFFCURVE",
"182 731 OFFCURVE",
"278 731 CURVE SMOOTH",
"362 731 OFFCURVE",
"423 674 OFFCURVE",
"423 588 CURVE SMOOTH",
"423 470 OFFCURVE",
"308 464 OFFCURVE",
"308 381 CURVE SMOOTH",
"308 275 OFFCURVE",
"498 279 OFFCURVE",
"498 132 CURVE SMOOTH",
"498 53 OFFCURVE",
"444 8 OFFCURVE",
"363 8 CURVE SMOOTH",
"319 8 OFFCURVE",
"269 21 OFFCURVE",
"223 43 CURVE",
"217 26 LINE",
"260 4 OFFCURVE",
"314 -10 OFFCURVE",
"361 -10 CURVE SMOOTH"
);
}
);
width = 577;
}
);
unicode = 00DF;
},
{
glyphname = t;
lastChange = "2017-10-28 15:54:41 +0000";
layers = (
{
anchors = (
{
name = bottom;
position = "{207, 5}";
},
{
name = center;
position = "{178, 246}";
},
{
name = top;
position = "{135, 621}";
},
{
name = topright;
position = "{292, 482}";
}
);
layerId = "F333AEC5-BB61-4D5E-9EDD-6124322D28F2";
paths = (
{
closed = 1;
nodes = (
"271 -5 OFFCURVE",
"301 3 OFFCURVE",
"326 17 CURVE",
"312 73 LINE",
"295 65 OFFCURVE",
"272 60 OFFCURVE",
"253 60 CURVE SMOOTH",
"208 60 OFFCURVE",
"178 92 OFFCURVE",
"178 140 CURVE SMOOTH",
"178 621 LINE",
"98 621 LINE",
"98 129 LINE SMOOTH",
"98 49 OFFCURVE",
"154 -5 OFFCURVE",
"239 -5 CURVE SMOOTH"
);
},
{
closed = 1;
nodes = (
"325 415 LINE",
"325 482 LINE",
"33 482 LINE",
"33 415 LINE"
);
}
);
width = 368;
},
{
associatedMasterId = "F333AEC5-BB61-4D5E-9EDD-6124322D28F2";
layerId = "8DD4D7B4-764D-4C4A-81DC-EA5BCD364777";
name = "Aug 3 17, 20:24";
paths = (
{
closed = 1;
nodes = (
"269 -10 OFFCURVE",
"312 -2 OFFCURVE",
"342 12 CURVE",
"331 69 LINE",
"312 60 OFFCURVE",
"284 55 OFFCURVE",
"261 55 CURVE SMOOTH",
"211 55 OFFCURVE",
"177 79 OFFCURVE",
"177 145 CURVE SMOOTH",
"177 621 LINE",
"97 621 LINE",
"97 134 LINE SMOOTH",
"97 36 OFFCURVE",
"153 -10 OFFCURVE",
"235 -10 CURVE SMOOTH"
);
},
{
closed = 1;
nodes = (
"324 415 LINE",
"324 482 LINE",
"32 482 LINE",
"32 415 LINE"
);
}
);
width = 371;
},
{
anchors = (
{
name = bottom;
position = "{221, 0}";
},
{
name = center;
position = "{205, 247}";
},
{
name = top;
position = "{178, 617}";
},
{
name = topright;
position = "{336, 490}";
}
);
layerId = "51C2DFEF-3776-4D13-9284-96485B799B57";
paths = (
{
closed = 1;
nodes = (
"347 -8 OFFCURVE",
"387 3 OFFCURVE",
"421 20 CURVE",
"390 138 LINE",
"372 133 OFFCURVE",
"351 130 OFFCURVE",
"336 130 CURVE SMOOTH",
"291 130 OFFCURVE",
"261 158 OFFCURVE",
"261 201 CURVE SMOOTH",
"261 617 LINE",
"91 617 LINE",
"91 176 LINE SMOOTH",
"91 66 OFFCURVE",
"174 -8 OFFCURVE",
"298 -8 CURVE SMOOTH"
);
},
{
closed = 1;
nodes = (
"397 355 LINE",
"397 490 LINE",
"13 490 LINE",
"13 355 LINE"
);
}
);
width = 443;
},
{
anchors = (
{
name = bottom;
position = "{204, 0}";
},
{
name = center;
position = "{170, 250}";
},
{
name = top;
position = "{141, 617}";
},
{
name = topright;
position = "{231, 480}";
}
);
layerId = "0B2E441B-685E-400D-9B9B-E078DEED62EF";
paths = (
{
closed = 1;
nodes = (
"256 -3 OFFCURVE",
"280 4 OFFCURVE",
"300 19 CURVE",
"293 32 LINE",
"276 19 OFFCURVE",
"256 14 OFFCURVE",
"237 14 CURVE SMOOTH",
"185 14 OFFCURVE",
"151 51 OFFCURVE",
"151 108 CURVE SMOOTH",
"151 617 LINE",
"130 617 LINE",
"130 103 LINE SMOOTH",
"130 38 OFFCURVE",
"170 -3 OFFCURVE",
"231 -3 CURVE SMOOTH"
);
},
{
closed = 1;
nodes = (
"299 463 LINE",
"299 480 LINE",
"38 480 LINE",
"38 463 LINE"
);
}
);
width = 347;
}
);
note = t;
unicode = 0074;
},
{
glyphname = v;
lastChange = "2017-10-27 16:17:47 +0000";
layers = (
{
anchors = (
{
name = "#ytail";
position = "{252, 0}";
},
{
name = bottom;
position = "{255, 0}";
},
{
name = top;
position = "{255, 482}";
}
);
layerId = "F333AEC5-BB61-4D5E-9EDD-6124322D28F2";
paths = (
{
closed = 1;
nodes = (
"295 0 LINE",
"483 482 LINE",
"403 482 LINE",
"236 16 LINE",
"280 16 LINE",
"116 482 LINE",
"27 482 LINE",
"217 0 LINE"
);
}
);
width = 510;
},
{
anchors = (
{
name = "#ytail";
position = "{279, 0}";
},
{
name = bottom;
position = "{289, 0}";
},
{
name = top;
position = "{289, 490}";
}
);
layerId = "51C2DFEF-3776-4D13-9284-96485B799B57";
paths = (
{
closed = 1;
nodes = (
"383 0 LINE",
"577 490 LINE",
"398 490 LINE",
"280 124 LINE",
"305 124 LINE",
"187 490 LINE",
"1 490 LINE",
"195 0 LINE"
);
}
);
width = 578;
},
{
anchors = (
{
name = "#ytail";
position = "{250, 0}";
},
{
name = bottom;
position = "{249, 0}";
},
{
name = top;
position = "{249, 480}";
}
);
layerId = "0B2E441B-685E-400D-9B9B-E078DEED62EF";
paths = (
{
closed = 1;
nodes = (
"259 0 LINE",
"453 480 LINE",
"432 480 LINE",
"246 14 LINE",
"255 14 LINE",
"67 480 LINE",
"44 480 LINE",
"241 0 LINE"
);
}
);
width = 497;
}
);
note = v;
unicode = 0076;
},
{
glyphname = w;
lastChange = "2017-10-28 15:29:58 +0000";
layers = (
{
anchors = (
{
name = bottom;
position = "{410, 0}";
},
{
name = top;
position = "{410, 482}";
}
);
layerId = "F333AEC5-BB61-4D5E-9EDD-6124322D28F2";
paths = (
{
closed = 1;
nodes = (
"280 0 LINE",
"426 442 LINE",
"393 442 LINE",
"535 0 LINE",
"616 0 LINE",
"792 482 LINE",
"712 482 LINE",
"563 35 LINE",
"596 35 LINE",
"461 482 LINE",
"370 482 LINE",
"229 35 LINE",
"261 35 LINE",
"119 482 LINE",
"28 482 LINE",
"204 0 LINE"
);
}
);
width = 820;
},
{
anchors = (
{
name = bottom;
position = "{435, 0}";
},
{
name = top;
position = "{435, 490}";
}
);
layerId = "51C2DFEF-3776-4D13-9284-96485B799B57";
paths = (
{
closed = 1;
nodes = (
"360 0 LINE",
"461 337 LINE",
"403 337 LINE",
"513 0 LINE",
"702 0 LINE",
"868 490 LINE",
"703 490 LINE",
"583 86 LINE",
"639 86 LINE",
"509 490 LINE",
"366 490 LINE",
"245 76 LINE",
"300 76 LINE",
"180 490 LINE",
"2 490 LINE",
"179 0 LINE"
);
}
);
width = 871;
},
{
anchors = (
{
name = bottom;
position = "{396, 0}";
},
{
name = top;
position = "{396, 480}";
}
);
layerId = "0B2E441B-685E-400D-9B9B-E078DEED62EF";
paths = (
{
closed = 1;
nodes = (
"234 0 LINE",
"397 460 LINE",
"391 460 LINE",
"560 0 LINE",
"574 0 LINE",
"745 480 LINE",
"725 480 LINE",
"565 25 LINE",
"572 25 LINE",
"405 480 LINE",
"384 480 LINE",
"225 25 LINE",
"230 25 LINE",
"67 480 LINE",
"45 480 LINE",
"219 0 LINE"
);
}
);
width = 791;
}
);
note = w;
unicode = 0077;
},
{
glyphname = x;
lastChange = "2017-10-28 15:29:57 +0000";
layers = (
{
anchors = (
{
name = bottom;
position = "{249, 0}";
},
{
name = top;
position = "{249, 482}";
}
);
layerId = "F333AEC5-BB61-4D5E-9EDD-6124322D28F2";
paths = (
{
closed = 1;
nodes = (
"120 0 LINE",
"270 214 LINE",
"473 482 LINE",
"382 482 LINE",
"229 264 LINE",
"29 0 LINE"
);
},
{
closed = 1;
nodes = (
"464 0 LINE",
"266 272 LINE",
"120 482 LINE",
"28 482 LINE",
"223 211 LINE",
"372 0 LINE"
);
}
);
width = 500;
},
{
anchors = (
{
name = bottom;
position = "{281, 0}";
},
{
name = top;
position = "{280, 490}";
}
);
layerId = "51C2DFEF-3776-4D13-9284-96485B799B57";
paths = (
{
closed = 1;
nodes = (
"185 0 LINE",
"329 209 LINE",
"555 490 LINE",
"373 490 LINE",
"230 297 LINE",
"3 0 LINE"
);
},
{
closed = 1;
nodes = (
"558 0 LINE",
"350 268 LINE",
"200 490 LINE",
"1 490 LINE",
"197 228 LINE",
"360 0 LINE"
);
}
);
width = 559;
},
{
anchors = (
{
name = bottom;
position = "{229, 0}";
},
{
name = top;
position = "{227, 480}";
}
);
layerId = "0B2E441B-685E-400D-9B9B-E078DEED62EF";
paths = (
{
closed = 1;
nodes = (
"67 0 LINE",
"230 235 LINE",
"397 480 LINE",
"375 480 LINE",
"220 248 LINE",
"45 0 LINE"
);
},
{
closed = 1;
nodes = (
"404 0 LINE",
"232 244 LINE",
"76 480 LINE",
"52 480 LINE",
"220 229 LINE",
"380 0 LINE"
);
}
);
width = 449;
}
);
note = x;
unicode = 0078;
},
{
glyphname = z;
lastChange = "2017-10-28 15:29:56 +0000";
layers = (
{
anchors = (
{
name = bottom;
position = "{236, 0}";
},
{
name = top;
position = "{236, 482}";
}
);
layerId = "F333AEC5-BB61-4D5E-9EDD-6124322D28F2";
paths = (
{
closed = 1;
nodes = (
"433 0 LINE",
"433 67 LINE",
"121 67 LINE",
"133 49 LINE",
"421 433 LINE",
"421 482 LINE",
"43 482 LINE",
"43 415 LINE",
"342 415 LINE",
"330 433 LINE",
"43 49 LINE",
"43 0 LINE"
);
}
);
width = 473;
},
{
anchors = (
{
name = bottom;
position = "{255, 0}";
},
{
name = top;
position = "{255, 490}";
}
);
layerId = "51C2DFEF-3776-4D13-9284-96485B799B57";
paths = (
{
closed = 1;
nodes = (
"479 0 LINE",
"479 135 LINE",
"177 135 LINE",
"205 80 LINE",
"466 386 LINE",
"466 490 LINE",
"35 490 LINE",
"35 355 LINE",
"324 355 LINE",
"296 411 LINE",
"35 103 LINE",
"35 0 LINE"
);
}
);
width = 509;
},
{
anchors = (
{
name = bottom;
position = "{220, 0}";
},
{
name = top;
position = "{220, 480}";
}
);
layerId = "0B2E441B-685E-400D-9B9B-E078DEED62EF";
paths = (
{
closed = 1;
nodes = (
"396 0 LINE",
"396 17 LINE",
"67 17 LINE",
"69 13 LINE",
"386 464 LINE",
"386 480 LINE",
"48 480 LINE",
"48 463 LINE",
"367 463 LINE",
"365 467 LINE",
"48 15 LINE",
"48 0 LINE"
);
}
);
width = 442;
}
);
note = z;
unicode = 007A;
},
{
glyphname = ordfeminine;
lastChange = "2017-10-28 15:29:59 +0000";
layers = (
{
anchors = (
{
name = bottom;
position = "{217, 412}";
},
{
name = ogonek;
position = "{304, 418}";
},
{
name = top;
position = "{211, 703}";
}
);
layerId = "F333AEC5-BB61-4D5E-9EDD-6124322D28F2";
paths = (
{
closed = 1;
nodes = (
"333 412 LINE",
"333 593 LINE SMOOTH",
"333 665 OFFCURVE",
"288 708 OFFCURVE",
"213 708 CURVE SMOOTH",
"168 708 OFFCURVE",
"120 693 OFFCURVE",
"88 669 CURVE",
"103 628 LINE",
"129 645 OFFCURVE",
"165 656 OFFCURVE",
"198 656 CURVE SMOOTH",
"245 656 OFFCURVE",
"269 633 OFFCURVE",
"269 592 CURVE SMOOTH",
"269 473 LINE",
"279 412 LINE"
);
},
{
closed = 1;
nodes = (
"228 406 OFFCURVE",
"269 430 OFFCURVE",
"304 478 CURVE",
"286 491 LINE",
"259 466 OFFCURVE",
"232 453 OFFCURVE",
"201 453 CURVE SMOOTH",
"167 453 OFFCURVE",
"147 469 OFFCURVE",
"147 494 CURVE SMOOTH",
"147 529 OFFCURVE",
"187 545 OFFCURVE",
"284 545 CURVE",
"284 584 LINE",
"159 584 OFFCURVE",
"83 546 OFFCURVE",
"83 482 CURVE SMOOTH",
"83 437 OFFCURVE",
"121 406 OFFCURVE",
"178 406 CURVE SMOOTH"
);
}
);
userData = {
RMXScaler = {
height = 60;
verticalShift = 412;
weight = -18;
width = 60;
};
};
width = 433;
},
{
anchors = (
{
name = bottom;
position = "{218, 412}";
},
{
name = ogonek;
position = "{313, 418}";
},
{
name = top;
position = "{217, 705}";
}
);
layerId = "51C2DFEF-3776-4D13-9284-96485B799B57";
paths = (
{
closed = 1;
nodes = (
"348 412 LINE",
"348 583 LINE SMOOTH",
"348 665 OFFCURVE",
"297 713 OFFCURVE",
"208 713 CURVE SMOOTH",
"165 713 OFFCURVE",
"125 702 OFFCURVE",
"78 677 CURVE",
"103 604 LINE",
"135 616 OFFCURVE",
"159 621 OFFCURVE",
"185 621 CURVE SMOOTH",
"223 621 OFFCURVE",
"242 610 OFFCURVE",
"242 585 CURVE SMOOTH",
"242 460 LINE",
"267 412 LINE"
);
},
{
closed = 1;
nodes = (
"254 406 OFFCURVE",
"312 462 OFFCURVE",
"322 555 CURVE",
"283 564 LINE",
"285 520 OFFCURVE",
"249 491 OFFCURVE",
"207 491 CURVE SMOOTH",
"188 491 OFFCURVE",
"175 499 OFFCURVE",
"175 510 CURVE SMOOTH",
"175 525 OFFCURVE",
"196 528 OFFCURVE",
"259 528 CURVE",
"259 598 LINE",
"141 598 OFFCURVE",
"69 557 OFFCURVE",
"69 491 CURVE SMOOTH",
"69 440 OFFCURVE",
"111 406 OFFCURVE",
"173 406 CURVE SMOOTH"
);
}
);
userData = {
RMXScaler = {
height = 60;
verticalShift = 412;
weight = -65;
width = 60;
};
};
width = 430;
},
{
anchors = (
{
name = bottom;
position = "{218, 412}";
},
{
name = ogonek;
position = "{309, 418}";
},
{
name = top;
position = "{207, 700}";
}
);
layerId = "0B2E441B-685E-400D-9B9B-E078DEED62EF";
paths = (
{
closed = 1;
nodes = (
"315 412 LINE",
"315 607 LINE SMOOTH",
"315 669 OFFCURVE",
"278 704 OFFCURVE",
"215 704 CURVE SMOOTH",
"175 704 OFFCURVE",
"134 690 OFFCURVE",
"105 668 CURVE",
"110 656 LINE",
"139 677 OFFCURVE",
"174 688 OFFCURVE",
"210 688 CURVE SMOOTH",
"267 688 OFFCURVE",
"296 659 OFFCURVE",
"296 605 CURVE SMOOTH",
"296 453 LINE",
"300 412 LINE"
);
},
{
closed = 1;
nodes = (
"240 406 OFFCURVE",
"281 428 OFFCURVE",
"307 463 CURVE",
"304 473 LINE",
"275 440 OFFCURVE",
"241 422 OFFCURVE",
"198 422 CURVE SMOOTH",
"149 422 OFFCURVE",
"119 445 OFFCURVE",
"119 481 CURVE SMOOTH",
"119 533 OFFCURVE",
"178 558 OFFCURVE",
"301 558 CURVE",
"301 573 LINE",
"172 573 OFFCURVE",
"101 540 OFFCURVE",
"101 478 CURVE SMOOTH",
"101 435 OFFCURVE",
"137 406 OFFCURVE",
"192 406 CURVE SMOOTH"
);
}
);
userData = {
RMXScaler = {
height = 60;
verticalShift = 412;
weight = -2;
width = 60;
};
};
width = 438;
}
);
unicode = 00AA;
userData = {
RMXScaler = {
source = a;
};
};
},
{
glyphname = ordmasculine;
lastChange = "2017-10-28 15:29:57 +0000";
layers = (
{
anchors = (
{
name = "#exit";
position = "{317, 554}";
},
{
name = bottom;
position = "{204, 412}";
},
{
name = center;
position = "{204, 558}";
},
{
name = ogonek;
position = "{225, 418}";
},
{
name = top;
position = "{202, 703}";
},
{
name = topright;
position = "{340, 703}";
}
);
layerId = "F333AEC5-BB61-4D5E-9EDD-6124322D28F2";
paths = (
{
closed = 1;
nodes = (
"287 406 OFFCURVE",
"347 471 OFFCURVE",
"347 561 CURVE SMOOTH",
"347 648 OFFCURVE",
"291 708 OFFCURVE",
"208 708 CURVE SMOOTH",
"122 708 OFFCURVE",
"60 643 OFFCURVE",
"60 552 CURVE SMOOTH",
"60 465 OFFCURVE",
"117 406 OFFCURVE",
"200 406 CURVE SMOOTH"
);
},
{
closed = 1;
nodes = (
"158 459 OFFCURVE",
"124 497 OFFCURVE",
"124 558 CURVE SMOOTH",
"124 614 OFFCURVE",
"154 656 OFFCURVE",
"202 656 CURVE SMOOTH",
"250 656 OFFCURVE",
"283 616 OFFCURVE",
"283 555 CURVE SMOOTH",
"283 497 OFFCURVE",
"253 459 OFFCURVE",
"206 459 CURVE SMOOTH"
);
}
);
userData = {
RMXScaler = {
height = 60;
verticalShift = 412;
weight = -18;
width = 60;
};
};
width = 408;
},
{
anchors = (
{
name = "#exit";
position = "{331, 554}";
},
{
name = bottom;
position = "{223, 412}";
},
{
name = center;
position = "{223, 558}";
},
{
name = ogonek;
position = "{264, 418}";
},
{
name = top;
position = "{227, 705}";
},
{
name = topright;
position = "{365, 705}";
}
);
layerId = "51C2DFEF-3776-4D13-9284-96485B799B57";
paths = (
{
closed = 1;
nodes = (
"314 406 OFFCURVE",
"383 473 OFFCURVE",
"383 566 CURVE SMOOTH",
"383 653 OFFCURVE",
"322 712 OFFCURVE",
"230 712 CURVE SMOOTH",
"132 712 OFFCURVE",
"63 646 OFFCURVE",
"63 552 CURVE SMOOTH",
"63 464 OFFCURVE",
"124 406 OFFCURVE",
"215 406 CURVE SMOOTH"
);
},
{
closed = 1;
nodes = (
"195 495 OFFCURVE",
"168 522 OFFCURVE",
"168 563 CURVE SMOOTH",
"168 600 OFFCURVE",
"188 623 OFFCURVE",
"218 623 CURVE SMOOTH",
"252 623 OFFCURVE",
"277 594 OFFCURVE",
"277 554 CURVE SMOOTH",
"277 520 OFFCURVE",
"258 495 OFFCURVE",
"227 495 CURVE SMOOTH"
);
}
);
userData = {
RMXScaler = {
height = 60;
verticalShift = 412;
weight = -66;
width = 60;
};
};
width = 447;
},
{
anchors = (
{
name = "#exit";
position = "{376, 554}";
},
{
name = bottom;
position = "{259, 412}";
},
{
name = center;
position = "{259, 556}";
},
{
name = ogonek;
position = "{300, 418}";
},
{
name = top;
position = "{255, 700}";
},
{
name = topright;
position = "{357, 700}";
}
);
layerId = "0B2E441B-685E-400D-9B9B-E078DEED62EF";
paths = (
{
closed = 1;
nodes = (
"334 406 OFFCURVE",
"386 466 OFFCURVE",
"386 557 CURVE SMOOTH",
"386 646 OFFCURVE",
"335 704 OFFCURVE",
"260 704 CURVE SMOOTH",
"183 704 OFFCURVE",
"131 644 OFFCURVE",
"131 554 CURVE SMOOTH",
"131 465 OFFCURVE",
"181 406 OFFCURVE",
"258 406 CURVE SMOOTH"
);
},
{
closed = 1;
nodes = (
"193 422 OFFCURVE",
"150 476 OFFCURVE",
"150 556 CURVE SMOOTH",
"150 634 OFFCURVE",
"191 688 OFFCURVE",
"257 688 CURVE SMOOTH",
"323 688 OFFCURVE",
"367 636 OFFCURVE",
"367 554 CURVE SMOOTH",
"367 474 OFFCURVE",
"325 422 OFFCURVE",
"260 422 CURVE SMOOTH"
);
}
);
userData = {
RMXScaler = {
height = 60;
verticalShift = 412;
weight = -2;
width = 60;
};
};
width = 517;
}
);
unicode = 00BA;
userData = {
RMXScaler = {
source = o;
};
};
},
{
glyphname = pi;
lastChange = "2017-10-28 15:29:59 +0000";
layers = (
{
layerId = "F333AEC5-BB61-4D5E-9EDD-6124322D28F2";
paths = (
{
closed = 1;
nodes = (
"536 -10 OFFCURVE",
"562 -2 OFFCURVE",
"581 7 CURVE",
"567 63 LINE",
"558 59 OFFCURVE",
"546 55 OFFCURVE",
"533 55 CURVE SMOOTH",
"502 55 OFFCURVE",
"485 77 OFFCURVE",
"485 124 CURVE SMOOTH",
"485 425 LINE",
"405 425 LINE",
"405 114 LINE SMOOTH",
"405 34 OFFCURVE",
"446 -10 OFFCURVE",
"509 -10 CURVE SMOOTH"
);
},
{
closed = 1;
nodes = (
"189 0 LINE",
"189 425 LINE",
"109 425 LINE",
"109 0 LINE"
);
},
{
closed = 1;
nodes = (
"564 415 LINE",
"564 482 LINE",
"29 482 LINE",
"29 415 LINE"
);
}
);
width = 617;
},
{
layerId = "51C2DFEF-3776-4D13-9284-96485B799B57";
paths = (
{
closed = 1;
nodes = (
"613 -8 OFFCURVE",
"649 1 OFFCURVE",
"690 21 CURVE",
"661 139 LINE",
"643 134 OFFCURVE",
"627 130 OFFCURVE",
"614 130 CURVE SMOOTH",
"581 130 OFFCURVE",
"563 157 OFFCURVE",
"563 201 CURVE SMOOTH",
"563 425 LINE",
"390 425 LINE",
"390 182 LINE SMOOTH",
"390 63 OFFCURVE",
"456 -8 OFFCURVE",
"572 -8 CURVE SMOOTH"
);
},
{
closed = 1;
nodes = (
"280 0 LINE",
"280 425 LINE",
"107 425 LINE",
"107 0 LINE"
);
},
{
closed = 1;
nodes = (
"668 355 LINE",
"668 490 LINE",
"13 490 LINE",
"13 355 LINE"
);
}
);
width = 713;
},
{
layerId = "0B2E441B-685E-400D-9B9B-E078DEED62EF";
paths = (
{
closed = 1;
nodes = (
"491 -10 OFFCURVE",
"509 -5 OFFCURVE",
"524 4 CURVE",
"521 17 LINE",
"507 11 OFFCURVE",
"489 7 OFFCURVE",
"475 7 CURVE SMOOTH",
"451 7 OFFCURVE",
"435 30 OFFCURVE",
"435 64 CURVE SMOOTH",
"435 471 LINE",
"414 471 LINE",
"414 64 LINE SMOOTH",
"414 20 OFFCURVE",
"438 -10 OFFCURVE",
"473 -10 CURVE SMOOTH"
);
},
{
closed = 1;
nodes = (
"139 0 LINE",
"139 471 LINE",
"118 471 LINE",
"118 0 LINE"
);
},
{
closed = 1;
nodes = (
"513 463 LINE",
"513 480 LINE",
"38 480 LINE",
"38 463 LINE"
);
}
);
width = 568;
}
);
unicode = 03C0;
},
{
glyphname = zero;
lastChange = "2017-10-28 15:58:01 +0000";
layers = (
{
anchors = (
{
name = slash;
position = "{321, 350}";
}
);
layerId = "F333AEC5-BB61-4D5E-9EDD-6124322D28F2";
paths = (
{
closed = 1;
nodes = (
"476 -10 OFFCURVE",
"570 125 OFFCURVE",
"570 352 CURVE SMOOTH",
"570 573 OFFCURVE",
"479 704 OFFCURVE",
"326 704 CURVE SMOOTH",
"166 704 OFFCURVE",
"71 570 OFFCURVE",
"71 342 CURVE SMOOTH",
"71 121 OFFCURVE",
"163 -10 OFFCURVE",
"318 -10 CURVE SMOOTH"
);
},
{
closed = 1;
nodes = (
"219 62 OFFCURVE",
"156 170 OFFCURVE",
"156 352 CURVE SMOOTH",
"156 528 OFFCURVE",
"217 632 OFFCURVE",
"319 632 CURVE SMOOTH",
"423 632 OFFCURVE",
"485 524 OFFCURVE",
"485 342 CURVE SMOOTH",
"485 166 OFFCURVE",
"426 62 OFFCURVE",
"325 62 CURVE SMOOTH"
);
}
);
width = 641;
},
{
anchors = (
{
name = slash;
position = "{335, 345}";
}
);
layerId = "51C2DFEF-3776-4D13-9284-96485B799B57";
paths = (
{
closed = 1;
nodes = (
"510 -10 OFFCURVE",
"630 134 OFFCURVE",
"630 351 CURVE SMOOTH",
"630 563 OFFCURVE",
"512 704 OFFCURVE",
"336 704 CURVE SMOOTH",
"156 704 OFFCURVE",
"36 560 OFFCURVE",
"36 344 CURVE SMOOTH",
"36 132 OFFCURVE",
"154 -10 OFFCURVE",
"331 -10 CURVE SMOOTH"
);
},
{
closed = 1;
nodes = (
"262 138 OFFCURVE",
"214 223 OFFCURVE",
"214 350 CURVE SMOOTH",
"214 474 OFFCURVE",
"261 556 OFFCURVE",
"332 556 CURVE SMOOTH",
"404 556 OFFCURVE",
"452 471 OFFCURVE",
"452 343 CURVE SMOOTH",
"452 220 OFFCURVE",
"405 138 OFFCURVE",
"335 138 CURVE SMOOTH"
);
}
);
width = 666;
},
{
anchors = (
{
name = slash;
position = "{322, 350}";
}
);
layerId = "0B2E441B-685E-400D-9B9B-E078DEED62EF";
paths = (
{
closed = 1;
nodes = (
"447 -10 OFFCURVE",
"536 131 OFFCURVE",
"536 343 CURVE SMOOTH",
"536 556 OFFCURVE",
"448 699 OFFCURVE",
"317 699 CURVE SMOOTH",
"181 699 OFFCURVE",
"91 555 OFFCURVE",
"91 340 CURVE SMOOTH",
"91 130 OFFCURVE",
"180 -10 OFFCURVE",
"313 -10 CURVE SMOOTH"
);
},
{
closed = 1;
nodes = (
"194 8 OFFCURVE",
"112 142 OFFCURVE",
"112 343 CURVE SMOOTH",
"112 546 OFFCURVE",
"193 681 OFFCURVE",
"314 681 CURVE SMOOTH",
"435 681 OFFCURVE",
"515 544 OFFCURVE",
"515 340 CURVE SMOOTH",
"515 141 OFFCURVE",
"435 8 OFFCURVE",
"316 8 CURVE SMOOTH"
);
}
);
width = 627;
}
);
note = zero;
unicode = 0030;
},
{
glyphname = one;
lastChange = "2017-10-28 15:29:58 +0000";
layers = (
{
layerId = "F333AEC5-BB61-4D5E-9EDD-6124322D28F2";
paths = (
{
closed = 1;
nodes = (
"321 55 LINE",
"321 694 LINE",
"269 694 LINE",
"49 565 LINE",
"79 508 LINE",
"266 608 LINE",
"236 635 LINE",
"236 55 LINE"
);
},
{
closed = 1;
nodes = (
"473 0 LINE",
"473 71 LINE",
"60 71 LINE",
"60 0 LINE"
);
}
);
width = 515;
},
{
layerId = "51C2DFEF-3776-4D13-9284-96485B799B57";
paths = (
{
closed = 1;
nodes = (
"404 131 LINE",
"404 694 LINE",
"278 694 LINE",
"21 547 LINE",
"81 429 LINE",
"287 537 LINE",
"230 569 LINE",
"230 131 LINE"
);
},
{
closed = 1;
nodes = (
"565 0 LINE",
"565 151 LINE",
"53 151 LINE",
"53 0 LINE"
);
}
);
width = 584;
},
{
layerId = "0B2E441B-685E-400D-9B9B-E078DEED62EF";
paths = (
{
closed = 1;
nodes = (
"279 7 LINE",
"279 694 LINE",
"268 694 LINE",
"63 565 LINE",
"72 551 LINE",
"268 673 LINE",
"260 677 LINE",
"260 7 LINE"
);
},
{
closed = 1;
nodes = (
"447 0 LINE",
"447 17 LINE",
"73 17 LINE",
"73 0 LINE"
);
}
);
width = 504;
}
);
note = one;
unicode = 0031;
},
{
glyphname = two;
lastChange = "2017-10-28 15:58:29 +0000";
layers = (
{
layerId = "F333AEC5-BB61-4D5E-9EDD-6124322D28F2";
paths = (
{
closed = 1;
nodes = (
"506 0 LINE",
"506 72 LINE",
"145 72 LINE",
"153 48 LINE",
"383 264 OFFCURVE",
"476 383 OFFCURVE",
"476 509 CURVE SMOOTH",
"476 631 OFFCURVE",
"396 704 OFFCURVE",
"261 704 CURVE SMOOTH",
"188 704 OFFCURVE",
"110 682 OFFCURVE",
"48 644 CURVE",
"69 586 LINE",
"123 614 OFFCURVE",
"185 631 OFFCURVE",
"238 631 CURVE SMOOTH",
"332 631 OFFCURVE",
"391 579 OFFCURVE",
"391 495 CURVE SMOOTH",
"391 397 OFFCURVE",
"312 291 OFFCURVE",
"61 55 CURVE",
"61 0 LINE"
);
}
);
width = 559;
},
{
layerId = "51C2DFEF-3776-4D13-9284-96485B799B57";
paths = (
{
closed = 1;
nodes = (
"541 0 LINE",
"541 150 LINE",
"256 150 LINE",
"256 109 LINE",
"423 215 OFFCURVE",
"523 342 OFFCURVE",
"523 479 CURVE SMOOTH",
"523 615 OFFCURVE",
"424 704 OFFCURVE",
"261 704 CURVE SMOOTH",
"178 704 OFFCURVE",
"94 681 OFFCURVE",
"21 641 CURVE",
"67 516 LINE",
"129 545 OFFCURVE",
"175 556 OFFCURVE",
"220 556 CURVE SMOOTH",
"301 556 OFFCURVE",
"343 521 OFFCURVE",
"343 458 CURVE SMOOTH",
"343 378 OFFCURVE",
"275 299 OFFCURVE",
"51 109 CURVE",
"51 0 LINE"
);
}
);
width = 577;
},
{
layerId = "0B2E441B-685E-400D-9B9B-E078DEED62EF";
paths = (
{
closed = 1;
nodes = (
"481 0 LINE",
"481 17 LINE",
"85 17 LINE",
"89 10 LINE",
"386 311 OFFCURVE",
"453 402 OFFCURVE",
"453 507 CURVE SMOOTH",
"453 627 OFFCURVE",
"367 704 OFFCURVE",
"245 704 CURVE SMOOTH",
"180 704 OFFCURVE",
"117 682 OFFCURVE",
"63 647 CURVE",
"71 634 LINE",
"133 668 OFFCURVE",
"184 686 OFFCURVE",
"241 686 CURVE SMOOTH",
"355 686 OFFCURVE",
"432 615 OFFCURVE",
"432 504 CURVE SMOOTH",
"432 407 OFFCURVE",
"372 320 OFFCURVE",
"65 8 CURVE",
"65 0 LINE"
);
}
);
width = 549;
}
);
note = two;
unicode = 0032;
},
{
glyphname = three;
lastChange = "2017-10-28 13:10:19 +0000";
layers = (
{
layerId = "F333AEC5-BB61-4D5E-9EDD-6124322D28F2";
paths = (
{
closed = 1;
nodes = (
"414 -10 OFFCURVE",
"517 68 OFFCURVE",
"517 182 CURVE SMOOTH",
"517 284 OFFCURVE",
"437 361 OFFCURVE",
"319 373 CURVE",
"318 358 LINE",
"414 361 OFFCURVE",
"480 436 OFFCURVE",
"480 527 CURVE SMOOTH",
"480 632 OFFCURVE",
"394 704 OFFCURVE",
"269 704 CURVE SMOOTH",
"201 704 OFFCURVE",
"125 682 OFFCURVE",
"64 646 CURVE",
"85 588 LINE",
"143 616 OFFCURVE",
"202 631 OFFCURVE",
"252 631 CURVE SMOOTH",
"339 631 OFFCURVE",
"395 585 OFFCURVE",
"395 514 CURVE SMOOTH",
"395 432 OFFCURVE",
"319 386 OFFCURVE",
"182 386 CURVE",
"182 318 LINE",
"339 318 OFFCURVE",
"432 265 OFFCURVE",
"432 175 CURVE SMOOTH",
"432 105 OFFCURVE",
"373 63 OFFCURVE",
"272 63 CURVE SMOOTH",
"205 63 OFFCURVE",
"134 80 OFFCURVE",
"72 112 CURVE",
"48 43 LINE",
"113 9 OFFCURVE",
"190 -10 OFFCURVE",
"264 -10 CURVE SMOOTH"
);
}
);
width = 576;
},
{
layerId = "51C2DFEF-3776-4D13-9284-96485B799B57";
paths = (
{
closed = 1;
nodes = (
"433 -10 OFFCURVE",
"545 72 OFFCURVE",
"545 195 CURVE SMOOTH",
"545 290 OFFCURVE",
"477 360 OFFCURVE",
"375 370 CURVE",
"348 353 LINE",
"446 359 OFFCURVE",
"507 422 OFFCURVE",
"507 518 CURVE SMOOTH",
"507 634 OFFCURVE",
"417 704 OFFCURVE",
"269 704 CURVE SMOOTH",
"187 704 OFFCURVE",
"104 682 OFFCURVE",
"31 641 CURVE",
"77 516 LINE",
"136 543 OFFCURVE",
"186 556 OFFCURVE",
"230 556 CURVE SMOOTH",
"290 556 OFFCURVE",
"327 532 OFFCURVE",
"327 494 CURVE SMOOTH",
"327 445 OFFCURVE",
"266 415 OFFCURVE",
"161 415 CURVE",
"161 277 LINE",
"292 277 OFFCURVE",
"365 247 OFFCURVE",
"365 196 CURVE SMOOTH",
"365 161 OFFCURVE",
"322 138 OFFCURVE",
"251 138 CURVE SMOOTH",
"195 138 OFFCURVE",
"127 152 OFFCURVE",
"72 174 CURVE",
"24 37 LINE",
"101 4 OFFCURVE",
"169 -10 OFFCURVE",
"247 -10 CURVE SMOOTH"
);
}
);
width = 574;
},
{
layerId = "0B2E441B-685E-400D-9B9B-E078DEED62EF";
paths = (
{
closed = 1;
nodes = (
"410 -10 OFFCURVE",
"496 61 OFFCURVE",
"496 170 CURVE SMOOTH",
"496 273 OFFCURVE",
"419 337 OFFCURVE",
"273 356 CURVE",
"273 352 LINE",
"385 359 OFFCURVE",
"459 429 OFFCURVE",
"459 528 CURVE SMOOTH",
"459 632 OFFCURVE",
"379 704 OFFCURVE",
"263 704 CURVE SMOOTH",
"198 704 OFFCURVE",
"131 682 OFFCURVE",
"79 644 CURVE",
"89 631 LINE",
"144 667 OFFCURVE",
"202 686 OFFCURVE",
"262 686 CURVE SMOOTH",
"369 686 OFFCURVE",
"438 624 OFFCURVE",
"438 524 CURVE SMOOTH",
"438 416 OFFCURVE",
"356 361 OFFCURVE",
"195 361 CURVE",
"195 344 LINE",
"374 344 OFFCURVE",
"476 281 OFFCURVE",
"476 168 CURVE SMOOTH",
"476 70 OFFCURVE",
"400 9 OFFCURVE",
"278 9 CURVE SMOOTH",
"210 9 OFFCURVE",
"125 28 OFFCURVE",
"69 56 CURVE",
"63 40 LINE",
"121 10 OFFCURVE",
"206 -10 OFFCURVE",
"277 -10 CURVE SMOOTH"
);
}
);
width = 575;
}
);
note = three;
unicode = 0033;
},
{
glyphname = four;
lastChange = "2017-10-28 15:29:58 +0000";
layers = (
{
layerId = "F333AEC5-BB61-4D5E-9EDD-6124322D28F2";
paths = (
{
closed = 1;
nodes = (
"466 -10 LINE",
"466 694 LINE",
"404 694 LINE",
"44 206 LINE",
"44 161 LINE",
"591 161 LINE",
"591 236 LINE",
"130 236 LINE",
"130 214 LINE",
"391 567 LINE",
"383 567 LINE",
"383 -10 LINE"
);
}
);
width = 636;
},
{
layerId = "51C2DFEF-3776-4D13-9284-96485B799B57";
paths = (
{
closed = 1;
nodes = (
"520 -5 LINE",
"520 694 LINE",
"354 694 LINE",
"24 281 LINE",
"24 131 LINE",
"617 131 LINE",
"617 281 LINE",
"99 283 LINE",
"138 224 LINE",
"389 546 LINE",
"346 583 LINE",
"346 -5 LINE"
);
}
);
width = 640;
},
{
layerId = "0B2E441B-685E-400D-9B9B-E078DEED62EF";
paths = (
{
closed = 1;
nodes = (
"428 -10 LINE",
"428 694 LINE",
"414 694 LINE",
"61 200 LINE",
"61 190 LINE",
"547 190 LINE",
"547 207 LINE",
"83 207 LINE",
"83 202 LINE",
"412 662 LINE",
"409 665 LINE",
"409 -10 LINE"
);
}
);
width = 607;
}
);
note = four;
unicode = 0034;
},
{
glyphname = five;
lastChange = "2017-10-28 15:29:58 +0000";
layers = (
{
layerId = "F333AEC5-BB61-4D5E-9EDD-6124322D28F2";
paths = (
{
closed = 1;
nodes = (
"410 -10 OFFCURVE",
"513 77 OFFCURVE",
"513 215 CURVE SMOOTH",
"513 346 OFFCURVE",
"420 427 OFFCURVE",
"264 427 CURVE SMOOTH",
"229 427 OFFCURVE",
"191 423 OFFCURVE",
"153 415 CURVE",
"172 389 LINE",
"183 622 LINE",
"480 622 LINE",
"480 694 LINE",
"108 694 LINE",
"91 338 LINE",
"142 349 OFFCURVE",
"197 355 OFFCURVE",
"236 355 CURVE SMOOTH",
"358 355 OFFCURVE",
"428 298 OFFCURVE",
"428 205 CURVE SMOOTH",
"428 116 OFFCURVE",
"364 63 OFFCURVE",
"262 63 CURVE SMOOTH",
"202 63 OFFCURVE",
"137 81 OFFCURVE",
"82 109 CURVE",
"58 40 LINE",
"121 7 OFFCURVE",
"185 -10 OFFCURVE",
"254 -10 CURVE SMOOTH"
);
}
);
width = 573;
},
{
layerId = "51C2DFEF-3776-4D13-9284-96485B799B57";
paths = (
{
closed = 1;
nodes = (
"429 -10 OFFCURVE",
"543 77 OFFCURVE",
"543 221 CURVE SMOOTH",
"543 356 OFFCURVE",
"444 435 OFFCURVE",
"276 435 CURVE SMOOTH",
"238 435 OFFCURVE",
"200 431 OFFCURVE",
"168 423 CURVE",
"249 354 LINE",
"256 543 LINE",
"505 543 LINE",
"505 694 LINE",
"87 694 LINE",
"69 275 LINE",
"115 284 OFFCURVE",
"173 289 OFFCURVE",
"213 289 CURVE SMOOTH",
"309 289 OFFCURVE",
"363 259 OFFCURVE",
"363 207 CURVE SMOOTH",
"363 163 OFFCURVE",
"326 140 OFFCURVE",
"249 140 CURVE SMOOTH",
"194 140 OFFCURVE",
"132 152 OFFCURVE",
"75 173 CURVE",
"27 34 LINE",
"94 6 OFFCURVE",
"169 -10 OFFCURVE",
"247 -10 CURVE SMOOTH"
);
}
);
width = 575;
},
{
layerId = "0B2E441B-685E-400D-9B9B-E078DEED62EF";
paths = (
{
closed = 1;
nodes = (
"401 -10 OFFCURVE",
"487 80 OFFCURVE",
"487 203 CURVE SMOOTH",
"487 326 OFFCURVE",
"400 403 OFFCURVE",
"255 403 CURVE SMOOTH",
"218 403 OFFCURVE",
"168 398 OFFCURVE",
"118 388 CURVE",
"130 384 LINE",
"143 677 LINE",
"462 677 LINE",
"462 694 LINE",
"125 694 LINE",
"109 369 LINE",
"155 379 OFFCURVE",
"207 385 OFFCURVE",
"248 385 CURVE SMOOTH",
"392 385 OFFCURVE",
"466 310 OFFCURVE",
"466 201 CURVE SMOOTH",
"466 88 OFFCURVE",
"388 9 OFFCURVE",
"267 9 CURVE SMOOTH",
"209 9 OFFCURVE",
"136 27 OFFCURVE",
"80 57 CURVE",
"73 40 LINE",
"133 8 OFFCURVE",
"201 -10 OFFCURVE",
"263 -10 CURVE SMOOTH"
);
}
);
width = 564;
}
);
note = five;
unicode = 0035;
},
{
glyphname = six;
lastChange = "2017-10-28 16:02:22 +0000";
layers = (
{
layerId = "F333AEC5-BB61-4D5E-9EDD-6124322D28F2";
paths = (
{
closed = 1;
nodes = (
"450 -10 OFFCURVE",
"543 80 OFFCURVE",
"543 213 CURVE SMOOTH",
"543 338 OFFCURVE",
"461 424 OFFCURVE",
"341 424 CURVE SMOOTH",
"240 424 OFFCURVE",
"160 364 OFFCURVE",
"114 256 CURVE",
"136 213 LINE",
"170 302 OFFCURVE",
"233 352 OFFCURVE",
"312 352 CURVE SMOOTH",
"399 352 OFFCURVE",
"458 291 OFFCURVE",
"458 199 CURVE SMOOTH",
"458 115 OFFCURVE",
"409 63 OFFCURVE",
"328 63 CURVE SMOOTH",
"219 63 OFFCURVE",
"159 159 OFFCURVE",
"159 334 CURVE SMOOTH",
"159 535 OFFCURVE",
"236 631 OFFCURVE",
"365 631 CURVE SMOOTH",
"407 631 OFFCURVE",
"465 620 OFFCURVE",
"509 604 CURVE",
"532 671 LINE",
"492 692 OFFCURVE",
"431 704 OFFCURVE",
"374 704 CURVE SMOOTH",
"185 704 OFFCURVE",
"69 567 OFFCURVE",
"69 328 CURVE SMOOTH",
"69 110 OFFCURVE",
"166 -10 OFFCURVE",
"318 -10 CURVE SMOOTH"
);
}
);
width = 606;
},
{
layerId = "51C2DFEF-3776-4D13-9284-96485B799B57";
paths = (
{
closed = 1;
nodes = (
"463 -10 OFFCURVE",
"566 87 OFFCURVE",
"566 232 CURVE SMOOTH",
"566 362 OFFCURVE",
"486 449 OFFCURVE",
"366 449 CURVE SMOOTH",
"276 449 OFFCURVE",
"206 399 OFFCURVE",
"167 305 CURVE",
"210 245 LINE",
"236 280 OFFCURVE",
"274 301 OFFCURVE",
"312 301 CURVE SMOOTH",
"359 301 OFFCURVE",
"390 268 OFFCURVE",
"390 219 CURVE SMOOTH",
"390 170 OFFCURVE",
"361 138 OFFCURVE",
"319 138 CURVE SMOOTH",
"255 138 OFFCURVE",
"219 211 OFFCURVE",
"219 338 CURVE SMOOTH",
"219 491 OFFCURVE",
"266 556 OFFCURVE",
"375 556 CURVE SMOOTH",
"418 556 OFFCURVE",
"470 546 OFFCURVE",
"510 529 CURVE",
"552 668 LINE",
"503 690 OFFCURVE",
"432 704 OFFCURVE",
"367 704 CURVE SMOOTH",
"159 704 OFFCURVE",
"38 563 OFFCURVE",
"38 322 CURVE SMOOTH",
"38 110 OFFCURVE",
"136 -10 OFFCURVE",
"308 -10 CURVE SMOOTH"
);
}
);
width = 601;
},
{
layerId = "0B2E441B-685E-400D-9B9B-E078DEED62EF";
paths = (
{
closed = 1;
nodes = (
"433 -10 OFFCURVE",
"514 77 OFFCURVE",
"514 206 CURVE SMOOTH",
"514 333 OFFCURVE",
"435 420 OFFCURVE",
"318 420 CURVE SMOOTH",
"223 420 OFFCURVE",
"148 361 OFFCURVE",
"103 250 CURVE",
"103 219 LINE",
"147 337 OFFCURVE",
"222 402 OFFCURVE",
"316 402 CURVE SMOOTH",
"420 402 OFFCURVE",
"493 322 OFFCURVE",
"493 203 CURVE SMOOTH",
"493 86 OFFCURVE",
"422 8 OFFCURVE",
"316 8 CURVE SMOOTH",
"187 8 OFFCURVE",
"112 125 OFFCURVE",
"112 322 CURVE SMOOTH",
"112 544 OFFCURVE",
"211 686 OFFCURVE",
"365 686 CURVE SMOOTH",
"412 686 OFFCURVE",
"465 674 OFFCURVE",
"490 660 CURVE",
"496 677 LINE",
"464 694 OFFCURVE",
"418 704 OFFCURVE",
"372 704 CURVE SMOOTH",
"200 704 OFFCURVE",
"91 555 OFFCURVE",
"91 319 CURVE SMOOTH",
"91 113 OFFCURVE",
"174 -10 OFFCURVE",
"315 -10 CURVE SMOOTH"
);
}
);
width = 594;
}
);
note = six;
unicode = 0036;
},
{
glyphname = seven;
lastChange = "2017-10-28 15:29:59 +0000";
layers = (
{
layerId = "F333AEC5-BB61-4D5E-9EDD-6124322D28F2";
paths = (
{
closed = 1;
nodes = (
"218 0 LINE",
"506 654 LINE",
"506 694 LINE",
"41 694 LINE",
"41 622 LINE",
"441 622 LINE",
"420 652 LINE",
"131 0 LINE"
);
}
);
width = 549;
},
{
layerId = "51C2DFEF-3776-4D13-9284-96485B799B57";
paths = (
{
closed = 1;
nodes = (
"251 0 LINE",
"526 590 LINE",
"526 694 LINE",
"21 694 LINE",
"21 540 LINE",
"372 540 LINE",
"341 587 LINE",
"64 0 LINE"
);
}
);
width = 545;
},
{
layerId = "0B2E441B-685E-400D-9B9B-E078DEED62EF";
paths = (
{
closed = 1;
nodes = (
"188 0 LINE",
"483 682 LINE",
"483 694 LINE",
"56 694 LINE",
"56 676 LINE",
"466 676 LINE",
"463 685 LINE",
"165 0 LINE"
);
}
);
width = 544;
}
);
note = seven;
unicode = 0037;
},
{
glyphname = eight;
lastChange = "2017-10-28 16:01:46 +0000";
layers = (
{
layerId = "F333AEC5-BB61-4D5E-9EDD-6124322D28F2";
paths = (
{
closed = 1;
nodes = (
"450 -10 OFFCURVE",
"545 63 OFFCURVE",
"545 176 CURVE SMOOTH",
"545 401 OFFCURVE",
"170 359 OFFCURVE",
"170 534 CURVE SMOOTH",
"170 595 OFFCURVE",
"217 633 OFFCURVE",
"294 633 CURVE SMOOTH",
"378 633 OFFCURVE",
"435 589 OFFCURVE",
"435 523 CURVE SMOOTH",
"435 458 OFFCURVE",
"380 402 OFFCURVE",
"299 387 CURVE",
"362 356 LINE",
"456 384 OFFCURVE",
"514 453 OFFCURVE",
"514 537 CURVE SMOOTH",
"514 637 OFFCURVE",
"431 704 OFFCURVE",
"306 704 CURVE SMOOTH",
"174 704 OFFCURVE",
"87 631 OFFCURVE",
"87 521 CURVE SMOOTH",
"87 290 OFFCURVE",
"460 344 OFFCURVE",
"460 169 CURVE SMOOTH",
"460 102 OFFCURVE",
"409 63 OFFCURVE",
"318 63 CURVE SMOOTH",
"216 63 OFFCURVE",
"148 112 OFFCURVE",
"148 185 CURVE SMOOTH",
"148 257 OFFCURVE",
"211 315 OFFCURVE",
"303 328 CURVE",
"249 361 LINE",
"137 346 OFFCURVE",
"63 271 OFFCURVE",
"63 174 CURVE SMOOTH",
"63 64 OFFCURVE",
"159 -10 OFFCURVE",
"304 -10 CURVE SMOOTH"
);
}
);
width = 605;
},
{
layerId = "51C2DFEF-3776-4D13-9284-96485B799B57";
paths = (
{
closed = 1;
nodes = (
"470 -10 OFFCURVE",
"580 76 OFFCURVE",
"580 206 CURVE SMOOTH",
"580 429 OFFCURVE",
"231 385 OFFCURVE",
"231 498 CURVE SMOOTH",
"231 533 OFFCURVE",
"261 556 OFFCURVE",
"306 556 CURVE SMOOTH",
"351 556 OFFCURVE",
"380 533 OFFCURVE",
"380 497 CURVE SMOOTH",
"380 456 OFFCURVE",
"347 424 OFFCURVE",
"300 419 CURVE",
"417 359 LINE",
"507 393 OFFCURVE",
"558 455 OFFCURVE",
"558 529 CURVE SMOOTH",
"558 634 OFFCURVE",
"459 704 OFFCURVE",
"312 704 CURVE SMOOTH",
"157 704 OFFCURVE",
"53 619 OFFCURVE",
"53 492 CURVE SMOOTH",
"53 260 OFFCURVE",
"402 306 OFFCURVE",
"402 197 CURVE SMOOTH",
"402 162 OFFCURVE",
"366 138 OFFCURVE",
"313 138 CURVE SMOOTH",
"253 138 OFFCURVE",
"213 169 OFFCURVE",
"213 215 CURVE SMOOTH",
"213 260 OFFCURVE",
"251 292 OFFCURVE",
"308 294 CURVE",
"209 357 LINE",
"100 337 OFFCURVE",
"35 273 OFFCURVE",
"35 185 CURVE SMOOTH",
"35 68 OFFCURVE",
"143 -10 OFFCURVE",
"305 -10 CURVE SMOOTH"
);
}
);
width = 613;
},
{
layerId = "0B2E441B-685E-400D-9B9B-E078DEED62EF";
paths = (
{
closed = 1;
nodes = (
"434 -10 OFFCURVE",
"521 57 OFFCURVE",
"521 163 CURVE SMOOTH",
"521 389 OFFCURVE",
"126 324 OFFCURVE",
"126 540 CURVE SMOOTH",
"126 629 OFFCURVE",
"193 687 OFFCURVE",
"291 687 CURVE SMOOTH",
"389 687 OFFCURVE",
"464 628 OFFCURVE",
"464 543 CURVE SMOOTH",
"464 460 OFFCURVE",
"392 397 OFFCURVE",
"283 369 CURVE",
"299 358 LINE",
"412 385 OFFCURVE",
"483 454 OFFCURVE",
"483 543 CURVE SMOOTH",
"483 639 OFFCURVE",
"402 704 OFFCURVE",
"293 704 CURVE SMOOTH",
"183 704 OFFCURVE",
"107 639 OFFCURVE",
"107 538 CURVE SMOOTH",
"107 307 OFFCURVE",
"501 372 OFFCURVE",
"501 161 CURVE SMOOTH",
"501 67 OFFCURVE",
"424 7 OFFCURVE",
"306 7 CURVE SMOOTH",
"185 7 OFFCURVE",
"102 71 OFFCURVE",
"102 166 CURVE SMOOTH",
"102 254 OFFCURVE",
"174 325 OFFCURVE",
"283 352 CURVE",
"267 363 LINE",
"156 338 OFFCURVE",
"82 260 OFFCURVE",
"82 164 CURVE SMOOTH",
"82 60 OFFCURVE",
"171 -10 OFFCURVE",
"304 -10 CURVE SMOOTH"
);
}
);
width = 599;
}
);
note = eight;
unicode = 0038;
},
{
glyphname = zero.osf;
lastChange = "2017-10-28 16:02:52 +0000";
layers = (
{
anchors = (
{
name = slash;
position = "{316, 250}";
}
);
layerId = "F333AEC5-BB61-4D5E-9EDD-6124322D28F2";
paths = (
{
closed = 1;
nodes = (
"451 -10 OFFCURVE",
"552 95 OFFCURVE",
"552 243 CURVE SMOOTH",
"552 389 OFFCURVE",
"454 492 OFFCURVE",
"315 492 CURVE SMOOTH",
"170 492 OFFCURVE",
"68 385 OFFCURVE",
"68 234 CURVE SMOOTH",
"68 91 OFFCURVE",
"167 -10 OFFCURVE",
"307 -10 CURVE SMOOTH"
);
},
{
closed = 1;
nodes = (
"217 60 OFFCURVE",
"148 136 OFFCURVE",
"148 243 CURVE SMOOTH",
"148 348 OFFCURVE",
"214 422 OFFCURVE",
"307 422 CURVE SMOOTH",
"404 422 OFFCURVE",
"472 344 OFFCURVE",
"472 234 CURVE SMOOTH",
"472 132 OFFCURVE",
"407 60 OFFCURVE",
"315 60 CURVE SMOOTH"
);
}
);
width = 620;
},
{
anchors = (
{
name = slash;
position = "{312, 245}";
}
);
layerId = "51C2DFEF-3776-4D13-9284-96485B799B57";
paths = (
{
closed = 1;
nodes = (
"475 -6 OFFCURVE",
"587 97 OFFCURVE",
"587 250 CURVE SMOOTH",
"587 401 OFFCURVE",
"478 500 OFFCURVE",
"313 500 CURVE SMOOTH",
"147 500 OFFCURVE",
"36 398 OFFCURVE",
"36 246 CURVE SMOOTH",
"36 95 OFFCURVE",
"145 -6 OFFCURVE",
"309 -6 CURVE SMOOTH"
);
},
{
closed = 1;
nodes = (
"252 138 OFFCURVE",
"211 183 OFFCURVE",
"211 250 CURVE SMOOTH",
"211 314 OFFCURVE",
"250 356 OFFCURVE",
"310 356 CURVE SMOOTH",
"371 356 OFFCURVE",
"411 312 OFFCURVE",
"411 247 CURVE SMOOTH",
"411 182 OFFCURVE",
"371 138 OFFCURVE",
"312 138 CURVE SMOOTH"
);
}
);
width = 623;
},
{
anchors = (
{
name = slash;
position = "{309, 250}";
}
);
layerId = "0B2E441B-685E-400D-9B9B-E078DEED62EF";
paths = (
{
closed = 1;
nodes = (
"439 -10 OFFCURVE",
"526 89 OFFCURVE",
"526 238 CURVE SMOOTH",
"526 387 OFFCURVE",
"440 487 OFFCURVE",
"311 487 CURVE SMOOTH",
"179 487 OFFCURVE",
"91 386 OFFCURVE",
"91 235 CURVE SMOOTH",
"91 88 OFFCURVE",
"178 -10 OFFCURVE",
"308 -10 CURVE SMOOTH"
);
},
{
closed = 1;
nodes = (
"192 8 OFFCURVE",
"112 100 OFFCURVE",
"112 238 CURVE SMOOTH",
"112 376 OFFCURVE",
"190 469 OFFCURVE",
"308 469 CURVE SMOOTH",
"426 469 OFFCURVE",
"505 375 OFFCURVE",
"505 235 CURVE SMOOTH",
"505 99 OFFCURVE",
"427 8 OFFCURVE",
"311 8 CURVE SMOOTH"
);
}
);
width = 617;
}
);
},
{
glyphname = one.osf;
lastChange = "2017-10-28 13:45:48 +0000";
layers = (
{
layerId = "F333AEC5-BB61-4D5E-9EDD-6124322D28F2";
paths = (
{
closed = 1;
nodes = (
"332 30 LINE",
"332 482 LINE",
"272 482 LINE",
"55 363 LINE",
"85 306 LINE",
"279 405 LINE",
"252 424 LINE",
"252 30 LINE"
);
},
{
closed = 1;
nodes = (
"482 0 LINE",
"482 70 LINE",
"79 70 LINE",
"79 0 LINE"
);
}
);
width = 529;
},
{
layerId = "51C2DFEF-3776-4D13-9284-96485B799B57";
paths = (
{
closed = 1;
nodes = (
"395 81 LINE",
"395 490 LINE",
"270 490 LINE",
"29 343 LINE",
"88 226 LINE",
"278 334 LINE",
"224 365 LINE",
"224 81 LINE"
);
},
{
closed = 1;
nodes = (
"543 0 LINE",
"543 132 LINE",
"60 132 LINE",
"60 0 LINE"
);
}
);
width = 568;
},
{
layerId = "0B2E441B-685E-400D-9B9B-E078DEED62EF";
paths = (
{
closed = 1;
nodes = (
"286 7 LINE",
"286 480 LINE",
"274 480 LINE",
"69 351 LINE",
"78 337 LINE",
"274 459 LINE",
"266 463 LINE",
"266 7 LINE"
);
},
{
closed = 1;
nodes = (
"453 0 LINE",
"453 16 LINE",
"79 16 LINE",
"79 0 LINE"
);
}
);
width = 513;
}
);
},
{
glyphname = two.osf;
lastChange = "2017-10-28 16:03:48 +0000";
layers = (
{
layerId = "F333AEC5-BB61-4D5E-9EDD-6124322D28F2";
paths = (
{
closed = 1;
nodes = (
"489 0 LINE",
"489 71 LINE",
"153 71 LINE",
"161 38 LINE",
"375 130 OFFCURVE",
"459 212 OFFCURVE",
"459 319 CURVE SMOOTH",
"459 423 OFFCURVE",
"380 492 OFFCURVE",
"252 492 CURVE SMOOTH",
"189 492 OFFCURVE",
"126 475 OFFCURVE",
"56 439 CURVE",
"77 384 LINE",
"139 410 OFFCURVE",
"189 422 OFFCURVE",
"233 422 CURVE SMOOTH",
"320 422 OFFCURVE",
"374 376 OFFCURVE",
"374 310 CURVE SMOOTH",
"374 230 OFFCURVE",
"288 164 OFFCURVE",
"69 55 CURVE",
"69 0 LINE"
);
}
);
width = 550;
},
{
layerId = "51C2DFEF-3776-4D13-9284-96485B799B57";
paths = (
{
closed = 1;
nodes = (
"524 0 LINE",
"524 133 LINE",
"266 133 LINE",
"215 66 LINE",
"398 113 OFFCURVE",
"503 207 OFFCURVE",
"503 321 CURVE SMOOTH",
"503 430 OFFCURVE",
"407 500 OFFCURVE",
"264 500 CURVE SMOOTH",
"183 500 OFFCURVE",
"99 477 OFFCURVE",
"29 437 CURVE",
"75 314 LINE",
"131 342 OFFCURVE",
"178 356 OFFCURVE",
"225 356 CURVE SMOOTH",
"286 356 OFFCURVE",
"323 332 OFFCURVE",
"323 296 CURVE SMOOTH",
"323 240 OFFCURVE",
"231 177 OFFCURVE",
"59 104 CURVE",
"59 0 LINE"
);
}
);
width = 566;
},
{
layerId = "0B2E441B-685E-400D-9B9B-E078DEED62EF";
paths = (
{
closed = 1;
nodes = (
"471 0 LINE",
"471 17 LINE",
"118 17 LINE",
"122 10 LINE",
"334 105 OFFCURVE",
"444 215 OFFCURVE",
"444 331 CURVE SMOOTH",
"444 427 OFFCURVE",
"368 490 OFFCURVE",
"253 490 CURVE SMOOTH",
"186 490 OFFCURVE",
"119 468 OFFCURVE",
"68 433 CURVE",
"76 420 LINE",
"134 454 OFFCURVE",
"190 472 OFFCURVE",
"249 472 CURVE SMOOTH",
"353 472 OFFCURVE",
"424 417 OFFCURVE",
"424 330 CURVE SMOOTH",
"424 213 OFFCURVE",
"297 103 OFFCURVE",
"80 8 CURVE",
"80 0 LINE"
);
}
);
width = 545;
}
);
},
{
glyphname = three.osf;
lastChange = "2017-10-28 15:29:58 +0000";
layers = (
{
layerId = "F333AEC5-BB61-4D5E-9EDD-6124322D28F2";
paths = (
{
closed = 1;
nodes = (
"391 -222 OFFCURVE",
"491 -143 OFFCURVE",
"491 -28 CURVE SMOOTH",
"491 74 OFFCURVE",
"413 149 OFFCURVE",
"295 161 CURVE",
"295 156 LINE",
"390 159 OFFCURVE",
"454 224 OFFCURVE",
"454 314 CURVE SMOOTH",
"454 419 OFFCURVE",
"366 492 OFFCURVE",
"244 492 CURVE SMOOTH",
"178 492 OFFCURVE",
"109 473 OFFCURVE",
"43 437 CURVE",
"64 382 LINE",
"125 408 OFFCURVE",
"181 422 OFFCURVE",
"226 422 CURVE SMOOTH",
"312 422 OFFCURVE",
"374 374 OFFCURVE",
"374 304 CURVE SMOOTH",
"374 227 OFFCURVE",
"293 174 OFFCURVE",
"173 174 CURVE",
"173 110 LINE",
"313 110 OFFCURVE",
"411 51 OFFCURVE",
"411 -36 CURVE SMOOTH",
"411 -105 OFFCURVE",
"348 -152 OFFCURVE",
"252 -152 CURVE SMOOTH",
"195 -152 OFFCURVE",
"134 -136 OFFCURVE",
"63 -106 CURVE",
"39 -172 LINE",
"99 -203 OFFCURVE",
"176 -222 OFFCURVE",
"245 -222 CURVE SMOOTH"
);
}
);
width = 542;
},
{
layerId = "51C2DFEF-3776-4D13-9284-96485B799B57";
paths = (
{
closed = 1;
nodes = (
"421 -214 OFFCURVE",
"532 -136 OFFCURVE",
"532 -7 CURVE SMOOTH",
"532 92 OFFCURVE",
"467 154 OFFCURVE",
"357 166 CURVE",
"336 149 LINE",
"431 155 OFFCURVE",
"494 221 OFFCURVE",
"494 316 CURVE SMOOTH",
"494 431 OFFCURVE",
"403 500 OFFCURVE",
"255 500 CURVE SMOOTH",
"173 500 OFFCURVE",
"98 479 OFFCURVE",
"18 437 CURVE",
"64 314 LINE",
"128 343 OFFCURVE",
"177 356 OFFCURVE",
"218 356 CURVE SMOOTH",
"278 356 OFFCURVE",
"318 329 OFFCURVE",
"318 288 CURVE SMOOTH",
"318 237 OFFCURVE",
"256 209 OFFCURVE",
"149 209 CURVE",
"149 75 LINE",
"279 75 OFFCURVE",
"356 44 OFFCURVE",
"356 -8 CURVE SMOOTH",
"356 -47 OFFCURVE",
"313 -70 OFFCURVE",
"241 -70 CURVE SMOOTH",
"185 -70 OFFCURVE",
"117 -56 OFFCURVE",
"58 -30 CURVE",
"12 -162 LINE",
"83 -196 OFFCURVE",
"165 -214 OFFCURVE",
"249 -214 CURVE SMOOTH"
);
}
);
width = 556;
},
{
layerId = "0B2E441B-685E-400D-9B9B-E078DEED62EF";
paths = (
{
closed = 1;
nodes = (
"395 -224 OFFCURVE",
"482 -153 OFFCURVE",
"482 -44 CURVE SMOOTH",
"482 59 OFFCURVE",
"404 123 OFFCURVE",
"256 142 CURVE",
"256 138 LINE",
"370 145 OFFCURVE",
"445 215 OFFCURVE",
"445 314 CURVE SMOOTH",
"445 418 OFFCURVE",
"364 490 OFFCURVE",
"246 490 CURVE SMOOTH",
"181 490 OFFCURVE",
"113 468 OFFCURVE",
"60 430 CURVE",
"70 417 LINE",
"126 453 OFFCURVE",
"185 472 OFFCURVE",
"245 472 CURVE SMOOTH",
"354 472 OFFCURVE",
"424 410 OFFCURVE",
"424 310 CURVE SMOOTH",
"424 202 OFFCURVE",
"341 147 OFFCURVE",
"178 147 CURVE",
"178 130 LINE",
"359 130 OFFCURVE",
"462 67 OFFCURVE",
"462 -46 CURVE SMOOTH",
"462 -144 OFFCURVE",
"385 -205 OFFCURVE",
"262 -205 CURVE SMOOTH",
"193 -205 OFFCURVE",
"107 -186 OFFCURVE",
"50 -158 CURVE",
"44 -174 LINE",
"103 -204 OFFCURVE",
"189 -224 OFFCURVE",
"261 -224 CURVE SMOOTH"
);
}
);
width = 551;
}
);
},
{
glyphname = four.osf;
lastChange = "2017-10-28 15:29:56 +0000";
layers = (
{
layerId = "F333AEC5-BB61-4D5E-9EDD-6124322D28F2";
paths = (
{
closed = 1;
nodes = (
"445 -217 LINE",
"445 482 LINE",
"381 482 LINE",
"46 50 LINE",
"46 0 LINE",
"570 0 LINE",
"570 71 LINE",
"125 71 LINE",
"125 42 LINE",
"376 367 LINE",
"365 367 LINE",
"365 -217 LINE"
);
}
);
width = 617;
},
{
layerId = "51C2DFEF-3776-4D13-9284-96485B799B57";
paths = (
{
closed = 1;
nodes = (
"501 -207 LINE",
"501 490 LINE",
"341 490 LINE",
"20 88 LINE",
"20 0 LINE",
"643 0 LINE",
"643 132 LINE",
"93 134 LINE",
"138 54 LINE",
"377 358 LINE",
"333 400 LINE",
"333 -207 LINE"
);
}
);
width = 667;
},
{
layerId = "0B2E441B-685E-400D-9B9B-E078DEED62EF";
paths = (
{
closed = 1;
nodes = (
"423 -227 LINE",
"423 480 LINE",
"408 480 LINE",
"55 10 LINE",
"55 0 LINE",
"541 0 LINE",
"541 17 LINE",
"77 17 LINE",
"77 12 LINE",
"406 448 LINE",
"403 451 LINE",
"403 -227 LINE"
);
}
);
width = 597;
}
);
},
{
glyphname = five.osf;
lastChange = "2017-10-28 15:29:58 +0000";
layers = (
{
layerId = "F333AEC5-BB61-4D5E-9EDD-6124322D28F2";
paths = (
{
closed = 1;
nodes = (
"385 -222 OFFCURVE",
"486 -135 OFFCURVE",
"486 3 CURVE SMOOTH",
"486 135 OFFCURVE",
"394 216 OFFCURVE",
"248 216 CURVE SMOOTH",
"215 216 OFFCURVE",
"178 212 OFFCURVE",
"139 204 CURVE",
"158 177 LINE",
"169 415 LINE",
"455 415 LINE",
"455 482 LINE",
"98 482 LINE",
"81 129 LINE",
"128 140 OFFCURVE",
"183 146 OFFCURVE",
"219 146 CURVE SMOOTH",
"331 146 OFFCURVE",
"406 86 OFFCURVE",
"406 -9 CURVE SMOOTH",
"406 -97 OFFCURVE",
"340 -152 OFFCURVE",
"247 -152 CURVE SMOOTH",
"195 -152 OFFCURVE",
"127 -135 OFFCURVE",
"72 -108 CURVE",
"48 -174 LINE",
"118 -206 OFFCURVE",
"169 -222 OFFCURVE",
"234 -222 CURVE SMOOTH"
);
}
);
width = 543;
},
{
layerId = "51C2DFEF-3776-4D13-9284-96485B799B57";
paths = (
{
closed = 1;
nodes = (
"407 -214 OFFCURVE",
"513 -129 OFFCURVE",
"513 15 CURVE SMOOTH",
"513 148 OFFCURVE",
"422 227 OFFCURVE",
"261 227 CURVE SMOOTH",
"223 227 OFFCURVE",
"184 223 OFFCURVE",
"156 215 CURVE",
"223 146 LINE",
"231 355 LINE",
"476 355 LINE",
"476 490 LINE",
"76 490 LINE",
"58 72 LINE",
"102 80 OFFCURVE",
"158 85 OFFCURVE",
"196 85 CURVE SMOOTH",
"286 85 OFFCURVE",
"337 54 OFFCURVE",
"337 3 CURVE SMOOTH",
"337 -45 OFFCURVE",
"293 -70 OFFCURVE",
"226 -70 CURVE SMOOTH",
"179 -70 OFFCURVE",
"122 -58 OFFCURVE",
"63 -35 CURVE",
"16 -169 LINE",
"91 -200 OFFCURVE",
"157 -214 OFFCURVE",
"229 -214 CURVE SMOOTH"
);
}
);
width = 544;
},
{
layerId = "0B2E441B-685E-400D-9B9B-E078DEED62EF";
paths = (
{
closed = 1;
nodes = (
"390 -224 OFFCURVE",
"476 -134 OFFCURVE",
"476 -11 CURVE SMOOTH",
"476 112 OFFCURVE",
"389 189 OFFCURVE",
"244 189 CURVE SMOOTH",
"207 189 OFFCURVE",
"157 184 OFFCURVE",
"107 174 CURVE",
"119 170 LINE",
"132 463 LINE",
"451 463 LINE",
"451 480 LINE",
"114 480 LINE",
"98 155 LINE",
"144 165 OFFCURVE",
"196 171 OFFCURVE",
"237 171 CURVE SMOOTH",
"381 171 OFFCURVE",
"455 96 OFFCURVE",
"455 -13 CURVE SMOOTH",
"455 -126 OFFCURVE",
"377 -205 OFFCURVE",
"256 -205 CURVE SMOOTH",
"198 -205 OFFCURVE",
"125 -187 OFFCURVE",
"69 -157 CURVE",
"62 -174 LINE",
"122 -206 OFFCURVE",
"190 -224 OFFCURVE",
"252 -224 CURVE SMOOTH"
);
}
);
width = 547;
}
);
},
{
glyphname = six.osf;
lastChange = "2017-10-28 16:05:50 +0000";
layers = (
{
layerId = "F333AEC5-BB61-4D5E-9EDD-6124322D28F2";
paths = (
{
closed = 1;
nodes = (
"464 -10 OFFCURVE",
"553 79 OFFCURVE",
"553 212 CURVE SMOOTH",
"553 339 OFFCURVE",
"473 424 OFFCURVE",
"356 424 CURVE SMOOTH",
"259 424 OFFCURVE",
"183 365 OFFCURVE",
"136 256 CURVE",
"158 213 LINE",
"193 304 OFFCURVE",
"253 355 OFFCURVE",
"329 355 CURVE SMOOTH",
"413 355 OFFCURVE",
"473 292 OFFCURVE",
"473 199 CURVE SMOOTH",
"473 114 OFFCURVE",
"423 60 OFFCURVE",
"337 60 CURVE SMOOTH",
"233 60 OFFCURVE",
"164 139 OFFCURVE",
"164 335 CURVE SMOOTH",
"164 526 OFFCURVE",
"229 634 OFFCURVE",
"365 634 CURVE SMOOTH",
"412 634 OFFCURVE",
"464 621 OFFCURVE",
"511 600 CURVE",
"533 665 LINE",
"491 691 OFFCURVE",
"438 704 OFFCURVE",
"381 704 CURVE SMOOTH",
"188 704 OFFCURVE",
"79 556 OFFCURVE",
"79 319 CURVE SMOOTH",
"79 94 OFFCURVE",
"177 -10 OFFCURVE",
"326 -10 CURVE SMOOTH"
);
}
);
width = 618;
},
{
layerId = "51C2DFEF-3776-4D13-9284-96485B799B57";
paths = (
{
closed = 1;
nodes = (
"474 -10 OFFCURVE",
"574 83 OFFCURVE",
"574 230 CURVE SMOOTH",
"574 361 OFFCURVE",
"488 449 OFFCURVE",
"369 449 CURVE SMOOTH",
"281 449 OFFCURVE",
"215 400 OFFCURVE",
"176 305 CURVE",
"219 249 LINE",
"247 286 OFFCURVE",
"279 305 OFFCURVE",
"315 305 CURVE SMOOTH",
"363 305 OFFCURVE",
"398 272 OFFCURVE",
"398 217 CURVE SMOOTH",
"398 165 OFFCURVE",
"372 134 OFFCURVE",
"328 134 CURVE SMOOTH",
"263 134 OFFCURVE",
"227 206 OFFCURVE",
"227 338 CURVE SMOOTH",
"227 490 OFFCURVE",
"274 560 OFFCURVE",
"377 560 CURVE SMOOTH",
"416 560 OFFCURVE",
"467 550 OFFCURVE",
"509 533 CURVE",
"551 668 LINE",
"494 691 OFFCURVE",
"436 704 OFFCURVE",
"374 704 CURVE SMOOTH",
"168 704 OFFCURVE",
"49 564 OFFCURVE",
"49 320 CURVE SMOOTH",
"49 105 OFFCURVE",
"142 -10 OFFCURVE",
"317 -10 CURVE SMOOTH"
);
}
);
width = 610;
},
{
layerId = "0B2E441B-685E-400D-9B9B-E078DEED62EF";
paths = (
{
closed = 1;
nodes = (
"442 -10 OFFCURVE",
"523 77 OFFCURVE",
"523 206 CURVE SMOOTH",
"523 333 OFFCURVE",
"444 420 OFFCURVE",
"327 420 CURVE SMOOTH",
"232 420 OFFCURVE",
"157 361 OFFCURVE",
"112 250 CURVE",
"112 219 LINE",
"156 337 OFFCURVE",
"231 402 OFFCURVE",
"325 402 CURVE SMOOTH",
"429 402 OFFCURVE",
"502 322 OFFCURVE",
"502 203 CURVE SMOOTH",
"502 86 OFFCURVE",
"431 8 OFFCURVE",
"325 8 CURVE SMOOTH",
"196 8 OFFCURVE",
"121 124 OFFCURVE",
"121 321 CURVE SMOOTH",
"121 546 OFFCURVE",
"219 686 OFFCURVE",
"374 686 CURVE SMOOTH",
"415 686 OFFCURVE",
"461 676 OFFCURVE",
"499 660 CURVE",
"506 677 LINE",
"466 694 OFFCURVE",
"421 704 OFFCURVE",
"378 704 CURVE SMOOTH",
"210 704 OFFCURVE",
"100 555 OFFCURVE",
"100 319 CURVE SMOOTH",
"100 113 OFFCURVE",
"183 -10 OFFCURVE",
"324 -10 CURVE SMOOTH"
);
}
);
width = 610;
}
);
},
{
glyphname = seven.osf;
lastChange = "2017-10-28 15:29:56 +0000";
layers = (
{
layerId = "F333AEC5-BB61-4D5E-9EDD-6124322D28F2";
paths = (
{
closed = 1;
nodes = (
"223 -217 LINE",
"493 447 LINE",
"493 482 LINE",
"48 482 LINE",
"48 406 LINE",
"428 406 LINE",
"412 445 LINE",
"141 -217 LINE"
);
}
);
width = 543;
},
{
layerId = "51C2DFEF-3776-4D13-9284-96485B799B57";
paths = (
{
closed = 1;
nodes = (
"256 -204 LINE",
"531 397 LINE",
"531 490 LINE",
"26 490 LINE",
"26 351 LINE",
"377 351 LINE",
"351 383 LINE",
"74 -204 LINE"
);
}
);
width = 557;
},
{
layerId = "0B2E441B-685E-400D-9B9B-E078DEED62EF";
paths = (
{
closed = 1;
nodes = (
"191 -214 LINE",
"486 468 LINE",
"486 480 LINE",
"59 480 LINE",
"59 463 LINE",
"469 463 LINE",
"467 471 LINE",
"169 -214 LINE"
);
}
);
width = 552;
}
);
},
{
glyphname = eight.osf;
lastChange = "2017-10-28 16:05:10 +0000";
layers = (
{
layerId = "F333AEC5-BB61-4D5E-9EDD-6124322D28F2";
paths = (
{
closed = 1;
nodes = (
"439 -10 OFFCURVE",
"532 64 OFFCURVE",
"532 175 CURVE SMOOTH",
"532 402 OFFCURVE",
"164 359 OFFCURVE",
"164 533 CURVE SMOOTH",
"164 595 OFFCURVE",
"214 637 OFFCURVE",
"289 637 CURVE SMOOTH",
"373 637 OFFCURVE",
"429 591 OFFCURVE",
"429 523 CURVE SMOOTH",
"429 457 OFFCURVE",
"375 402 OFFCURVE",
"293 387 CURVE",
"356 356 LINE",
"444 382 OFFCURVE",
"503 454 OFFCURVE",
"503 536 CURVE SMOOTH",
"503 637 OFFCURVE",
"421 704 OFFCURVE",
"299 704 CURVE SMOOTH",
"171 704 OFFCURVE",
"86 631 OFFCURVE",
"86 521 CURVE SMOOTH",
"86 288 OFFCURVE",
"452 346 OFFCURVE",
"452 168 CURVE SMOOTH",
"452 103 OFFCURVE",
"396 60 OFFCURVE",
"311 60 CURVE SMOOTH",
"211 60 OFFCURVE",
"145 110 OFFCURVE",
"145 186 CURVE SMOOTH",
"145 259 OFFCURVE",
"206 316 OFFCURVE",
"297 328 CURVE",
"243 361 LINE",
"136 347 OFFCURVE",
"65 272 OFFCURVE",
"65 175 CURVE SMOOTH",
"65 64 OFFCURVE",
"159 -10 OFFCURVE",
"299 -10 CURVE SMOOTH"
);
}
);
width = 594;
},
{
layerId = "51C2DFEF-3776-4D13-9284-96485B799B57";
paths = (
{
closed = 1;
nodes = (
"469 -10 OFFCURVE",
"581 77 OFFCURVE",
"581 205 CURVE SMOOTH",
"581 430 OFFCURVE",
"232 385 OFFCURVE",
"232 501 CURVE SMOOTH",
"232 536 OFFCURVE",
"262 560 OFFCURVE",
"308 560 CURVE SMOOTH",
"353 560 OFFCURVE",
"383 535 OFFCURVE",
"383 497 CURVE SMOOTH",
"383 457 OFFCURVE",
"351 425 OFFCURVE",
"302 419 CURVE",
"419 359 LINE",
"510 394 OFFCURVE",
"559 455 OFFCURVE",
"559 527 CURVE SMOOTH",
"559 630 OFFCURVE",
"458 704 OFFCURVE",
"314 704 CURVE SMOOTH",
"159 704 OFFCURVE",
"56 619 OFFCURVE",
"56 492 CURVE SMOOTH",
"56 260 OFFCURVE",
"405 306 OFFCURVE",
"405 197 CURVE SMOOTH",
"405 159 OFFCURVE",
"369 134 OFFCURVE",
"314 134 CURVE SMOOTH",
"254 134 OFFCURVE",
"214 165 OFFCURVE",
"214 212 CURVE SMOOTH",
"214 259 OFFCURVE",
"252 292 OFFCURVE",
"310 294 CURVE",
"211 357 LINE",
"104 337 OFFCURVE",
"38 272 OFFCURVE",
"38 185 CURVE SMOOTH",
"38 71 OFFCURVE",
"149 -10 OFFCURVE",
"306 -10 CURVE SMOOTH"
);
}
);
width = 616;
},
{
layerId = "0B2E441B-685E-400D-9B9B-E078DEED62EF";
paths = (
{
closed = 1;
nodes = (
"434 -10 OFFCURVE",
"521 57 OFFCURVE",
"521 163 CURVE SMOOTH",
"521 389 OFFCURVE",
"126 324 OFFCURVE",
"126 540 CURVE SMOOTH",
"126 629 OFFCURVE",
"193 687 OFFCURVE",
"291 687 CURVE SMOOTH",
"389 687 OFFCURVE",
"464 628 OFFCURVE",
"464 543 CURVE SMOOTH",
"464 460 OFFCURVE",
"392 397 OFFCURVE",
"283 369 CURVE",
"299 358 LINE",
"412 385 OFFCURVE",
"483 454 OFFCURVE",
"483 543 CURVE SMOOTH",
"483 639 OFFCURVE",
"402 704 OFFCURVE",
"293 704 CURVE SMOOTH",
"183 704 OFFCURVE",
"107 639 OFFCURVE",
"107 538 CURVE SMOOTH",
"107 307 OFFCURVE",
"501 372 OFFCURVE",
"501 161 CURVE SMOOTH",
"501 67 OFFCURVE",
"424 7 OFFCURVE",
"306 7 CURVE SMOOTH",
"185 7 OFFCURVE",
"102 71 OFFCURVE",
"102 166 CURVE SMOOTH",
"102 254 OFFCURVE",
"174 325 OFFCURVE",
"283 352 CURVE",
"267 363 LINE",
"156 338 OFFCURVE",
"82 260 OFFCURVE",
"82 164 CURVE SMOOTH",
"82 60 OFFCURVE",
"171 -10 OFFCURVE",
"304 -10 CURVE SMOOTH"
);
}
);
width = 601;
}
);
},
{
glyphname = asterisk;
lastChange = "2017-10-28 15:29:58 +0000";
layers = (
{
layerId = "F333AEC5-BB61-4D5E-9EDD-6124322D28F2";
paths = (
{
closed = 1;
nodes = (
"430 566 LINE",
"393 627 LINE",
"226 506 LINE",
"247 471 LINE"
);
},
{
closed = 1;
nodes = (
"248 469 LINE",
"228 503 LINE",
"44 408 LINE",
"81 348 LINE"
);
},
{
closed = 1;
nodes = (
"272 282 LINE",
"258 488 LINE",
"218 488 LINE",
"201 282 LINE"
);
},
{
closed = 1;
nodes = (
"249 505 LINE",
"83 628 LINE",
"46 568 LINE",
"228 471 LINE"
);
},
{
closed = 1;
nodes = (
"430 406 LINE",
"248 503 LINE",
"227 468 LINE",
"393 346 LINE"
);
},
{
closed = 1;
nodes = (
"258 488 LINE",
"272 694 LINE",
"201 694 LINE",
"218 488 LINE"
);
}
);
width = 475;
},
{
layerId = "51C2DFEF-3776-4D13-9284-96485B799B57";
paths = (
{
closed = 1;
nodes = (
"464 526 LINE",
"399 643 LINE",
"227 511 LINE",
"251 467 LINE"
);
},
{
closed = 1;
nodes = (
"253 464 LINE",
"228 507 LINE",
"21 441 LINE",
"85 323 LINE"
);
},
{
closed = 1;
nodes = (
"314 272 LINE",
"266 488 LINE",
"216 488 LINE",
"165 272 LINE"
);
},
{
closed = 1;
nodes = (
"254 510 LINE",
"87 651 LINE",
"22 535 LINE",
"229 467 LINE"
);
},
{
closed = 1;
nodes = (
"459 437 LINE",
"254 507 LINE",
"227 463 LINE",
"393 320 LINE"
);
},
{
closed = 1;
nodes = (
"266 488 LINE",
"314 704 LINE",
"165 704 LINE",
"216 488 LINE"
);
}
);
width = 483;
},
{
layerId = "0B2E441B-685E-400D-9B9B-E078DEED62EF";
paths = (
{
closed = 1;
nodes = (
"417 585 LINE",
"405 603 LINE",
"234 497 LINE",
"240 488 LINE"
);
},
{
closed = 1;
nodes = (
"240 487 LINE",
"234 497 LINE",
"58 390 LINE",
"70 372 LINE"
);
},
{
closed = 1;
nodes = (
"245 283 LINE",
"242 487 LINE",
"228 487 LINE",
"224 283 LINE"
);
},
{
closed = 1;
nodes = (
"238 494 LINE",
"71 608 LINE",
"59 590 LINE",
"233 484 LINE"
);
},
{
closed = 1;
nodes = (
"419 387 LINE",
"240 494 LINE",
"233 484 LINE",
"407 369 LINE"
);
},
{
closed = 1;
nodes = (
"242 487 LINE",
"245 694 LINE",
"224 694 LINE",
"228 487 LINE"
);
}
);
width = 477;
}
);
unicode = 002A;
},
{
glyphname = numbersign;
lastChange = "2017-10-28 15:29:56 +0000";
layers = (
{
layerId = "F333AEC5-BB61-4D5E-9EDD-6124322D28F2";
paths = (
{
closed = 1;
nodes = (
"513 0 LINE",
"513 694 LINE",
"437 694 LINE",
"437 0 LINE"
);
},
{
closed = 1;
nodes = (
"643 178 LINE",
"643 248 LINE",
"42 248 LINE",
"42 178 LINE"
);
},
{
closed = 1;
nodes = (
"251 0 LINE",
"251 694 LINE",
"175 694 LINE",
"175 0 LINE"
);
},
{
closed = 1;
nodes = (
"643 448 LINE",
"643 518 LINE",
"42 518 LINE",
"42 448 LINE"
);
}
);
width = 685;
},
{
layerId = "51C2DFEF-3776-4D13-9284-96485B799B57";
paths = (
{
closed = 1;
nodes = (
"616 0 LINE",
"616 694 LINE",
"443 694 LINE",
"443 0 LINE"
);
},
{
closed = 1;
nodes = (
"722 147 LINE",
"722 280 LINE",
"31 280 LINE",
"31 147 LINE"
);
},
{
closed = 1;
nodes = (
"313 0 LINE",
"313 694 LINE",
"140 694 LINE",
"140 0 LINE"
);
},
{
closed = 1;
nodes = (
"722 417 LINE",
"722 550 LINE",
"31 550 LINE",
"31 417 LINE"
);
}
);
width = 753;
},
{
layerId = "0B2E441B-685E-400D-9B9B-E078DEED62EF";
paths = (
{
closed = 1;
nodes = (
"448 0 LINE",
"448 694 LINE",
"428 694 LINE",
"428 0 LINE"
);
},
{
closed = 1;
nodes = (
"589 206 LINE",
"589 222 LINE",
"48 222 LINE",
"48 206 LINE"
);
},
{
closed = 1;
nodes = (
"212 0 LINE",
"212 694 LINE",
"192 694 LINE",
"192 0 LINE"
);
},
{
closed = 1;
nodes = (
"589 476 LINE",
"589 492 LINE",
"48 492 LINE",
"48 476 LINE"
);
}
);
width = 637;
}
);
unicode = 0023;
},
{
glyphname = slash;
lastChange = "2017-10-28 15:29:58 +0000";
layers = (
{
layerId = "F333AEC5-BB61-4D5E-9EDD-6124322D28F2";
paths = (
{
closed = 1;
nodes = (
"105 -115 LINE",
"331 739 LINE",
"251 739 LINE",
"25 -115 LINE"
);
}
);
width = 356;
},
{
layerId = "51C2DFEF-3776-4D13-9284-96485B799B57";
paths = (
{
closed = 1;
nodes = (
"169 -115 LINE",
"393 739 LINE",
"223 739 LINE",
"-1 -115 LINE"
);
}
);
width = 393;
},
{
layerId = "0B2E441B-685E-400D-9B9B-E078DEED62EF";
paths = (
{
closed = 1;
nodes = (
"62 -115 LINE",
"288 739 LINE",
"268 739 LINE",
"42 -115 LINE"
);
}
);
width = 330;
}
);
unicode = 002F;
},
{
glyphname = underscore;
lastChange = "2017-10-28 15:29:57 +0000";
layers = (
{
layerId = "F333AEC5-BB61-4D5E-9EDD-6124322D28F2";
paths = (
{
closed = 1;
nodes = (
"524 0 LINE",
"524 72 LINE",
"86 72 LINE",
"86 0 LINE"
);
}
);
width = 610;
},
{
layerId = "51C2DFEF-3776-4D13-9284-96485B799B57";
paths = (
{
closed = 1;
nodes = (
"519 0 LINE",
"519 135 LINE",
"61 135 LINE",
"61 0 LINE"
);
}
);
width = 580;
},
{
layerId = "0B2E441B-685E-400D-9B9B-E078DEED62EF";
paths = (
{
closed = 1;
nodes = (
"541 0 LINE",
"541 17 LINE",
"103 17 LINE",
"103 0 LINE"
);
}
);
width = 644;
}
);
unicode = 005F;
},
{
glyphname = braceleft;
lastChange = "2017-10-28 15:29:58 +0000";
layers = (
{
layerId = "F333AEC5-BB61-4D5E-9EDD-6124322D28F2";
paths = (
{
closed = 1;
nodes = (
"358 -105 LINE",
"272 -105 OFFCURVE",
"233 -81 OFFCURVE",
"233 -23 CURVE SMOOTH",
"233 113 LINE SMOOTH",
"233 205 OFFCURVE",
"192 266 OFFCURVE",
"123 277 CURVE",
"123 278 LINE",
"187 294 OFFCURVE",
"233 361 OFFCURVE",
"233 437 CURVE SMOOTH",
"233 573 LINE SMOOTH",
"233 632 OFFCURVE",
"271 657 OFFCURVE",
"358 657 CURVE",
"358 724 LINE",
"218 724 OFFCURVE",
"158 676 OFFCURVE",
"158 563 CURVE SMOOTH",
"158 427 LINE SMOOTH",
"158 368 OFFCURVE",
"109 312 OFFCURVE",
"38 291 CURVE",
"38 265 LINE",
"113 242 OFFCURVE",
"158 180 OFFCURVE",
"158 103 CURVE SMOOTH",
"158 -33 LINE SMOOTH",
"158 -128 OFFCURVE",
"218 -173 OFFCURVE",
"358 -173 CURVE"
);
}
);
width = 405;
},
{
associatedMasterId = "F333AEC5-BB61-4D5E-9EDD-6124322D28F2";
layerId = "26302E5E-336F-4C93-8632-6CFCDE496564";
name = "Aug 6 17, 20:39";
paths = (
{
closed = 1;
nodes = (
"334 -121 LINE",
"267 -108 OFFCURVE",
"222 -54 OFFCURVE",
"222 15 CURVE SMOOTH",
"222 111 LINE SMOOTH",
"222 180 OFFCURVE",
"188 245 OFFCURVE",
"136 275 CURVE",
"136 276 LINE",
"188 306 OFFCURVE",
"222 370 OFFCURVE",
"222 435 CURVE SMOOTH",
"222 536 LINE SMOOTH",
"222 604 OFFCURVE",
"267 657 OFFCURVE",
"334 669 CURVE",
"317 746 LINE",
"212 736 OFFCURVE",
"142 652 OFFCURVE",
"142 536 CURVE SMOOTH",
"142 435 LINE SMOOTH",
"142 368 OFFCURVE",
"95 311 OFFCURVE",
"22 289 CURVE",
"22 263 LINE",
"94 241 OFFCURVE",
"142 181 OFFCURVE",
"142 111 CURVE SMOOTH",
"142 15 LINE SMOOTH",
"142 -102 OFFCURVE",
"212 -186 OFFCURVE",
"317 -196 CURVE"
);
}
);
width = 363;
},
{
layerId = "51C2DFEF-3776-4D13-9284-96485B799B57";
paths = (
{
closed = 1;
nodes = (
"429 -45 LINE",
"347 -45 OFFCURVE",
"304 -13 OFFCURVE",
"304 47 CURVE SMOOTH",
"304 113 LINE SMOOTH",
"304 205 OFFCURVE",
"243 266 OFFCURVE",
"174 277 CURVE",
"174 278 LINE",
"238 294 OFFCURVE",
"304 361 OFFCURVE",
"304 437 CURVE SMOOTH",
"304 493 LINE SMOOTH",
"304 555 OFFCURVE",
"347 587 OFFCURVE",
"429 587 CURVE",
"429 724 LINE",
"213 724 OFFCURVE",
"129 652 OFFCURVE",
"129 543 CURVE SMOOTH",
"129 427 LINE SMOOTH",
"129 373 OFFCURVE",
"81 322 OFFCURVE",
"9 301 CURVE",
"9 255 LINE",
"81 233 OFFCURVE",
"129 172 OFFCURVE",
"129 103 CURVE SMOOTH",
"129 -13 LINE SMOOTH",
"129 -109 OFFCURVE",
"213 -173 OFFCURVE",
"429 -173 CURVE"
);
}
);
width = 456;
},
{
layerId = "0B2E441B-685E-400D-9B9B-E078DEED62EF";
paths = (
{
closed = 1;
nodes = (
"338 -144 LINE",
"244 -144 OFFCURVE",
"188 -100 OFFCURVE",
"188 -25 CURVE SMOOTH",
"188 111 LINE SMOOTH",
"188 190 OFFCURVE",
"144 256 OFFCURVE",
"77 277 CURVE",
"77 275 LINE",
"144 293 OFFCURVE",
"189 357 OFFCURVE",
"189 435 CURVE SMOOTH",
"189 571 LINE SMOOTH",
"189 649 OFFCURVE",
"244 695 OFFCURVE",
"338 695 CURVE",
"338 712 LINE",
"231 712 OFFCURVE",
"168 656 OFFCURVE",
"168 561 CURVE SMOOTH",
"168 425 LINE SMOOTH",
"168 358 OFFCURVE",
"125 302 OFFCURVE",
"58 285 CURVE",
"58 267 LINE",
"124 248 OFFCURVE",
"168 183 OFFCURVE",
"168 101 CURVE SMOOTH",
"168 -35 LINE SMOOTH",
"168 -114 OFFCURVE",
"231 -161 OFFCURVE",
"338 -161 CURVE"
);
}
);
width = 397;
}
);
unicode = 007B;
},
{
glyphname = bracketleft;
lastChange = "2017-10-28 15:29:57 +0000";
layers = (
{
layerId = "F333AEC5-BB61-4D5E-9EDD-6124322D28F2";
paths = (
{
closed = 1;
nodes = (
"331 -180 LINE",
"331 -112 LINE",
"179 -112 LINE",
"179 650 LINE",
"331 650 LINE",
"331 718 LINE",
"103 718 LINE",
"103 -180 LINE"
);
}
);
width = 378;
},
{
layerId = "51C2DFEF-3776-4D13-9284-96485B799B57";
paths = (
{
closed = 1;
nodes = (
"385 -180 LINE",
"385 -40 LINE",
"238 -40 LINE",
"238 578 LINE",
"385 578 LINE",
"385 718 LINE",
"73 718 LINE",
"73 -180 LINE"
);
}
);
width = 413;
},
{
layerId = "0B2E441B-685E-400D-9B9B-E078DEED62EF";
paths = (
{
closed = 1;
nodes = (
"311 -180 LINE",
"311 -163 LINE",
"143 -163 LINE",
"143 701 LINE",
"311 701 LINE",
"311 718 LINE",
"123 718 LINE",
"123 -180 LINE"
);
}
);
width = 370;
}
);
unicode = 005B;
},
{
glyphname = parenleft;
lastChange = "2017-10-28 15:29:57 +0000";
layers = (
{
layerId = "F333AEC5-BB61-4D5E-9EDD-6124322D28F2";
paths = (
{
closed = 1;
nodes = (
"264 -148 LINE",
"180 1 OFFCURVE",
"146 124 OFFCURVE",
"146 275 CURVE SMOOTH",
"146 424 OFFCURVE",
"179 542 OFFCURVE",
"262 694 CURVE",
"204 725 LINE",
"105 558 OFFCURVE",
"66 428 OFFCURVE",
"66 268 CURVE SMOOTH",
"66 106 OFFCURVE",
"106 -23 OFFCURVE",
"206 -179 CURVE"
);
}
);
width = 310;
},
{
layerId = "51C2DFEF-3776-4D13-9284-96485B799B57";
paths = (
{
closed = 1;
nodes = (
"308 -140 LINE",
"244 -40 OFFCURVE",
"203 122 OFFCURVE",
"203 265 CURVE SMOOTH",
"203 413 OFFCURVE",
"248 565 OFFCURVE",
"316 678 CURVE",
"196 740 LINE",
"99 628 OFFCURVE",
"34 434 OFFCURVE",
"34 255 CURVE SMOOTH",
"34 87 OFFCURVE",
"96 -97 OFFCURVE",
"190 -206 CURVE"
);
}
);
width = 331;
},
{
layerId = "0B2E441B-685E-400D-9B9B-E078DEED62EF";
paths = (
{
closed = 1;
nodes = (
"237 -160 LINE",
"135 10 OFFCURVE",
"110 98 OFFCURVE",
"110 271 CURVE SMOOTH",
"110 444 OFFCURVE",
"135 530 OFFCURVE",
"235 706 CURVE",
"219 714 LINE",
"123 549 OFFCURVE",
"89 436 OFFCURVE",
"89 267 CURVE SMOOTH",
"89 95 OFFCURVE",
"124 -16 OFFCURVE",
"221 -168 CURVE"
);
}
);
width = 300;
}
);
unicode = 0028;
},
{
glyphname = emdash;
lastChange = "2017-10-28 15:29:57 +0000";
layers = (
{
layerId = "F333AEC5-BB61-4D5E-9EDD-6124322D28F2";
paths = (
{
closed = 1;
nodes = (
"1086 209 LINE",
"1086 276 LINE",
"86 276 LINE",
"86 209 LINE"
);
}
);
width = 1172;
},
{
layerId = "51C2DFEF-3776-4D13-9284-96485B799B57";
paths = (
{
closed = 1;
nodes = (
"1061 175 LINE",
"1061 310 LINE",
"61 310 LINE",
"61 175 LINE"
);
}
);
width = 1122;
},
{
layerId = "0B2E441B-685E-400D-9B9B-E078DEED62EF";
paths = (
{
closed = 1;
nodes = (
"1103 229 LINE",
"1103 246 LINE",
"103 246 LINE",
"103 229 LINE"
);
}
);
width = 1206;
}
);
unicode = 2014;
},
{
glyphname = endash;
lastChange = "2017-10-28 15:29:58 +0000";
layers = (
{
layerId = "F333AEC5-BB61-4D5E-9EDD-6124322D28F2";
paths = (
{
closed = 1;
nodes = (
"586 209 LINE",
"586 276 LINE",
"86 276 LINE",
"86 209 LINE"
);
}
);
width = 672;
},
{
layerId = "51C2DFEF-3776-4D13-9284-96485B799B57";
paths = (
{
closed = 1;
nodes = (
"561 175 LINE",
"561 310 LINE",
"61 310 LINE",
"61 175 LINE"
);
}
);
width = 622;
},
{
layerId = "0B2E441B-685E-400D-9B9B-E078DEED62EF";
paths = (
{
closed = 1;
nodes = (
"603 229 LINE",
"603 246 LINE",
"103 246 LINE",
"103 229 LINE"
);
}
);
width = 706;
}
);
unicode = 2013;
},
{
glyphname = hyphen;
lastChange = "2017-10-28 15:29:58 +0000";
layers = (
{
layerId = "F333AEC5-BB61-4D5E-9EDD-6124322D28F2";
paths = (
{
closed = 1;
nodes = (
"376 240 LINE",
"376 307 LINE",
"86 307 LINE",
"86 240 LINE"
);
}
);
width = 462;
},
{
layerId = "51C2DFEF-3776-4D13-9284-96485B799B57";
paths = (
{
closed = 1;
nodes = (
"351 206 LINE",
"351 341 LINE",
"61 341 LINE",
"61 206 LINE"
);
}
);
width = 412;
},
{
layerId = "0B2E441B-685E-400D-9B9B-E078DEED62EF";
paths = (
{
closed = 1;
nodes = (
"373 260 LINE",
"373 277 LINE",
"103 277 LINE",
"103 260 LINE"
);
}
);
width = 476;
}
);
unicode = 002D;
},
{
glyphname = guilsinglleft;
lastChange = "2017-10-28 15:29:59 +0000";
layers = (
{
layerId = "F333AEC5-BB61-4D5E-9EDD-6124322D28F2";
paths = (
{
closed = 1;
nodes = (
"280 30 LINE",
"122 268 LINE",
"122 221 LINE",
"277 452 LINE",
"190 452 LINE",
"50 242 LINE",
"188 30 LINE"
);
}
);
width = 328;
},
{
layerId = "51C2DFEF-3776-4D13-9284-96485B799B57";
paths = (
{
closed = 1;
nodes = (
"334 27 LINE",
"174 268 LINE",
"174 221 LINE",
"330 453 LINE",
"160 453 LINE",
"19 242 LINE",
"159 27 LINE"
);
}
);
width = 351;
},
{
layerId = "0B2E441B-685E-400D-9B9B-E078DEED62EF";
paths = (
{
closed = 1;
nodes = (
"237 32 LINE",
"86 254 LINE",
"88 239 LINE",
"234 451 LINE",
"213 451 LINE",
"70 245 LINE",
"213 32 LINE"
);
}
);
width = 305;
}
);
unicode = 2039;
},
{
glyphname = guilsinglright;
lastChange = "2017-10-28 15:29:57 +0000";
layers = (
{
layerId = "F333AEC5-BB61-4D5E-9EDD-6124322D28F2";
paths = (
{
closed = 1;
nodes = (
"142 30 LINE",
"280 241 LINE",
"140 452 LINE",
"48 452 LINE",
"208 215 LINE",
"208 262 LINE",
"55 30 LINE"
);
}
);
width = 330;
},
{
layerId = "51C2DFEF-3776-4D13-9284-96485B799B57";
paths = (
{
closed = 1;
nodes = (
"192 27 LINE",
"333 242 LINE",
"192 453 LINE",
"17 453 LINE",
"178 214 LINE",
"178 261 LINE",
"22 27 LINE"
);
}
);
width = 351;
},
{
layerId = "0B2E441B-685E-400D-9B9B-E078DEED62EF";
paths = (
{
closed = 1;
nodes = (
"94 32 LINE",
"237 243 LINE",
"94 451 LINE",
"70 451 LINE",
"221 234 LINE",
"219 249 LINE",
"73 32 LINE"
);
}
);
width = 307;
}
);
unicode = 203A;
},
{
export = 0;
glyphname = colonsign;
lastChange = "2017-10-27 16:22:36 +0000";
layers = (
{
components = (
{
name = C;
transform = "{1, 0, 0, 1, 22, 0}";
}
);
layerId = "F333AEC5-BB61-4D5E-9EDD-6124322D28F2";
paths = (
{
closed = 1;
nodes = (
"403 26 LINE",
"379 -100 LINE",
"439 -100 LINE",
"463 26 LINE"
);
},
{
closed = 1;
nodes = (
"293 26 LINE",
"269 -100 LINE",
"329 -100 LINE",
"353 26 LINE"
);
},
{
closed = 1;
nodes = (
"430 694 LINE",
"451 814 LINE",
"391 814 LINE",
"370 694 LINE"
);
},
{
closed = 1;
nodes = (
"540 694 LINE",
"561 814 LINE",
"501 814 LINE",
"480 694 LINE"
);
}
);
width = 720;
},
{
layerId = "51C2DFEF-3776-4D13-9284-96485B799B57";
width = 600;
},
{
components = (
{
name = C;
transform = "{1, 0, 0, 1, 27, 0}";
}
);
layerId = "0B2E441B-685E-400D-9B9B-E078DEED62EF";
paths = (
{
closed = 1;
nodes = (
"428 3 LINE",
"409 -100 LINE",
"425 -100 LINE",
"444 3 LINE"
);
},
{
closed = 1;
nodes = (
"318 11 LINE",
"297 -100 LINE",
"313 -100 LINE",
"334 11 LINE"
);
},
{
closed = 1;
nodes = (
"414 694 LINE",
"435 814 LINE",
"419 814 LINE",
"398 694 LINE"
);
},
{
closed = 1;
nodes = (
"524 694 LINE",
"545 814 LINE",
"529 814 LINE",
"508 694 LINE"
);
}
);
width = 734;
}
);
unicode = 20A1;
},
{
export = 0;
glyphname = currency;
lastChange = "2017-10-27 16:22:36 +0000";
layers = (
{
layerId = "F333AEC5-BB61-4D5E-9EDD-6124322D28F2";
paths = (
{
closed = 1;
nodes = (
"453 131 OFFCURVE",
"535 215 OFFCURVE",
"535 342 CURVE SMOOTH",
"535 461 OFFCURVE",
"457 540 OFFCURVE",
"339 540 CURVE SMOOTH",
"215 540 OFFCURVE",
"133 456 OFFCURVE",
"133 331 CURVE SMOOTH",
"133 211 OFFCURVE",
"211 131 OFFCURVE",
"329 131 CURVE SMOOTH"
);
},
{
closed = 1;
nodes = (
"230 181 LINE",
"189 222 LINE",
"97 131 LINE",
"138 90 LINE"
);
},
{
closed = 1;
nodes = (
"570 131 LINE",
"478 221 LINE",
"438 181 LINE",
"530 90 LINE"
);
},
{
closed = 1;
nodes = (
"263 204 OFFCURVE",
"213 259 OFFCURVE",
"213 341 CURVE SMOOTH",
"213 417 OFFCURVE",
"259 467 OFFCURVE",
"329 467 CURVE SMOOTH",
"405 467 OFFCURVE",
"455 413 OFFCURVE",
"455 332 CURVE SMOOTH",
"455 255 OFFCURVE",
"409 204 OFFCURVE",
"339 204 CURVE SMOOTH"
);
},
{
closed = 1;
nodes = (
"230 488 LINE",
"138 580 LINE",
"97 539 LINE",
"188 448 LINE"
);
},
{
closed = 1;
nodes = (
"570 539 LINE",
"529 580 LINE",
"437 488 LINE",
"478 448 LINE"
);
}
);
width = 668;
},
{
layerId = "51C2DFEF-3776-4D13-9284-96485B799B57";
width = 600;
},
{
layerId = "0B2E441B-685E-400D-9B9B-E078DEED62EF";
paths = (
{
closed = 1;
nodes = (
"438 159 OFFCURVE",
"507 231 OFFCURVE",
"507 339 CURVE SMOOTH",
"507 443 OFFCURVE",
"439 513 OFFCURVE",
"337 513 CURVE SMOOTH",
"233 513 OFFCURVE",
"164 442 OFFCURVE",
"164 335 CURVE SMOOTH",
"164 229 OFFCURVE",
"232 159 OFFCURVE",
"334 159 CURVE SMOOTH"
);
},
{
closed = 1;
nodes = (
"227 204 LINE",
"215 216 LINE",
"113 117 LINE",
"125 105 LINE"
);
},
{
closed = 1;
nodes = (
"557 117 LINE",
"453 218 LINE",
"441 206 LINE",
"545 105 LINE"
);
},
{
closed = 1;
nodes = (
"246 177 OFFCURVE",
"185 241 OFFCURVE",
"185 338 CURVE SMOOTH",
"185 432 OFFCURVE",
"245 495 OFFCURVE",
"334 495 CURVE SMOOTH",
"425 495 OFFCURVE",
"486 431 OFFCURVE",
"486 336 CURVE SMOOTH",
"486 241 OFFCURVE",
"426 177 OFFCURVE",
"337 177 CURVE SMOOTH"
);
},
{
closed = 1;
nodes = (
"223 466 LINE",
"125 566 LINE",
"113 554 LINE",
"211 454 LINE"
);
},
{
closed = 1;
nodes = (
"557 554 LINE",
"545 566 LINE",
"445 466 LINE",
"457 454 LINE"
);
}
);
width = 670;
}
);
unicode = 00A4;
},
{
export = 0;
glyphname = dong;
lastChange = "2017-10-27 16:22:36 +0000";
layers = (
{
layerId = "F333AEC5-BB61-4D5E-9EDD-6124322D28F2";
paths = (
{
closed = 1;
nodes = (
"599 620 LINE",
"599 680 LINE",
"307 680 LINE",
"307 620 LINE"
);
},
{
closed = 1;
nodes = (
"528 130 LINE",
"528 739 LINE",
"448 739 LINE",
"448 186 LINE",
"472 130 LINE"
);
},
{
closed = 1;
nodes = (
"369 120 OFFCURVE",
"434 154 OFFCURVE",
"494 219 CURVE",
"475 269 LINE",
"428 217 OFFCURVE",
"377 190 OFFCURVE",
"321 190 CURVE SMOOTH",
"233 190 OFFCURVE",
"174 251 OFFCURVE",
"174 345 CURVE SMOOTH",
"174 437 OFFCURVE",
"230 492 OFFCURVE",
"313 492 CURVE SMOOTH",
"385 492 OFFCURVE",
"446 447 OFFCURVE",
"462 383 CURVE",
"494 446 LINE",
"470 513 OFFCURVE",
"417 562 OFFCURVE",
"321 562 CURVE SMOOTH",
"187 562 OFFCURVE",
"94 473 OFFCURVE",
"94 333 CURVE SMOOTH",
"94 202 OFFCURVE",
"177 120 OFFCURVE",
"295 120 CURVE SMOOTH"
);
},
{
closed = 1;
nodes = (
"545 0 LINE",
"545 60 LINE",
"123 60 LINE",
"123 0 LINE"
);
}
);
width = 679;
},
{
layerId = "51C2DFEF-3776-4D13-9284-96485B799B57";
width = 600;
},
{
layerId = "0B2E441B-685E-400D-9B9B-E078DEED62EF";
paths = (
{
closed = 1;
nodes = (
"578 646 LINE",
"578 662 LINE",
"312 662 LINE",
"312 646 LINE"
);
},
{
closed = 1;
nodes = (
"500 130 LINE",
"500 739 LINE",
"481 739 LINE",
"481 194 LINE",
"484 130 LINE"
);
},
{
closed = 1;
nodes = (
"388 120 OFFCURVE",
"451 157 OFFCURVE",
"492 211 CURVE",
"483 223 LINE",
"443 172 OFFCURVE",
"385 138 OFFCURVE",
"321 138 CURVE SMOOTH",
"219 138 OFFCURVE",
"143 224 OFFCURVE",
"143 350 CURVE SMOOTH",
"143 476 OFFCURVE",
"218 558 OFFCURVE",
"324 558 CURVE SMOOTH",
"399 558 OFFCURVE",
"455 517 OFFCURVE",
"483 463 CURVE",
"495 475 LINE",
"469 537 OFFCURVE",
"405 576 OFFCURVE",
"326 576 CURVE SMOOTH",
"206 576 OFFCURVE",
"122 485 OFFCURVE",
"122 348 CURVE SMOOTH",
"122 211 OFFCURVE",
"205 120 OFFCURVE",
"317 120 CURVE SMOOTH"
);
},
{
closed = 1;
nodes = (
"519 0 LINE",
"519 17 LINE",
"137 17 LINE",
"137 0 LINE"
);
}
);
width = 679;
}
);
unicode = 20AB;
},
{
export = 0;
glyphname = euro;
lastChange = "2017-10-27 16:22:36 +0000";
layers = (
{
components = (
{
name = C;
transform = "{1, 0, 0, 1, 97, 0}";
}
);
layerId = "F333AEC5-BB61-4D5E-9EDD-6124322D28F2";
paths = (
{
closed = 1;
nodes = (
"644 394 LINE",
"644 454 LINE",
"89 454 LINE",
"89 394 LINE"
);
},
{
closed = 1;
nodes = (
"621 254 LINE",
"621 314 LINE",
"89 314 LINE",
"89 254 LINE"
);
}
);
width = 798;
},
{
layerId = "51C2DFEF-3776-4D13-9284-96485B799B57";
width = 600;
},
{
components = (
{
name = C;
transform = "{1, 0, 0, 1, 116, 0}";
}
);
layerId = "0B2E441B-685E-400D-9B9B-E078DEED62EF";
paths = (
{
closed = 1;
nodes = (
"653 416 LINE",
"653 433 LINE",
"108 433 LINE",
"108 416 LINE"
);
},
{
closed = 1;
nodes = (
"630 276 LINE",
"630 293 LINE",
"108 293 LINE",
"108 276 LINE"
);
}
);
width = 826;
}
);
unicode = 20AC;
},
{
export = 0;
glyphname = guarani;
lastChange = "2017-10-27 16:22:36 +0000";
layers = (
{
associatedMasterId = "F333AEC5-BB61-4D5E-9EDD-6124322D28F2";
layerId = "1866C078-74D9-4E80-B9A0-67CF6B4C8CA4";
name = "Aug 16 17, 22:17";
paths = (
{
closed = 1;
nodes = (
"434 -9 OFFCURVE",
"495 34 OFFCURVE",
"541 74 CURVE",
"541 368 LINE",
"332 368 LINE",
"332 296 LINE",
"464 296 LINE",
"464 102 LINE",
"433 81 OFFCURVE",
"401 64 OFFCURVE",
"356 64 CURVE SMOOTH",
"240 64 OFFCURVE",
"173 177 OFFCURVE",
"173 351 CURVE SMOOTH",
"173 526 OFFCURVE",
"241 630 OFFCURVE",
"359 630 CURVE SMOOTH",
"409 630 OFFCURVE",
"465 612 OFFCURVE",
"507 585 CURVE",
"526 663 LINE",
"481 687 OFFCURVE",
"421 703 OFFCURVE",
"367 703 CURVE SMOOTH",
"209 703 OFFCURVE",
"93 564 OFFCURVE",
"93 340 CURVE SMOOTH",
"93 126 OFFCURVE",
"200 -9 OFFCURVE",
"350 -9 CURVE SMOOTH"
);
},
{
closed = 1;
nodes = (
"398 -49 LINE",
"398 58 LINE",
"322 58 LINE",
"322 -49 LINE"
);
},
{
closed = 1;
nodes = (
"398 633 LINE",
"398 739 LINE",
"323 739 LINE",
"323 633 LINE"
);
}
);
width = 646;
},
{
components = (
{
name = G;
},
{
name = _currencyvstem;
transform = "{1, 0, 0, 1, 26, -800}";
},
{
name = _currencyvstem;
transform = "{1, 0, 0, 1, 14, 0}";
}
);
layerId = "F333AEC5-BB61-4D5E-9EDD-6124322D28F2";
width = 788;
},
{
layerId = "51C2DFEF-3776-4D13-9284-96485B799B57";
width = 600;
},
{
components = (
{
name = G;
},
{
name = _currencyvstem;
transform = "{1, 0, 0, 1, 35, -800}";
},
{
name = _currencyvstem;
transform = "{1, 0, 0, 1, 23, 0}";
}
);
layerId = "0B2E441B-685E-400D-9B9B-E078DEED62EF";
width = 811;
}
);
unicode = 20B2;
},
{
export = 0;
glyphname = kip;
lastChange = "2017-10-27 16:22:36 +0000";
layers = (
{
components = (
{
name = K;
transform = "{1, 0, 0, 1, 48, 0}";
}
);
layerId = "F333AEC5-BB61-4D5E-9EDD-6124322D28F2";
paths = (
{
closed = 1;
nodes = (
"610 325 LINE",
"610 385 LINE",
"78 385 LINE",
"78 325 LINE"
);
}
);
width = 738;
},
{
layerId = "51C2DFEF-3776-4D13-9284-96485B799B57";
width = 600;
},
{
components = (
{
name = K;
transform = "{1, 0, 0, 1, 71, 0}";
}
);
layerId = "0B2E441B-685E-400D-9B9B-E078DEED62EF";
paths = (
{
closed = 1;
nodes = (
"553 347 LINE",
"553 364 LINE",
"101 364 LINE",
"101 347 LINE"
);
}
);
width = 702;
}
);
unicode = 20AD;
},
{
export = 0;
glyphname = liraTurkish;
lastChange = "2017-10-27 16:22:36 +0000";
layers = (
{
layerId = "F333AEC5-BB61-4D5E-9EDD-6124322D28F2";
paths = (
{
closed = 1;
nodes = (
"446 0 OFFCURVE",
"582 132 OFFCURVE",
"582 330 CURVE",
"502 330 LINE",
"502 174 OFFCURVE",
"402 70 OFFCURVE",
"251 70 CURVE",
"241 0 LINE"
);
},
{
closed = 1;
nodes = (
"251 0 LINE",
"251 694 LINE",
"174 694 LINE",
"174 0 LINE"
);
},
{
closed = 1;
nodes = (
"415 571 LINE",
"387 625 LINE",
"84 446 LINE",
"110 393 LINE"
);
},
{
closed = 1;
nodes = (
"415 421 LINE",
"387 475 LINE",
"84 296 LINE",
"110 243 LINE"
);
}
);
width = 665;
},
{
layerId = "51C2DFEF-3776-4D13-9284-96485B799B57";
width = 600;
},
{
layerId = "0B2E441B-685E-400D-9B9B-E078DEED62EF";
paths = (
{
closed = 1;
nodes = (
"424 0 OFFCURVE",
"568 132 OFFCURVE",
"568 330 CURVE",
"548 330 LINE",
"548 144 OFFCURVE",
"416 20 OFFCURVE",
"247 20 CURVE",
"237 0 LINE"
);
},
{
closed = 1;
nodes = (
"248 0 LINE",
"248 694 LINE",
"228 694 LINE",
"228 0 LINE"
);
},
{
closed = 1;
nodes = (
"405 583 LINE",
"396 598 LINE",
"109 429 LINE",
"116 415 LINE"
);
},
{
closed = 1;
nodes = (
"405 433 LINE",
"396 448 LINE",
"109 279 LINE",
"116 265 LINE"
);
}
);
width = 678;
}
);
unicode = 20BA;
},
{
export = 0;
glyphname = manat;
lastChange = "2017-10-27 16:22:36 +0000";
layers = (
{
layerId = "F333AEC5-BB61-4D5E-9EDD-6124322D28F2";
paths = (
{
closed = 1;
nodes = (
"181 0 LINE",
"181 228 LINE SMOOTH",
"181 406 OFFCURVE",
"254 525 OFFCURVE",
"363 525 CURVE SMOOTH",
"478 525 OFFCURVE",
"555 402 OFFCURVE",
"555 218 CURVE SMOOTH",
"555 0 LINE",
"629 0 LINE",
"629 228 LINE SMOOTH",
"629 448 OFFCURVE",
"527 595 OFFCURVE",
"373 595 CURVE SMOOTH",
"213 595 OFFCURVE",
"107 444 OFFCURVE",
"107 218 CURVE SMOOTH",
"107 0 LINE"
);
},
{
closed = 1;
nodes = (
"406 100 LINE",
"406 694 LINE",
"332 694 LINE",
"332 100 LINE"
);
}
);
width = 737;
},
{
layerId = "51C2DFEF-3776-4D13-9284-96485B799B57";
width = 600;
},
{
layerId = "0B2E441B-685E-400D-9B9B-E078DEED62EF";
paths = (
{
closed = 1;
nodes = (
"155 0 LINE",
"155 225 LINE SMOOTH",
"155 421 OFFCURVE",
"240 551 OFFCURVE",
"367 551 CURVE SMOOTH",
"496 551 OFFCURVE",
"582 419 OFFCURVE",
"582 222 CURVE SMOOTH",
"582 0 LINE",
"602 0 LINE",
"602 225 LINE SMOOTH",
"602 431 OFFCURVE",
"509 569 OFFCURVE",
"370 569 CURVE SMOOTH",
"228 569 OFFCURVE",
"134 430 OFFCURVE",
"134 222 CURVE SMOOTH",
"134 0 LINE"
);
},
{
closed = 1;
nodes = (
"379 100 LINE",
"379 694 LINE",
"359 694 LINE",
"359 100 LINE"
);
}
);
width = 736;
}
);
unicode = 20BC;
},
{
export = 0;
glyphname = naira;
lastChange = "2017-10-27 16:22:36 +0000";
layers = (
{
components = (
{
name = N;
transform = "{1, 0, 0, 1, 68, 0}";
}
);
layerId = "F333AEC5-BB61-4D5E-9EDD-6124322D28F2";
paths = (
{
closed = 1;
nodes = (
"700 384 LINE",
"835 384 LINE",
"835 444 LINE",
"700 444 LINE"
);
},
{
closed = 1;
nodes = (
"700 254 LINE",
"835 254 LINE",
"835 314 LINE",
"700 314 LINE"
);
},
{
closed = 1;
nodes = (
"225 314 LINE",
"89 314 LINE",
"89 254 LINE",
"225 254 LINE"
);
},
{
closed = 1;
nodes = (
"225 444 LINE",
"89 444 LINE",
"89 384 LINE",
"225 384 LINE"
);
}
);
width = 924;
},
{
layerId = "51C2DFEF-3776-4D13-9284-96485B799B57";
width = 600;
},
{
components = (
{
name = N;
transform = "{1, 0, 0, 1, 73, 0}";
}
);
layerId = "0B2E441B-685E-400D-9B9B-E078DEED62EF";
paths = (
{
closed = 1;
nodes = (
"690 406 LINE",
"795 406 LINE",
"795 423 LINE",
"690 423 LINE"
);
},
{
closed = 1;
nodes = (
"690 276 LINE",
"795 276 LINE",
"795 293 LINE",
"690 293 LINE"
);
},
{
closed = 1;
nodes = (
"215 293 LINE",
"109 293 LINE",
"109 276 LINE",
"215 276 LINE"
);
},
{
closed = 1;
nodes = (
"215 423 LINE",
"109 423 LINE",
"109 406 LINE",
"215 406 LINE"
);
}
);
width = 904;
}
);
unicode = 20A6;
},
{
export = 0;
glyphname = peseta;
lastChange = "2017-10-27 16:22:36 +0000";
layers = (
{
components = (
{
name = P;
transform = "{1, 0, 0, 1, 62, 0}";
}
);
layerId = "F333AEC5-BB61-4D5E-9EDD-6124322D28F2";
paths = (
{
closed = 1;
nodes = (
"589 434 LINE",
"720 434 LINE",
"720 494 LINE",
"589 494 LINE"
);
},
{
closed = 1;
nodes = (
"209 494 LINE",
"78 494 LINE",
"78 434 LINE",
"209 434 LINE"
);
}
);
width = 798;
},
{
layerId = "51C2DFEF-3776-4D13-9284-96485B799B57";
width = 600;
},
{
components = (
{
name = P;
transform = "{1, 0, 0, 1, 59, 0}";
}
);
layerId = "0B2E441B-685E-400D-9B9B-E078DEED62EF";
paths = (
{
closed = 1;
nodes = (
"567 456 LINE",
"672 456 LINE",
"672 473 LINE",
"567 473 LINE"
);
},
{
closed = 1;
nodes = (
"206 473 LINE",
"101 473 LINE",
"101 456 LINE",
"206 456 LINE"
);
}
);
width = 773;
}
);
unicode = 20A7;
},
{
export = 0;
glyphname = peso;
lastChange = "2017-10-27 16:22:36 +0000";
layers = (
{
components = (
{
name = P;
transform = "{1, 0, 0, 1, 74, 0}";
}
);
layerId = "F333AEC5-BB61-4D5E-9EDD-6124322D28F2";
paths = (
{
closed = 1;
nodes = (
"601 504 LINE",
"722 504 LINE",
"722 564 LINE",
"601 564 LINE"
);
},
{
closed = 1;
nodes = (
"221 564 LINE",
"90 564 LINE",
"90 504 LINE",
"221 504 LINE"
);
},
{
closed = 1;
nodes = (
"601 364 LINE",
"722 364 LINE",
"722 424 LINE",
"601 424 LINE"
);
},
{
closed = 1;
nodes = (
"221 424 LINE",
"90 424 LINE",
"90 364 LINE",
"221 364 LINE"
);
}
);
width = 812;
},
{
layerId = "51C2DFEF-3776-4D13-9284-96485B799B57";
width = 600;
},
{
components = (
{
name = P;
transform = "{1, 0, 0, 1, 67, 0}";
}
);
layerId = "0B2E441B-685E-400D-9B9B-E078DEED62EF";
paths = (
{
closed = 1;
nodes = (
"575 526 LINE",
"670 526 LINE",
"670 543 LINE",
"575 543 LINE"
);
},
{
closed = 1;
nodes = (
"214 543 LINE",
"109 543 LINE",
"109 526 LINE",
"214 526 LINE"
);
},
{
closed = 1;
nodes = (
"575 387 LINE",
"670 387 LINE",
"670 404 LINE",
"575 404 LINE"
);
},
{
closed = 1;
nodes = (
"214 404 LINE",
"109 404 LINE",
"109 387 LINE",
"214 387 LINE"
);
}
);
width = 779;
}
);
unicode = 20B1;
},
{
export = 0;
glyphname = ruble;
lastChange = "2017-10-27 16:22:36 +0000";
layers = (
{
layerId = "F333AEC5-BB61-4D5E-9EDD-6124322D28F2";
paths = (
{
closed = 1;
nodes = (
"280 0 LINE",
"280 694 LINE",
"197 694 LINE",
"197 0 LINE"
);
},
{
closed = 1;
nodes = (
"403 242 LINE SMOOTH",
"562 242 OFFCURVE",
"657 337 OFFCURVE",
"657 468 CURVE SMOOTH",
"657 602 OFFCURVE",
"558 694 OFFCURVE",
"413 694 CURVE SMOOTH",
"250 694 LINE",
"250 622 LINE",
"403 622 LINE SMOOTH",
"508 622 OFFCURVE",
"572 558 OFFCURVE",
"572 458 CURVE SMOOTH",
"572 365 OFFCURVE",
"517 314 OFFCURVE",
"413 314 CURVE SMOOTH",
"91 314 LINE",
"91 242 LINE"
);
},
{
closed = 1;
nodes = (
"444 105 LINE",
"444 165 LINE",
"91 165 LINE",
"91 105 LINE"
);
}
);
width = 746;
},
{
layerId = "51C2DFEF-3776-4D13-9284-96485B799B57";
width = 600;
},
{
layerId = "0B2E441B-685E-400D-9B9B-E078DEED62EF";
paths = (
{
closed = 1;
nodes = (
"221 0 LINE",
"221 694 LINE",
"200 694 LINE",
"200 0 LINE"
);
},
{
closed = 1;
nodes = (
"346 263 LINE SMOOTH",
"514 263 OFFCURVE",
"602 343 OFFCURVE",
"602 480 CURVE SMOOTH",
"602 615 OFFCURVE",
"517 694 OFFCURVE",
"351 694 CURVE SMOOTH",
"215 694 LINE",
"215 676 LINE",
"346 676 LINE SMOOTH",
"502 676 OFFCURVE",
"580 602 OFFCURVE",
"580 477 CURVE SMOOTH",
"580 353 OFFCURVE",
"504 281 OFFCURVE",
"351 281 CURVE SMOOTH",
"109 281 LINE",
"109 263 LINE"
);
},
{
closed = 1;
nodes = (
"405 127 LINE",
"405 144 LINE",
"109 144 LINE",
"109 127 LINE"
);
}
);
width = 719;
}
);
unicode = 20BD;
},
{
export = 0;
glyphname = rupeeIndian;
lastChange = "2017-10-27 16:22:36 +0000";
layers = (
{
layerId = "F333AEC5-BB61-4D5E-9EDD-6124322D28F2";
paths = (
{
closed = 1;
nodes = (
"268 295 LINE SMOOTH",
"411 295 OFFCURVE",
"510 372 OFFCURVE",
"510 499 CURVE SMOOTH",
"510 625 OFFCURVE",
"412 694 OFFCURVE",
"278 694 CURVE SMOOTH",
"101 694 LINE",
"101 632 LINE",
"268 632 LINE SMOOTH",
"365 632 OFFCURVE",
"425 584 OFFCURVE",
"425 491 CURVE SMOOTH",
"425 401 OFFCURVE",
"369 359 OFFCURVE",
"278 359 CURVE SMOOTH",
"101 359 LINE",
"101 295 LINE"
);
},
{
closed = 1;
nodes = (
"580 0 LINE",
"365 310 LINE",
"270 310 LINE",
"481 0 LINE"
);
},
{
closed = 1;
nodes = (
"593 466 LINE",
"593 526 LINE",
"101 526 LINE",
"101 466 LINE"
);
},
{
closed = 1;
nodes = (
"593 638 LINE",
"593 698 LINE",
"101 698 LINE",
"101 638 LINE"
);
}
);
width = 684;
},
{
layerId = "51C2DFEF-3776-4D13-9284-96485B799B57";
width = 600;
},
{
layerId = "0B2E441B-685E-400D-9B9B-E078DEED62EF";
paths = (
{
closed = 1;
nodes = (
"282 304 LINE SMOOTH",
"436 304 OFFCURVE",
"520 378 OFFCURVE",
"520 502 CURVE SMOOTH",
"520 623 OFFCURVE",
"438 694 OFFCURVE",
"286 694 CURVE SMOOTH",
"115 694 LINE",
"115 676 LINE",
"282 676 LINE SMOOTH",
"424 676 OFFCURVE",
"498 612 OFFCURVE",
"498 499 CURVE SMOOTH",
"498 387 OFFCURVE",
"424 321 OFFCURVE",
"288 321 CURVE SMOOTH",
"115 321 LINE",
"115 304 LINE"
);
},
{
closed = 1;
nodes = (
"552 0 LINE",
"367 317 LINE",
"345 317 LINE",
"526 0 LINE"
);
},
{
closed = 1;
nodes = (
"597 488 LINE",
"597 505 LINE",
"115 505 LINE",
"115 488 LINE"
);
},
{
closed = 1;
nodes = (
"597 677 LINE",
"597 694 LINE",
"115 694 LINE",
"115 677 LINE"
);
}
);
width = 704;
}
);
unicode = 20B9;
},
{
export = 0;
glyphname = won;
lastChange = "2017-10-27 16:22:36 +0000";
layers = (
{
components = (
{
name = W;
transform = "{1, 0, 0, 1, 76, 0}";
}
);
layerId = "F333AEC5-BB61-4D5E-9EDD-6124322D28F2";
paths = (
{
closed = 1;
nodes = (
"266 252 LINE",
"266 312 LINE",
"94 312 LINE",
"94 252 LINE"
);
},
{
closed = 1;
nodes = (
"236 392 LINE",
"236 452 LINE",
"94 452 LINE",
"94 392 LINE"
);
},
{
closed = 1;
nodes = (
"1084 312 LINE",
"912 312 LINE",
"912 252 LINE",
"1084 252 LINE"
);
},
{
closed = 1;
nodes = (
"1084 452 LINE",
"942 452 LINE",
"942 392 LINE",
"1084 392 LINE"
);
}
);
width = 1185;
},
{
layerId = "51C2DFEF-3776-4D13-9284-96485B799B57";
width = 600;
},
{
components = (
{
name = W;
transform = "{1, 0, 0, 1, 76, 0}";
}
);
layerId = "0B2E441B-685E-400D-9B9B-E078DEED62EF";
paths = (
{
closed = 1;
nodes = (
"276 274 LINE",
"276 291 LINE",
"114 291 LINE",
"114 274 LINE"
);
},
{
closed = 1;
nodes = (
"236 415 LINE",
"236 430 LINE",
"114 430 LINE",
"114 415 LINE"
);
},
{
closed = 1;
nodes = (
"1054 291 LINE",
"902 291 LINE",
"902 274 LINE",
"1054 274 LINE"
);
},
{
closed = 1;
nodes = (
"1054 431 LINE",
"942 431 LINE",
"942 414 LINE",
"1054 414 LINE"
);
}
);
width = 1174;
}
);
unicode = 20A9;
},
{
export = 0;
glyphname = yen;
lastChange = "2017-10-27 16:22:36 +0000";
layers = (
{
components = (
{
name = Y;
transform = "{1, 0, 0, 1, 30, 0}";
}
);
layerId = "F333AEC5-BB61-4D5E-9EDD-6124322D28F2";
paths = (
{
closed = 1;
nodes = (
"502 128 LINE",
"502 188 LINE",
"190 188 LINE",
"190 128 LINE"
);
},
{
closed = 1;
nodes = (
"502 268 LINE",
"502 328 LINE",
"190 328 LINE",
"190 268 LINE"
);
}
);
width = 710;
},
{
layerId = "51C2DFEF-3776-4D13-9284-96485B799B57";
width = 600;
},
{
components = (
{
name = Y;
transform = "{1, 0, 0, 1, 36, 0}";
}
);
layerId = "0B2E441B-685E-400D-9B9B-E078DEED62EF";
paths = (
{
closed = 1;
nodes = (
"478 200 LINE",
"478 217 LINE",
"166 217 LINE",
"166 200 LINE"
);
},
{
closed = 1;
nodes = (
"478 340 LINE",
"478 357 LINE",
"166 357 LINE",
"166 340 LINE"
);
}
);
width = 672;
}
);
unicode = 00A5;
},
{
glyphname = plus;
lastChange = "2017-10-28 15:29:57 +0000";
layers = (
{
layerId = "F333AEC5-BB61-4D5E-9EDD-6124322D28F2";
paths = (
{
closed = 1;
nodes = (
"365 92 LINE",
"365 620 LINE",
"295 620 LINE",
"295 92 LINE"
);
},
{
closed = 1;
nodes = (
"579 326 LINE",
"579 395 LINE",
"75 395 LINE",
"75 326 LINE"
);
}
);
width = 654;
},
{
layerId = "51C2DFEF-3776-4D13-9284-96485B799B57";
paths = (
{
closed = 1;
nodes = (
"396 89 LINE",
"396 623 LINE",
"236 623 LINE",
"236 89 LINE"
);
},
{
closed = 1;
nodes = (
"582 281 LINE",
"582 436 LINE",
"48 436 LINE",
"48 281 LINE"
);
}
);
width = 630;
},
{
layerId = "0B2E441B-685E-400D-9B9B-E078DEED62EF";
paths = (
{
closed = 1;
nodes = (
"345 92 LINE",
"345 618 LINE",
"327 618 LINE",
"327 92 LINE"
);
},
{
closed = 1;
nodes = (
"573 352 LINE",
"573 369 LINE",
"94 369 LINE",
"94 352 LINE"
);
}
);
width = 667;
}
);
unicode = 002B;
},
{
glyphname = minus;
lastChange = "2017-10-28 15:29:57 +0000";
layers = (
{
layerId = "F333AEC5-BB61-4D5E-9EDD-6124322D28F2";
paths = (
{
closed = 1;
nodes = (
"617 326 LINE",
"617 395 LINE",
"128 395 LINE",
"128 326 LINE"
);
}
);
width = 745;
},
{
layerId = "51C2DFEF-3776-4D13-9284-96485B799B57";
paths = (
{
closed = 1;
nodes = (
"610 286 LINE",
"610 435 LINE",
"91 435 LINE",
"91 286 LINE"
);
}
);
width = 701;
},
{
layerId = "0B2E441B-685E-400D-9B9B-E078DEED62EF";
paths = (
{
closed = 1;
nodes = (
"617 352 LINE",
"617 369 LINE",
"154 369 LINE",
"154 352 LINE"
);
}
);
width = 771;
}
);
unicode = 2212;
},
{
glyphname = multiply;
lastChange = "2017-10-28 15:29:58 +0000";
layers = (
{
layerId = "F333AEC5-BB61-4D5E-9EDD-6124322D28F2";
paths = (
{
closed = 1;
nodes = (
"510 160 LINE",
"135 557 LINE",
"85 507 LINE",
"460 110 LINE"
);
},
{
closed = 1;
nodes = (
"506 503 LINE",
"456 553 LINE",
"77 166 LINE",
"127 116 LINE"
);
}
);
width = 588;
},
{
layerId = "51C2DFEF-3776-4D13-9284-96485B799B57";
paths = (
{
closed = 1;
nodes = (
"539 195 LINE",
"160 583 LINE",
"40 463 LINE",
"419 75 LINE"
);
},
{
closed = 1;
nodes = (
"538 464 LINE",
"421 581 LINE",
"42 194 LINE",
"159 77 LINE"
);
}
);
width = 578;
},
{
layerId = "0B2E441B-685E-400D-9B9B-E078DEED62EF";
paths = (
{
closed = 1;
nodes = (
"482 139 LINE",
"116 536 LINE",
"105 525 LINE",
"471 128 LINE"
);
},
{
closed = 1;
nodes = (
"478 523 LINE",
"467 534 LINE",
"99 146 LINE",
"110 135 LINE"
);
}
);
width = 581;
}
);
unicode = 00D7;
},
{
glyphname = divide;
lastChange = "2017-10-28 15:29:57 +0000";
layers = (
{
components = (
{
name = _dot;
transform = "{1, 0, 0, 1, 193, -101}";
},
{
name = _dot;
transform = "{1, 0, 0, 1, 193, -495}";
}
);
layerId = "F333AEC5-BB61-4D5E-9EDD-6124322D28F2";
paths = (
{
closed = 1;
nodes = (
"567 326 LINE",
"567 395 LINE",
"75 395 LINE",
"75 326 LINE"
);
}
);
width = 648;
},
{
components = (
{
name = _dot;
transform = "{1, 0, 0, 1, 149, -119}";
},
{
name = _dot;
transform = "{1, 0, 0, 1, 149, -517}";
}
);
layerId = "51C2DFEF-3776-4D13-9284-96485B799B57";
paths = (
{
closed = 1;
nodes = (
"584 292 LINE",
"584 427 LINE",
"42 427 LINE",
"42 292 LINE"
);
}
);
width = 626;
},
{
components = (
{
name = _dot;
transform = "{1, 0, 0, 1, 228, -69}";
},
{
name = _dot;
transform = "{1, 0, 0, 1, 240, -473}";
}
);
layerId = "0B2E441B-685E-400D-9B9B-E078DEED62EF";
paths = (
{
closed = 1;
nodes = (
"544 349 LINE",
"544 366 LINE",
"92 366 LINE",
"92 349 LINE"
);
}
);
width = 656;
}
);
unicode = 00F7;
},
{
glyphname = equal;
lastChange = "2017-10-28 15:29:58 +0000";
layers = (
{
layerId = "F333AEC5-BB61-4D5E-9EDD-6124322D28F2";
paths = (
{
closed = 1;
nodes = (
"593 436 LINE",
"593 505 LINE",
"128 505 LINE",
"128 436 LINE"
);
},
{
closed = 1;
nodes = (
"593 196 LINE",
"593 265 LINE",
"128 265 LINE",
"128 196 LINE"
);
}
);
width = 721;
},
{
layerId = "51C2DFEF-3776-4D13-9284-96485B799B57";
paths = (
{
closed = 1;
nodes = (
"576 396 LINE",
"576 546 LINE",
"91 546 LINE",
"91 396 LINE"
);
},
{
closed = 1;
nodes = (
"576 156 LINE",
"576 306 LINE",
"91 306 LINE",
"91 156 LINE"
);
}
);
width = 667;
},
{
layerId = "0B2E441B-685E-400D-9B9B-E078DEED62EF";
paths = (
{
closed = 1;
nodes = (
"584 462 LINE",
"584 479 LINE",
"154 479 LINE",
"154 462 LINE"
);
},
{
closed = 1;
nodes = (
"584 222 LINE",
"584 239 LINE",
"154 239 LINE",
"154 222 LINE"
);
}
);
width = 738;
}
);
unicode = 003D;
},
{
glyphname = notequal;
lastChange = "2017-10-28 15:29:56 +0000";
layers = (
{
layerId = "F333AEC5-BB61-4D5E-9EDD-6124322D28F2";
paths = (
{
closed = 1;
nodes = (
"494 577 LINE",
"440 608 LINE",
"171 122 LINE",
"221 94 LINE"
);
},
{
closed = 1;
nodes = (
"560 196 LINE",
"560 265 LINE",
"95 265 LINE",
"95 196 LINE"
);
},
{
closed = 1;
nodes = (
"560 436 LINE",
"560 505 LINE",
"95 505 LINE",
"95 436 LINE"
);
}
);
width = 655;
},
{
layerId = "51C2DFEF-3776-4D13-9284-96485B799B57";
paths = (
{
closed = 1;
nodes = (
"523 603 LINE",
"416 664 LINE",
"100 94 LINE",
"203 36 LINE"
);
},
{
closed = 1;
nodes = (
"555 156 LINE",
"555 306 LINE",
"70 306 LINE",
"70 156 LINE"
);
},
{
closed = 1;
nodes = (
"555 396 LINE",
"555 546 LINE",
"70 546 LINE",
"70 396 LINE"
);
}
);
width = 625;
},
{
layerId = "0B2E441B-685E-400D-9B9B-E078DEED62EF";
paths = (
{
closed = 1;
nodes = (
"446 589 LINE",
"433 598 LINE",
"190 115 LINE",
"203 106 LINE"
);
},
{
closed = 1;
nodes = (
"521 222 LINE",
"521 239 LINE",
"106 239 LINE",
"106 222 LINE"
);
},
{
closed = 1;
nodes = (
"521 462 LINE",
"521 479 LINE",
"106 479 LINE",
"106 462 LINE"
);
}
);
width = 627;
}
);
unicode = 2260;
},
{
glyphname = greater;
lastChange = "2017-10-28 15:29:58 +0000";
layers = (
{
layerId = "F333AEC5-BB61-4D5E-9EDD-6124322D28F2";
paths = (
{
closed = 1;
nodes = (
"534 306 LINE",
"534 370 LINE",
"88 599 LINE",
"88 516 LINE",
"478 325 LINE",
"478 353 LINE",
"88 163 LINE",
"88 85 LINE"
);
}
);
width = 609;
},
{
layerId = "51C2DFEF-3776-4D13-9284-96485B799B57";
paths = (
{
closed = 1;
nodes = (
"526 266 LINE",
"526 420 LINE",
"70 630 LINE",
"70 455 LINE",
"370 325 LINE",
"370 353 LINE",
"70 217 LINE",
"70 51 LINE"
);
}
);
width = 572;
},
{
layerId = "0B2E441B-685E-400D-9B9B-E078DEED62EF";
paths = (
{
closed = 1;
nodes = (
"513 328 LINE",
"513 352 LINE",
"97 587 LINE",
"97 567 LINE",
"508 334 LINE",
"508 345 LINE",
"97 113 LINE",
"97 94 LINE"
);
}
);
width = 608;
}
);
unicode = 003E;
},
{
glyphname = greaterequal;
lastChange = "2017-10-28 15:29:57 +0000";
layers = (
{
layerId = "F333AEC5-BB61-4D5E-9EDD-6124322D28F2";
paths = (
{
closed = 1;
nodes = (
"569 379 LINE",
"569 438 LINE",
"98 626 LINE",
"98 553 LINE",
"508 400 LINE",
"507 422 LINE",
"98 264 LINE",
"98 198 LINE"
);
},
{
closed = 1;
nodes = (
"569 61 LINE",
"569 126 LINE",
"104 126 LINE",
"104 61 LINE"
);
}
);
width = 654;
},
{
layerId = "51C2DFEF-3776-4D13-9284-96485B799B57";
paths = (
{
closed = 1;
nodes = (
"548 369 LINE",
"548 498 LINE",
"80 667 LINE",
"80 512 LINE",
"387 420 LINE",
"386 442 LINE",
"80 346 LINE",
"80 196 LINE"
);
},
{
closed = 1;
nodes = (
"548 26 LINE",
"548 161 LINE",
"80 161 LINE",
"80 26 LINE"
);
}
);
width = 608;
},
{
layerId = "0B2E441B-685E-400D-9B9B-E078DEED62EF";
paths = (
{
closed = 1;
nodes = (
"586 397 LINE",
"586 423 LINE",
"115 599 LINE",
"115 580 LINE",
"583 406 LINE",
"583 413 LINE",
"115 239 LINE",
"115 222 LINE"
);
},
{
closed = 1;
nodes = (
"586 85 LINE",
"586 102 LINE",
"121 102 LINE",
"121 85 LINE"
);
}
);
width = 692;
}
);
unicode = 2265;
},
{
glyphname = Ohm;
lastChange = "2017-10-28 15:29:59 +0000";
layers = (
{
layerId = "F333AEC5-BB61-4D5E-9EDD-6124322D28F2";
paths = (
{
closed = 1;
nodes = (
"342 0 LINE",
"342 53 LINE",
"251 124 OFFCURVE",
"190 260 OFFCURVE",
"190 394 CURVE SMOOTH",
"190 538 OFFCURVE",
"276 631 OFFCURVE",
"407 631 CURVE SMOOTH",
"543 631 OFFCURVE",
"640 529 OFFCURVE",
"640 388 CURVE SMOOTH",
"640 266 OFFCURVE",
"578 132 OFFCURVE",
"486 53 CURVE",
"486 0 LINE",
"738 0 LINE",
"738 72 LINE",
"574 72 LINE",
"663 135 OFFCURVE",
"722 265 OFFCURVE",
"722 397 CURVE SMOOTH",
"722 581 OFFCURVE",
"600 704 OFFCURVE",
"418 704 CURVE SMOOTH",
"231 704 OFFCURVE",
"107 576 OFFCURVE",
"107 385 CURVE SMOOTH",
"107 247 OFFCURVE",
"166 122 OFFCURVE",
"255 72 CURVE",
"89 72 LINE",
"89 0 LINE"
);
}
);
width = 827;
},
{
layerId = "51C2DFEF-3776-4D13-9284-96485B799B57";
paths = (
{
closed = 1;
nodes = (
"346 0 LINE",
"346 115 LINE",
"285 175 OFFCURVE",
"245 286 OFFCURVE",
"245 393 CURVE SMOOTH",
"245 490 OFFCURVE",
"301 554 OFFCURVE",
"386 554 CURVE SMOOTH",
"476 554 OFFCURVE",
"536 487 OFFCURVE",
"536 387 CURVE SMOOTH",
"536 290 OFFCURVE",
"495 181 OFFCURVE",
"434 115 CURVE",
"434 0 LINE",
"719 0 LINE",
"719 156 LINE",
"587 156 LINE",
"665 194 OFFCURVE",
"717 290 OFFCURVE",
"717 397 CURVE SMOOTH",
"717 581 OFFCURVE",
"588 704 OFFCURVE",
"394 704 CURVE SMOOTH",
"197 704 OFFCURVE",
"65 576 OFFCURVE",
"65 383 CURVE SMOOTH",
"65 278 OFFCURVE",
"116 187 OFFCURVE",
"192 156 CURVE",
"70 156 LINE",
"70 0 LINE"
);
}
);
width = 785;
},
{
layerId = "0B2E441B-685E-400D-9B9B-E078DEED62EF";
paths = (
{
closed = 1;
nodes = (
"339 0 LINE",
"339 13 LINE",
"223 98 OFFCURVE",
"146 249 OFFCURVE",
"146 391 CURVE SMOOTH",
"146 567 OFFCURVE",
"252 685 OFFCURVE",
"411 685 CURVE SMOOTH",
"575 685 OFFCURVE",
"685 567 OFFCURVE",
"685 391 CURVE SMOOTH",
"685 260 OFFCURVE",
"607 108 OFFCURVE",
"490 13 CURVE",
"490 0 LINE",
"716 0 LINE",
"716 18 LINE",
"523 18 LINE",
"633 115 OFFCURVE",
"707 266 OFFCURVE",
"707 394 CURVE SMOOTH",
"707 580 OFFCURVE",
"590 704 OFFCURVE",
"414 704 CURVE SMOOTH",
"240 704 OFFCURVE",
"124 578 OFFCURVE",
"124 388 CURVE SMOOTH",
"124 245 OFFCURVE",
"197 97 OFFCURVE",
"306 18 CURVE",
"113 18 LINE",
"113 0 LINE"
);
}
);
width = 829;
}
);
unicode = 2126;
},
{
glyphname = product;
lastChange = "2017-10-28 15:29:57 +0000";
layers = (
{
layerId = "F333AEC5-BB61-4D5E-9EDD-6124322D28F2";
paths = (
{
closed = 1;
nodes = (
"211 -95 LINE",
"211 622 LINE",
"581 622 LINE",
"581 -95 LINE",
"664 -95 LINE",
"664 694 LINE",
"128 694 LINE",
"128 -95 LINE"
);
}
);
width = 792;
},
{
layerId = "51C2DFEF-3776-4D13-9284-96485B799B57";
paths = (
{
closed = 1;
nodes = (
"267 -95 LINE",
"267 538 LINE",
"544 538 LINE",
"544 -95 LINE",
"720 -95 LINE",
"720 694 LINE",
"91 694 LINE",
"91 -95 LINE"
);
}
);
width = 811;
},
{
layerId = "0B2E441B-685E-400D-9B9B-E078DEED62EF";
paths = (
{
closed = 1;
nodes = (
"174 -95 LINE",
"174 676 LINE",
"608 676 LINE",
"608 -95 LINE",
"628 -95 LINE",
"628 694 LINE",
"154 694 LINE",
"154 -95 LINE"
);
}
);
width = 782;
}
);
unicode = 220F;
},
{
glyphname = summation;
lastChange = "2017-10-28 15:29:59 +0000";
layers = (
{
layerId = "F333AEC5-BB61-4D5E-9EDD-6124322D28F2";
paths = (
{
closed = 1;
nodes = (
"584 -95 LINE",
"584 -24 LINE",
"175 -24 LINE",
"459 299 LINE",
"178 622 LINE",
"584 622 LINE",
"584 694 LINE",
"74 694 LINE",
"74 638 LINE",
"363 299 LINE",
"74 -39 LINE",
"74 -95 LINE"
);
}
);
width = 659;
},
{
layerId = "51C2DFEF-3776-4D13-9284-96485B799B57";
paths = (
{
closed = 1;
nodes = (
"599 -95 LINE",
"599 61 LINE",
"273 61 LINE",
"465 299 LINE",
"276 538 LINE",
"599 538 LINE",
"599 694 LINE",
"49 694 LINE",
"49 573 LINE",
"267 299 LINE",
"49 28 LINE",
"49 -95 LINE"
);
}
);
width = 652;
},
{
layerId = "0B2E441B-685E-400D-9B9B-E078DEED62EF";
paths = (
{
closed = 1;
nodes = (
"593 -95 LINE",
"593 -78 LINE",
"117 -78 LINE",
"400 299 LINE",
"120 675 LINE",
"593 677 LINE",
"593 694 LINE",
"93 694 LINE",
"93 680 LINE",
"376 299 LINE",
"93 -81 LINE",
"93 -95 LINE"
);
}
);
width = 684;
}
);
unicode = 2211;
},
{
glyphname = radical;
lastChange = "2017-10-28 15:29:59 +0000";
layers = (
{
layerId = "F333AEC5-BB61-4D5E-9EDD-6124322D28F2";
paths = (
{
closed = 1;
nodes = (
"371 -59 LINE",
"521 739 LINE",
"434 739 LINE",
"323 59 LINE",
"247 303 LINE",
"69 303 LINE",
"69 231 LINE",
"185 231 LINE",
"291 -59 LINE"
);
}
);
width = 594;
},
{
layerId = "51C2DFEF-3776-4D13-9284-96485B799B57";
paths = (
{
closed = 1;
nodes = (
"435 -59 LINE",
"585 739 LINE",
"409 739 LINE",
"317 190 LINE",
"266 343 LINE",
"38 343 LINE",
"38 193 LINE",
"164 193 LINE",
"265 -59 LINE"
);
}
);
width = 621;
},
{
layerId = "0B2E441B-685E-400D-9B9B-E078DEED62EF";
paths = (
{
closed = 1;
nodes = (
"374 -59 LINE",
"515 739 LINE",
"494 739 LINE",
"362 -27 LINE",
"242 276 LINE",
"90 276 LINE",
"90 259 LINE",
"228 259 LINE",
"355 -59 LINE"
);
}
);
width = 615;
}
);
unicode = 221A;
},
{
export = 0;
glyphname = equivalence;
lastChange = "2017-10-27 16:22:36 +0000";
layers = (
{
layerId = "F333AEC5-BB61-4D5E-9EDD-6124322D28F2";
paths = (
{
closed = 1;
nodes = (
"593 476 LINE",
"593 545 LINE",
"128 545 LINE",
"128 476 LINE"
);
},
{
closed = 1;
nodes = (
"593 132 LINE",
"593 201 LINE",
"128 201 LINE",
"128 132 LINE"
);
},
{
closed = 1;
nodes = (
"593 304 LINE",
"593 373 LINE",
"128 373 LINE",
"128 304 LINE"
);
}
);
width = 721;
},
{
layerId = "51C2DFEF-3776-4D13-9284-96485B799B57";
width = 600;
},
{
layerId = "0B2E441B-685E-400D-9B9B-E078DEED62EF";
paths = (
{
closed = 1;
nodes = (
"569 502 LINE",
"569 519 LINE",
"154 519 LINE",
"154 502 LINE"
);
},
{
closed = 1;
nodes = (
"569 158 LINE",
"569 175 LINE",
"154 175 LINE",
"154 158 LINE"
);
},
{
closed = 1;
nodes = (
"569 330 LINE",
"569 347 LINE",
"154 347 LINE",
"154 330 LINE"
);
}
);
width = 723;
}
);
unicode = 2261;
},
{
export = 0;
glyphname = notidentical;
lastChange = "2017-10-27 16:22:36 +0000";
layers = (
{
layerId = "F333AEC5-BB61-4D5E-9EDD-6124322D28F2";
paths = (
{
closed = 1;
nodes = (
"530 614 LINE",
"476 645 LINE",
"151 60 LINE",
"201 32 LINE"
);
},
{
closed = 1;
nodes = (
"569 476 LINE",
"569 545 LINE",
"104 545 LINE",
"104 476 LINE"
);
},
{
closed = 1;
nodes = (
"569 132 LINE",
"569 201 LINE",
"104 201 LINE",
"104 132 LINE"
);
},
{
closed = 1;
nodes = (
"569 304 LINE",
"569 373 LINE",
"104 373 LINE",
"104 304 LINE"
);
}
);
width = 674;
},
{
layerId = "51C2DFEF-3776-4D13-9284-96485B799B57";
width = 600;
},
{
layerId = "0B2E441B-685E-400D-9B9B-E078DEED62EF";
paths = (
{
closed = 1;
nodes = (
"485 607 LINE",
"472 616 LINE",
"172 72 LINE",
"185 63 LINE"
);
},
{
closed = 1;
nodes = (
"531 502 LINE",
"531 519 LINE",
"116 519 LINE",
"116 502 LINE"
);
},
{
closed = 1;
nodes = (
"531 158 LINE",
"531 175 LINE",
"116 175 LINE",
"116 158 LINE"
);
},
{
closed = 1;
nodes = (
"531 330 LINE",
"531 347 LINE",
"116 347 LINE",
"116 330 LINE"
);
}
);
width = 647;
}
);
unicode = 2262;
},
{
export = 0;
glyphname = plusminus;
lastChange = "2017-10-27 16:22:36 +0000";
layers = (
{
layerId = "F333AEC5-BB61-4D5E-9EDD-6124322D28F2";
paths = (
{
closed = 1;
nodes = (
"359 177 LINE",
"359 653 LINE",
"289 653 LINE",
"289 177 LINE"
);
},
{
closed = 1;
nodes = (
"558 69 LINE",
"558 134 LINE",
"96 134 LINE",
"96 69 LINE"
);
},
{
closed = 1;
nodes = (
"559 385 LINE",
"559 454 LINE",
"83 454 LINE",
"83 385 LINE"
);
}
);
width = 644;
},
{
layerId = "51C2DFEF-3776-4D13-9284-96485B799B57";
width = 600;
},
{
layerId = "0B2E441B-685E-400D-9B9B-E078DEED62EF";
paths = (
{
closed = 1;
nodes = (
"334 177 LINE",
"334 653 LINE",
"315 653 LINE",
"315 177 LINE"
);
},
{
closed = 1;
nodes = (
"543 93 LINE",
"543 110 LINE",
"110 110 LINE",
"110 93 LINE"
);
},
{
closed = 1;
nodes = (
"544 411 LINE",
"544 428 LINE",
"98 428 LINE",
"98 411 LINE"
);
}
);
width = 643;
}
);
unicode = 00B1;
},
{
export = 0;
glyphname = approxequal;
lastChange = "2017-10-27 16:22:36 +0000";
layers = (
{
layerId = "F333AEC5-BB61-4D5E-9EDD-6124322D28F2";
paths = (
{
closed = 1;
nodes = (
"153 419 OFFCURVE",
"196 453 OFFCURVE",
"239 453 CURVE SMOOTH",
"305 453 OFFCURVE",
"337 377 OFFCURVE",
"412 377 CURVE SMOOTH",
"465 377 OFFCURVE",
"526 414 OFFCURVE",
"548 500 CURVE",
"504 517 LINE",
"487 474 OFFCURVE",
"455 447 OFFCURVE",
"418 447 CURVE SMOOTH",
"357 447 OFFCURVE",
"332 523 OFFCURVE",
"244 523 CURVE SMOOTH",
"188 523 OFFCURVE",
"122 493 OFFCURVE",
"96 398 CURVE",
"140 381 LINE"
);
},
{
closed = 1;
nodes = (
"153 219 OFFCURVE",
"196 253 OFFCURVE",
"239 253 CURVE SMOOTH",
"304 253 OFFCURVE",
"336 177 OFFCURVE",
"412 177 CURVE SMOOTH",
"465 177 OFFCURVE",
"526 214 OFFCURVE",
"548 300 CURVE",
"504 317 LINE",
"487 274 OFFCURVE",
"455 247 OFFCURVE",
"418 247 CURVE SMOOTH",
"357 247 OFFCURVE",
"332 323 OFFCURVE",
"244 323 CURVE SMOOTH",
"188 323 OFFCURVE",
"122 293 OFFCURVE",
"96 198 CURVE",
"140 181 LINE"
);
}
);
width = 644;
},
{
layerId = "51C2DFEF-3776-4D13-9284-96485B799B57";
width = 600;
},
{
layerId = "0B2E441B-685E-400D-9B9B-E078DEED62EF";
paths = (
{
closed = 1;
nodes = (
"143 445 OFFCURVE",
"185 484 OFFCURVE",
"234 484 CURVE SMOOTH",
"307 484 OFFCURVE",
"330 398 OFFCURVE",
"411 398 CURVE SMOOTH",
"470 398 OFFCURVE",
"513 444 OFFCURVE",
"526 491 CURVE",
"514 496 LINE",
"497 455 OFFCURVE",
"458 417 OFFCURVE",
"412 417 CURVE SMOOTH",
"343 417 OFFCURVE",
"319 503 OFFCURVE",
"237 503 CURVE SMOOTH",
"182 503 OFFCURVE",
"130 463 OFFCURVE",
"116 407 CURVE",
"128 402 LINE"
);
},
{
closed = 1;
nodes = (
"143 242 OFFCURVE",
"185 281 OFFCURVE",
"234 281 CURVE SMOOTH",
"307 281 OFFCURVE",
"330 195 OFFCURVE",
"411 195 CURVE SMOOTH",
"470 195 OFFCURVE",
"513 241 OFFCURVE",
"526 288 CURVE",
"514 293 LINE",
"497 252 OFFCURVE",
"458 214 OFFCURVE",
"412 214 CURVE SMOOTH",
"343 214 OFFCURVE",
"319 300 OFFCURVE",
"237 300 CURVE SMOOTH",
"182 300 OFFCURVE",
"130 260 OFFCURVE",
"116 204 CURVE",
"128 199 LINE"
);
}
);
width = 650;
}
);
unicode = 2248;
},
